<?xml version="1.0" encoding="utf-8"?>
<!-- Generator: Adobe Illustrator 23.0.1, SVG Export Plug-In . SVG Version: 6.00 Build 0)  -->
<svg version="1.1" id="Layer_1" xmlns="http://www.w3.org/2000/svg" xmlns:xlink="http://www.w3.org/1999/xlink" x="0px" y="0px"
	 viewBox="0 0 288 288" style="enable-background:new 0 0 288 288;" xml:space="preserve">
<style type="text/css">
	.st0{fill:none;stroke:#A6CE39;stroke-linecap:round;stroke-linejoin:round;stroke-miterlimit:10;}
	.st1{fill:none;stroke:#A6CE39;stroke-linejoin:round;stroke-miterlimit:10;}
	.st2{fill:none;stroke:#A6CE39;stroke-width:0.5;stroke-linecap:round;stroke-linejoin:round;stroke-miterlimit:10;}
	.st3{fill:none;stroke:#A6CE39;stroke-width:1.5;stroke-linecap:round;stroke-linejoin:round;}
	.st4{fill:none;stroke:#A6CE39;stroke-width:1.5;stroke-linecap:round;stroke-linejoin:round;stroke-dasharray:0,3.4167;}
	.st5{fill:none;stroke:#A6CE39;stroke-width:1.3571;stroke-linecap:round;stroke-linejoin:round;}
	.st6{fill:none;stroke:#A6CE39;stroke-width:1.3571;stroke-linecap:round;stroke-linejoin:round;stroke-dasharray:0,3.0952;}
	.st7{fill:none;stroke:#A6CE39;stroke-width:1.2143;stroke-linecap:round;stroke-linejoin:round;}
	.st8{fill:none;stroke:#A6CE39;stroke-width:1.2143;stroke-linecap:round;stroke-linejoin:round;stroke-dasharray:0,2.7738;}
	.st9{fill:none;stroke:#A6CE39;stroke-width:1.0714;stroke-linecap:round;stroke-linejoin:round;}
	.st10{fill:none;stroke:#A6CE39;stroke-width:1.0714;stroke-linecap:round;stroke-linejoin:round;stroke-dasharray:0,2.4524;}
	.st11{fill:none;stroke:#A6CE39;stroke-width:0.9286;stroke-linecap:round;stroke-linejoin:round;}
	.st12{fill:none;stroke:#A6CE39;stroke-width:0.9286;stroke-linecap:round;stroke-linejoin:round;stroke-dasharray:0,2.131;}
	.st13{fill:none;stroke:#A6CE39;stroke-width:0.7857;stroke-linecap:round;stroke-linejoin:round;}
	.st14{fill:none;stroke:#A6CE39;stroke-width:0.7857;stroke-linecap:round;stroke-linejoin:round;stroke-dasharray:0,2.7143;}
	.st15{fill:none;stroke:#A6CE39;stroke-width:0.6429;stroke-linecap:round;stroke-linejoin:round;}
	.st16{fill:none;stroke:#A6CE39;stroke-width:0.6429;stroke-linecap:round;stroke-linejoin:round;stroke-dasharray:0,2.2321;}
	.st17{fill:none;stroke:#A6CE39;stroke-width:0.5;stroke-linecap:round;stroke-linejoin:round;}
	.st18{fill:none;stroke:#A6CE39;stroke-width:0.5;stroke-linecap:round;stroke-linejoin:round;stroke-dasharray:0,1.75;}
	.st19{fill:none;stroke:#A6CE39;stroke-width:2.5;stroke-linecap:round;stroke-linejoin:round;}
	.st20{fill:none;stroke:#A6CE39;stroke-width:2.5;stroke-linecap:round;stroke-linejoin:round;stroke-dasharray:0,6.8661;}
	.st21{fill:none;stroke:#A6CE39;stroke-width:2.2143;stroke-linecap:round;stroke-linejoin:round;}
	.st22{fill:none;stroke:#A6CE39;stroke-width:2.2143;stroke-linecap:round;stroke-linejoin:round;stroke-dasharray:0,6.257;}
	.st23{fill:none;stroke:#A6CE39;stroke-width:1.9286;stroke-linecap:round;stroke-linejoin:round;}
	.st24{fill:none;stroke:#A6CE39;stroke-width:1.9286;stroke-linecap:round;stroke-linejoin:round;stroke-dasharray:0,5.648;}
	.st25{fill:none;stroke:#A6CE39;stroke-width:1.6429;stroke-linecap:round;stroke-linejoin:round;}
	.st26{fill:none;stroke:#A6CE39;stroke-width:1.6429;stroke-linecap:round;stroke-linejoin:round;stroke-dasharray:0,5.039;}
	.st27{fill:none;stroke:#A6CE39;stroke-width:1.3571;stroke-linecap:round;stroke-linejoin:round;stroke-dasharray:0,5.9067;}
	.st28{fill:none;stroke:#A6CE39;stroke-width:1.0714;stroke-linecap:round;stroke-linejoin:round;stroke-dasharray:0,5.0946;}
	.st29{fill:none;stroke:#A6CE39;stroke-width:0.7857;stroke-linecap:round;stroke-linejoin:round;stroke-dasharray:0,4.2826;}
	.st30{fill:none;stroke:#A6CE39;stroke-width:0.5;stroke-linecap:round;stroke-linejoin:round;stroke-dasharray:0,5.2059;}
	.st31{fill:none;stroke:#A6CE39;stroke-width:2.3217;stroke-linecap:round;stroke-linejoin:round;}
	.st32{fill:none;stroke:#A6CE39;stroke-width:2.3217;stroke-linecap:round;stroke-linejoin:round;stroke-dasharray:0,6.5164;}
	.st33{fill:none;stroke:#A6CE39;stroke-width:2.1434;stroke-linecap:round;stroke-linejoin:round;}
	.st34{fill:none;stroke:#A6CE39;stroke-width:2.1434;stroke-linecap:round;stroke-linejoin:round;stroke-dasharray:0,6.1667;}
	.st35{fill:none;stroke:#A6CE39;stroke-width:1.9651;stroke-linecap:round;stroke-linejoin:round;}
	.st36{fill:none;stroke:#A6CE39;stroke-width:1.9651;stroke-linecap:round;stroke-linejoin:round;stroke-dasharray:0,5.8171;}
	.st37{fill:none;stroke:#A6CE39;stroke-width:1.7867;stroke-linecap:round;stroke-linejoin:round;}
	.st38{fill:none;stroke:#A6CE39;stroke-width:1.7867;stroke-linecap:round;stroke-linejoin:round;stroke-dasharray:0,5.4674;}
	.st39{fill:none;stroke:#A6CE39;stroke-width:1.6084;stroke-linecap:round;stroke-linejoin:round;}
	.st40{fill:none;stroke:#A6CE39;stroke-width:1.6084;stroke-linecap:round;stroke-linejoin:round;stroke-dasharray:0,5.1177;}
	.st41{fill:none;stroke:#A6CE39;stroke-width:1.4301;stroke-linecap:round;stroke-linejoin:round;}
	.st42{fill:none;stroke:#A6CE39;stroke-width:1.4301;stroke-linecap:round;stroke-linejoin:round;stroke-dasharray:0,6.3574;}
	.st43{fill:none;stroke:#A6CE39;stroke-width:1.2518;stroke-linecap:round;stroke-linejoin:round;}
	.st44{fill:none;stroke:#A6CE39;stroke-width:1.2518;stroke-linecap:round;stroke-linejoin:round;stroke-dasharray:0,5.8912;}
	.st45{fill:none;stroke:#A6CE39;stroke-width:1.0735;stroke-linecap:round;stroke-linejoin:round;}
	.st46{fill:none;stroke:#A6CE39;stroke-width:1.0735;stroke-linecap:round;stroke-linejoin:round;stroke-dasharray:0,5.425;}
	.st47{fill:none;stroke:#A6CE39;stroke-width:0.8952;stroke-linecap:round;stroke-linejoin:round;}
	.st48{fill:none;stroke:#A6CE39;stroke-width:0.8952;stroke-linecap:round;stroke-linejoin:round;stroke-dasharray:0,4.9588;}
	.st49{fill:none;stroke:#A6CE39;stroke-width:0.7169;stroke-linecap:round;stroke-linejoin:round;}
	.st50{fill:none;stroke:#A6CE39;stroke-width:0.7169;stroke-linecap:round;stroke-linejoin:round;stroke-dasharray:0,4.4926;}
	.st51{fill:none;stroke:#A6CE39;stroke-width:0.5385;stroke-linecap:round;stroke-linejoin:round;}
	.st52{fill:none;stroke:#A6CE39;stroke-width:0.5385;stroke-linecap:round;stroke-linejoin:round;stroke-dasharray:0,4.0264;}
	.st53{fill:#A6CE39;}
	.st54{fill:none;stroke:#A6CE39;stroke-miterlimit:10;}
	.st55{fill:none;stroke:#0077C0;stroke-linejoin:round;stroke-miterlimit:10;}
	.st56{fill:none;stroke:#0077C0;stroke-width:0.5;stroke-linecap:round;stroke-linejoin:round;stroke-miterlimit:10;}
	.st57{fill:none;stroke:#0077C0;stroke-width:6;stroke-linejoin:round;stroke-miterlimit:10;stroke-dasharray:0.5,4;}
	.st58{fill:none;stroke:#0077C0;stroke-width:1.5;stroke-linecap:round;stroke-linejoin:round;}
	.st59{fill:none;stroke:#0077C0;stroke-width:1.5;stroke-linecap:round;stroke-linejoin:round;stroke-dasharray:0,3.4167;}
	.st60{fill:none;stroke:#0077C0;stroke-width:1.3571;stroke-linecap:round;stroke-linejoin:round;}
	.st61{fill:none;stroke:#0077C0;stroke-width:1.3571;stroke-linecap:round;stroke-linejoin:round;stroke-dasharray:0,3.0952;}
	.st62{fill:none;stroke:#0077C0;stroke-width:1.2143;stroke-linecap:round;stroke-linejoin:round;}
	.st63{fill:none;stroke:#0077C0;stroke-width:1.2143;stroke-linecap:round;stroke-linejoin:round;stroke-dasharray:0,2.7738;}
	.st64{fill:none;stroke:#0077C0;stroke-width:1.0714;stroke-linecap:round;stroke-linejoin:round;}
	.st65{fill:none;stroke:#0077C0;stroke-width:1.0714;stroke-linecap:round;stroke-linejoin:round;stroke-dasharray:0,2.4524;}
	.st66{fill:none;stroke:#0077C0;stroke-width:0.9286;stroke-linecap:round;stroke-linejoin:round;}
	.st67{fill:none;stroke:#0077C0;stroke-width:0.9286;stroke-linecap:round;stroke-linejoin:round;stroke-dasharray:0,2.131;}
	.st68{fill:none;stroke:#0077C0;stroke-width:0.7857;stroke-linecap:round;stroke-linejoin:round;}
	.st69{fill:none;stroke:#0077C0;stroke-width:0.7857;stroke-linecap:round;stroke-linejoin:round;stroke-dasharray:0,2.7143;}
	.st70{fill:none;stroke:#0077C0;stroke-width:0.6429;stroke-linecap:round;stroke-linejoin:round;}
	.st71{fill:none;stroke:#0077C0;stroke-width:0.6429;stroke-linecap:round;stroke-linejoin:round;stroke-dasharray:0,2.2321;}
	.st72{fill:none;stroke:#0077C0;stroke-width:0.5;stroke-linecap:round;stroke-linejoin:round;}
	.st73{fill:none;stroke:#0077C0;stroke-width:0.5;stroke-linecap:round;stroke-linejoin:round;stroke-dasharray:0,1.75;}
	.st74{fill:none;stroke:#0077C0;stroke-linecap:round;stroke-linejoin:round;stroke-miterlimit:10;}
	.st75{fill:#11110F;}
	.st76{fill:none;stroke:#EF413D;stroke-width:1.0204;stroke-linecap:round;stroke-linejoin:round;stroke-miterlimit:10;}
	.st77{fill:none;stroke:#EF413D;stroke-miterlimit:10;}
	.st78{fill:none;stroke:#EF413D;stroke-width:0.5102;stroke-miterlimit:10;}
	.st79{fill:none;stroke:#EF413D;stroke-width:0.5;stroke-miterlimit:10;}
	.st80{fill:none;stroke:#EF413D;stroke-width:0.4758;stroke-miterlimit:10;}
	.st81{fill:none;stroke:#EF413D;stroke-width:0.4119;stroke-miterlimit:10;}
	.st82{fill:none;stroke:#EF413D;stroke-width:1.5;stroke-linecap:round;stroke-linejoin:round;}
	.st83{fill:none;stroke:#EF413D;stroke-width:1.5;stroke-linecap:round;stroke-linejoin:round;stroke-dasharray:0,3.4167;}
	.st84{fill:none;stroke:#EF413D;stroke-width:1.3571;stroke-linecap:round;stroke-linejoin:round;}
	.st85{fill:none;stroke:#EF413D;stroke-width:1.3571;stroke-linecap:round;stroke-linejoin:round;stroke-dasharray:0,3.0952;}
	.st86{fill:none;stroke:#EF413D;stroke-width:1.2143;stroke-linecap:round;stroke-linejoin:round;}
	.st87{fill:none;stroke:#EF413D;stroke-width:1.2143;stroke-linecap:round;stroke-linejoin:round;stroke-dasharray:0,2.7738;}
	.st88{fill:none;stroke:#EF413D;stroke-width:1.0714;stroke-linecap:round;stroke-linejoin:round;}
	.st89{fill:none;stroke:#EF413D;stroke-width:1.0714;stroke-linecap:round;stroke-linejoin:round;stroke-dasharray:0,2.4524;}
	.st90{fill:none;stroke:#EF413D;stroke-width:0.9286;stroke-linecap:round;stroke-linejoin:round;}
	.st91{fill:none;stroke:#EF413D;stroke-width:0.9286;stroke-linecap:round;stroke-linejoin:round;stroke-dasharray:0,2.131;}
	.st92{fill:none;stroke:#EF413D;stroke-width:0.7857;stroke-linecap:round;stroke-linejoin:round;}
	.st93{fill:none;stroke:#EF413D;stroke-width:0.7857;stroke-linecap:round;stroke-linejoin:round;stroke-dasharray:0,2.7143;}
	.st94{fill:none;stroke:#EF413D;stroke-width:0.6429;stroke-linecap:round;stroke-linejoin:round;}
	.st95{fill:none;stroke:#EF413D;stroke-width:0.6429;stroke-linecap:round;stroke-linejoin:round;stroke-dasharray:0,2.2321;}
	.st96{fill:none;stroke:#EF413D;stroke-width:0.5;stroke-linecap:round;stroke-linejoin:round;}
	.st97{fill:none;stroke:#EF413D;stroke-width:0.5;stroke-linecap:round;stroke-linejoin:round;stroke-dasharray:0,1.75;}
	.st98{fill:none;stroke:#00A78D;stroke-miterlimit:10;}
	.st99{fill:none;stroke:#00A78D;stroke-width:0.5;stroke-miterlimit:10;}
	.st100{fill:none;stroke:#00A78D;stroke-width:1.5;stroke-linecap:round;stroke-linejoin:round;}
	.st101{fill:none;stroke:#00A78D;stroke-width:1.5;stroke-linecap:round;stroke-linejoin:round;stroke-dasharray:0,3.4167;}
	.st102{fill:none;stroke:#00A78D;stroke-width:1.3571;stroke-linecap:round;stroke-linejoin:round;}
	.st103{fill:none;stroke:#00A78D;stroke-width:1.3571;stroke-linecap:round;stroke-linejoin:round;stroke-dasharray:0,3.0952;}
	.st104{fill:none;stroke:#00A78D;stroke-width:1.2143;stroke-linecap:round;stroke-linejoin:round;}
	.st105{fill:none;stroke:#00A78D;stroke-width:1.2143;stroke-linecap:round;stroke-linejoin:round;stroke-dasharray:0,2.7738;}
	.st106{fill:none;stroke:#00A78D;stroke-width:1.0714;stroke-linecap:round;stroke-linejoin:round;}
	.st107{fill:none;stroke:#00A78D;stroke-width:1.0714;stroke-linecap:round;stroke-linejoin:round;stroke-dasharray:0,2.4524;}
	.st108{fill:none;stroke:#00A78D;stroke-width:0.9286;stroke-linecap:round;stroke-linejoin:round;}
	.st109{fill:none;stroke:#00A78D;stroke-width:0.9286;stroke-linecap:round;stroke-linejoin:round;stroke-dasharray:0,2.131;}
	.st110{fill:none;stroke:#00A78D;stroke-width:0.7857;stroke-linecap:round;stroke-linejoin:round;}
	.st111{fill:none;stroke:#00A78D;stroke-width:0.7857;stroke-linecap:round;stroke-linejoin:round;stroke-dasharray:0,2.7143;}
	.st112{fill:none;stroke:#00A78D;stroke-width:0.6429;stroke-linecap:round;stroke-linejoin:round;}
	.st113{fill:none;stroke:#00A78D;stroke-width:0.6429;stroke-linecap:round;stroke-linejoin:round;stroke-dasharray:0,2.2321;}
	.st114{fill:none;stroke:#00A78D;stroke-width:0.5;stroke-linecap:round;stroke-linejoin:round;}
	.st115{fill:none;stroke:#00A78D;stroke-width:0.5;stroke-linecap:round;stroke-linejoin:round;stroke-dasharray:0,1.75;}
</style>
<g>
	<ellipse class="st98" cx="144" cy="116.7" rx="20" ry="41.5"/>
	<path class="st98" d="M77.1,139.9C71.5,153,66,170.7,64.9,191c0,0,25.5,8,60.9-9.9c5.7-2.9,11.9-4.3,18.2-4.3"/>
	<path class="st98" d="M128.9,89.5c0,0-21.1,6.3-38.8,27.5"/>
	<path class="st98" d="M95.2,136.4c-2.9,9.5-6.6,16.6-12.1,14.9c-5.5-1.7-7.6-10.8-4.6-20.2c2.9-9.5,9.8-15.7,15.3-14
		C99.2,118.7,98.1,126.9,95.2,136.4z"/>
	<path class="st99" d="M164,116.7c-15.1,0-7,38.3-20,41.5c0,0-6.7,3.3-5.9,18.9c0.5,10.2-8.7,11.9-6.9,27.2"/>
	<path class="st99" d="M117.1,94.8c0,0-25.7,25.3-12.6,94.6"/>
	<path class="st98" d="M210.9,139.9c5.7,13.1,11.1,30.9,12.2,51.1c0,0-25.5,8-60.9-9.9c-5.7-2.9-11.9-4.3-18.2-4.3"/>
	<path class="st98" d="M159.1,89.5c0,0,21.1,6.3,38.8,27.5"/>
	<path class="st98" d="M192.8,136.4c2.9,9.5,6.6,16.6,12.1,14.9c5.5-1.7,7.6-10.8,4.6-20.2s-9.8-15.7-15.3-14
		C188.8,118.7,189.9,126.9,192.8,136.4z"/>
	<path class="st99" d="M183.5,189.4c13.1-69.3-12.6-94.6-12.6-94.6"/>
	<path class="st98" d="M134,178c-2.7,15-14.4,16.4-14,34.8c0,0,8.9-11.2,24-11.2s24,11.2,24,11.2c0.4-18.4-11.2-19.7-14-34.8"/>
	<g>
		<g>
			<g>
				<line class="st100" x1="85.9" y1="200" x2="85.9" y2="200"/>
				<line class="st101" x1="82.5" y1="200" x2="77.4" y2="200"/>
				<line class="st100" x1="75.7" y1="200" x2="75.7" y2="200"/>
			</g>
		</g>
		<g>
			<g>
				<line class="st102" x1="85.5" y1="202.3" x2="85.5" y2="202.3"/>
				<line class="st103" x1="82.4" y1="202.3" x2="77.7" y2="202.3"/>
				<line class="st102" x1="76.2" y1="202.3" x2="76.2" y2="202.3"/>
			</g>
		</g>
		<g>
			<g>
				<line class="st104" x1="85" y1="204.5" x2="85" y2="204.5"/>
				<line class="st105" x1="82.2" y1="204.5" x2="78" y2="204.5"/>
				<line class="st104" x1="76.7" y1="204.5" x2="76.7" y2="204.5"/>
			</g>
		</g>
		<g>
			<g>
				<line class="st106" x1="84.5" y1="206.8" x2="84.5" y2="206.8"/>
				<line class="st107" x1="82" y1="206.8" x2="78.4" y2="206.8"/>
				<line class="st106" x1="77.1" y1="206.8" x2="77.1" y2="206.8"/>
			</g>
		</g>
		<g>
			<g>
				<line class="st108" x1="84" y1="209" x2="84" y2="209"/>
				<line class="st109" x1="81.9" y1="209" x2="78.7" y2="209"/>
				<line class="st108" x1="77.6" y1="209" x2="77.6" y2="209"/>
			</g>
		</g>
		<g>
			<g>
				<line class="st110" x1="83.5" y1="211.3" x2="83.5" y2="211.3"/>
				<line class="st111" x1="80.8" y1="211.3" x2="79.5" y2="211.3"/>
				<line class="st110" x1="78.1" y1="211.3" x2="78.1" y2="211.3"/>
			</g>
		</g>
		<g>
			<g>
				<line class="st112" x1="83.1" y1="213.5" x2="83.1" y2="213.5"/>
				<line class="st113" x1="80.8" y1="213.5" x2="79.7" y2="213.5"/>
				<line class="st112" x1="78.6" y1="213.5" x2="78.6" y2="213.5"/>
			</g>
		</g>
		<g>
			<g>
				<line class="st114" x1="82.6" y1="215.8" x2="82.6" y2="215.8"/>
				<line class="st115" x1="80.8" y1="215.8" x2="79.9" y2="215.8"/>
				<line class="st114" x1="79.1" y1="215.8" x2="79.1" y2="215.8"/>
			</g>
		</g>
	</g>
	<g>
		<g>
			<g>
				<line class="st100" x1="212.3" y1="200" x2="212.3" y2="200"/>
				<line class="st101" x1="208.9" y1="200" x2="203.8" y2="200"/>
				<line class="st100" x1="202.1" y1="200" x2="202.1" y2="200"/>
			</g>
		</g>
		<g>
			<g>
				<line class="st102" x1="211.8" y1="202.3" x2="211.8" y2="202.3"/>
				<line class="st103" x1="208.7" y1="202.3" x2="204.1" y2="202.3"/>
				<line class="st102" x1="202.5" y1="202.3" x2="202.5" y2="202.3"/>
			</g>
		</g>
		<g>
			<g>
				<line class="st104" x1="211.3" y1="204.5" x2="211.3" y2="204.5"/>
				<line class="st105" x1="208.6" y1="204.5" x2="204.4" y2="204.5"/>
				<line class="st104" x1="203" y1="204.5" x2="203" y2="204.5"/>
			</g>
		</g>
		<g>
			<g>
				<line class="st106" x1="210.9" y1="206.8" x2="210.9" y2="206.8"/>
				<line class="st107" x1="208.4" y1="206.8" x2="204.7" y2="206.8"/>
				<line class="st106" x1="203.5" y1="206.8" x2="203.5" y2="206.8"/>
			</g>
		</g>
		<g>
			<g>
				<line class="st108" x1="210.4" y1="209" x2="210.4" y2="209"/>
				<line class="st109" x1="208.2" y1="209" x2="205" y2="209"/>
				<line class="st108" x1="204" y1="209" x2="204" y2="209"/>
			</g>
		</g>
		<g>
			<g>
				<line class="st110" x1="209.9" y1="211.3" x2="209.9" y2="211.3"/>
				<line class="st111" x1="207.2" y1="211.3" x2="205.8" y2="211.3"/>
				<line class="st110" x1="204.5" y1="211.3" x2="204.5" y2="211.3"/>
			</g>
		</g>
		<g>
			<g>
				<line class="st112" x1="209.4" y1="213.5" x2="209.4" y2="213.5"/>
				<line class="st113" x1="207.2" y1="213.5" x2="206.1" y2="213.5"/>
				<line class="st112" x1="204.9" y1="213.5" x2="204.9" y2="213.5"/>
			</g>
		</g>
		<g>
			<g>
				<line class="st114" x1="208.9" y1="215.8" x2="208.9" y2="215.8"/>
				<line class="st115" x1="207.2" y1="215.8" x2="206.3" y2="215.8"/>
				<line class="st114" x1="205.4" y1="215.8" x2="205.4" y2="215.8"/>
			</g>
		</g>
	</g>
	<path class="st99" d="M186.7,139.9c2.7,3.5,4.3,6.8,5.3,10.1c5.2,16.5,15.6,30.8,30,40.3l1,0.7"/>
	<path class="st99" d="M101.3,139.9c-2.7,3.5-4.3,6.8-5.3,10.1c-5.2,16.5-15.6,30.8-30,40.3l-1,0.7"/>
	<path class="st99" d="M124,116.7c15.1,0,7,38.3,20,41.5c0,0,6.7,3.3,5.9,18.9c-0.5,10.2,8.7,11.9,6.9,27.2"/>
</g>
<path class="st99" d="M123.2,151.6c2.3,4.8,2.9,8.5-0.2,10c-3.1,1.5-7.5-1.2-9.7-5.9c-2.3-4.8-1.6-9.8,1.5-11.3
	C117.8,142.8,120.9,146.8,123.2,151.6z"/>
<path class="st99" d="M164.8,151.6c-2.3,4.8-2.9,8.5,0.2,10c3.1,1.5,7.5-1.2,9.7-5.9c2.3-4.8,1.6-9.8-1.5-11.3
	C170.2,142.8,167.1,146.8,164.8,151.6z"/>
<path class="st99" d="M108,100.5V87.7c0,0-17.9,13.9-17.9,29.2"/>
<path class="st99" d="M180,100.5V87.7c0,0,17.9,13.9,17.9,29.2"/>
</svg>
