<?xml version="1.0" encoding="utf-8"?>
<!-- Generator: Adobe Illustrator 23.0.1, SVG Export Plug-In . SVG Version: 6.00 Build 0)  -->
<svg version="1.1" id="Layer_1" xmlns="http://www.w3.org/2000/svg" xmlns:xlink="http://www.w3.org/1999/xlink" x="0px" y="0px"
	 viewBox="0 0 360 360" style="enable-background:new 0 0 360 360;" xml:space="preserve">
<style type="text/css">
	.st0{fill:none;stroke:#A6CE39;stroke-linecap:round;stroke-linejoin:round;stroke-miterlimit:10;}
	.st1{fill:none;stroke:#A6CE39;stroke-linejoin:round;stroke-miterlimit:10;}
	.st2{fill:none;stroke:#A6CE39;stroke-width:0.5;stroke-linecap:round;stroke-linejoin:round;stroke-miterlimit:10;}
	.st3{fill:none;stroke:#A6CE39;stroke-width:1.5;stroke-linecap:round;stroke-linejoin:round;}
	.st4{fill:none;stroke:#A6CE39;stroke-width:1.5;stroke-linecap:round;stroke-linejoin:round;stroke-dasharray:0,3.4167;}
	.st5{fill:none;stroke:#A6CE39;stroke-width:1.3571;stroke-linecap:round;stroke-linejoin:round;}
	.st6{fill:none;stroke:#A6CE39;stroke-width:1.3571;stroke-linecap:round;stroke-linejoin:round;stroke-dasharray:0,3.0952;}
	.st7{fill:none;stroke:#A6CE39;stroke-width:1.2143;stroke-linecap:round;stroke-linejoin:round;}
	.st8{fill:none;stroke:#A6CE39;stroke-width:1.2143;stroke-linecap:round;stroke-linejoin:round;stroke-dasharray:0,2.7738;}
	.st9{fill:none;stroke:#A6CE39;stroke-width:1.0714;stroke-linecap:round;stroke-linejoin:round;}
	.st10{fill:none;stroke:#A6CE39;stroke-width:1.0714;stroke-linecap:round;stroke-linejoin:round;stroke-dasharray:0,2.4524;}
	.st11{fill:none;stroke:#A6CE39;stroke-width:0.9286;stroke-linecap:round;stroke-linejoin:round;}
	.st12{fill:none;stroke:#A6CE39;stroke-width:0.9286;stroke-linecap:round;stroke-linejoin:round;stroke-dasharray:0,2.131;}
	.st13{fill:none;stroke:#A6CE39;stroke-width:0.7857;stroke-linecap:round;stroke-linejoin:round;}
	.st14{fill:none;stroke:#A6CE39;stroke-width:0.7857;stroke-linecap:round;stroke-linejoin:round;stroke-dasharray:0,2.7143;}
	.st15{fill:none;stroke:#A6CE39;stroke-width:0.6429;stroke-linecap:round;stroke-linejoin:round;}
	.st16{fill:none;stroke:#A6CE39;stroke-width:0.6429;stroke-linecap:round;stroke-linejoin:round;stroke-dasharray:0,2.2321;}
	.st17{fill:none;stroke:#A6CE39;stroke-width:0.5;stroke-linecap:round;stroke-linejoin:round;}
	.st18{fill:none;stroke:#A6CE39;stroke-width:0.5;stroke-linecap:round;stroke-linejoin:round;stroke-dasharray:0,1.75;}
	.st19{fill:none;stroke:#A6CE39;stroke-width:2.5;stroke-linecap:round;stroke-linejoin:round;}
	.st20{fill:none;stroke:#A6CE39;stroke-width:2.5;stroke-linecap:round;stroke-linejoin:round;stroke-dasharray:0,6.8661;}
	.st21{fill:none;stroke:#A6CE39;stroke-width:2.2143;stroke-linecap:round;stroke-linejoin:round;}
	.st22{fill:none;stroke:#A6CE39;stroke-width:2.2143;stroke-linecap:round;stroke-linejoin:round;stroke-dasharray:0,6.257;}
	.st23{fill:none;stroke:#A6CE39;stroke-width:1.9286;stroke-linecap:round;stroke-linejoin:round;}
	.st24{fill:none;stroke:#A6CE39;stroke-width:1.9286;stroke-linecap:round;stroke-linejoin:round;stroke-dasharray:0,5.648;}
	.st25{fill:none;stroke:#A6CE39;stroke-width:1.6429;stroke-linecap:round;stroke-linejoin:round;}
	.st26{fill:none;stroke:#A6CE39;stroke-width:1.6429;stroke-linecap:round;stroke-linejoin:round;stroke-dasharray:0,5.039;}
	.st27{fill:none;stroke:#A6CE39;stroke-width:1.3571;stroke-linecap:round;stroke-linejoin:round;stroke-dasharray:0,5.9067;}
	.st28{fill:none;stroke:#A6CE39;stroke-width:1.0714;stroke-linecap:round;stroke-linejoin:round;stroke-dasharray:0,5.0946;}
	.st29{fill:none;stroke:#A6CE39;stroke-width:0.7857;stroke-linecap:round;stroke-linejoin:round;stroke-dasharray:0,4.2826;}
	.st30{fill:none;stroke:#A6CE39;stroke-width:0.5;stroke-linecap:round;stroke-linejoin:round;stroke-dasharray:0,5.2059;}
	.st31{fill:none;stroke:#A6CE39;stroke-width:2.3217;stroke-linecap:round;stroke-linejoin:round;}
	.st32{fill:none;stroke:#A6CE39;stroke-width:2.3217;stroke-linecap:round;stroke-linejoin:round;stroke-dasharray:0,6.5164;}
	.st33{fill:none;stroke:#A6CE39;stroke-width:2.1434;stroke-linecap:round;stroke-linejoin:round;}
	.st34{fill:none;stroke:#A6CE39;stroke-width:2.1434;stroke-linecap:round;stroke-linejoin:round;stroke-dasharray:0,6.1667;}
	.st35{fill:none;stroke:#A6CE39;stroke-width:1.9651;stroke-linecap:round;stroke-linejoin:round;}
	.st36{fill:none;stroke:#A6CE39;stroke-width:1.9651;stroke-linecap:round;stroke-linejoin:round;stroke-dasharray:0,5.8171;}
	.st37{fill:none;stroke:#A6CE39;stroke-width:1.7867;stroke-linecap:round;stroke-linejoin:round;}
	.st38{fill:none;stroke:#A6CE39;stroke-width:1.7867;stroke-linecap:round;stroke-linejoin:round;stroke-dasharray:0,5.4674;}
	.st39{fill:none;stroke:#A6CE39;stroke-width:1.6084;stroke-linecap:round;stroke-linejoin:round;}
	.st40{fill:none;stroke:#A6CE39;stroke-width:1.6084;stroke-linecap:round;stroke-linejoin:round;stroke-dasharray:0,5.1177;}
	.st41{fill:none;stroke:#A6CE39;stroke-width:1.4301;stroke-linecap:round;stroke-linejoin:round;}
	.st42{fill:none;stroke:#A6CE39;stroke-width:1.4301;stroke-linecap:round;stroke-linejoin:round;stroke-dasharray:0,6.3574;}
	.st43{fill:none;stroke:#A6CE39;stroke-width:1.2518;stroke-linecap:round;stroke-linejoin:round;}
	.st44{fill:none;stroke:#A6CE39;stroke-width:1.2518;stroke-linecap:round;stroke-linejoin:round;stroke-dasharray:0,5.8912;}
	.st45{fill:none;stroke:#A6CE39;stroke-width:1.0735;stroke-linecap:round;stroke-linejoin:round;}
	.st46{fill:none;stroke:#A6CE39;stroke-width:1.0735;stroke-linecap:round;stroke-linejoin:round;stroke-dasharray:0,5.425;}
	.st47{fill:none;stroke:#A6CE39;stroke-width:0.8952;stroke-linecap:round;stroke-linejoin:round;}
	.st48{fill:none;stroke:#A6CE39;stroke-width:0.8952;stroke-linecap:round;stroke-linejoin:round;stroke-dasharray:0,4.9588;}
	.st49{fill:none;stroke:#A6CE39;stroke-width:0.7169;stroke-linecap:round;stroke-linejoin:round;}
	.st50{fill:none;stroke:#A6CE39;stroke-width:0.7169;stroke-linecap:round;stroke-linejoin:round;stroke-dasharray:0,4.4926;}
	.st51{fill:none;stroke:#A6CE39;stroke-width:0.5385;stroke-linecap:round;stroke-linejoin:round;}
	.st52{fill:none;stroke:#A6CE39;stroke-width:0.5385;stroke-linecap:round;stroke-linejoin:round;stroke-dasharray:0,4.0264;}
	.st53{fill:#A6CE39;}
	.st54{fill:none;stroke:#A6CE39;stroke-miterlimit:10;}
	.st55{fill:none;stroke:#0077C0;stroke-linejoin:round;stroke-miterlimit:10;}
	.st56{fill:none;stroke:#0077C0;stroke-width:0.5;stroke-linecap:round;stroke-linejoin:round;stroke-miterlimit:10;}
	.st57{fill:none;stroke:#0077C0;stroke-width:6;stroke-linejoin:round;stroke-miterlimit:10;stroke-dasharray:0.5,4;}
	.st58{fill:none;stroke:#0077C0;stroke-width:1.5;stroke-linecap:round;stroke-linejoin:round;}
	.st59{fill:none;stroke:#0077C0;stroke-width:1.5;stroke-linecap:round;stroke-linejoin:round;stroke-dasharray:0,3.4167;}
	.st60{fill:none;stroke:#0077C0;stroke-width:1.3571;stroke-linecap:round;stroke-linejoin:round;}
	.st61{fill:none;stroke:#0077C0;stroke-width:1.3571;stroke-linecap:round;stroke-linejoin:round;stroke-dasharray:0,3.0952;}
	.st62{fill:none;stroke:#0077C0;stroke-width:1.2143;stroke-linecap:round;stroke-linejoin:round;}
	.st63{fill:none;stroke:#0077C0;stroke-width:1.2143;stroke-linecap:round;stroke-linejoin:round;stroke-dasharray:0,2.7738;}
	.st64{fill:none;stroke:#0077C0;stroke-width:1.0714;stroke-linecap:round;stroke-linejoin:round;}
	.st65{fill:none;stroke:#0077C0;stroke-width:1.0714;stroke-linecap:round;stroke-linejoin:round;stroke-dasharray:0,2.4524;}
	.st66{fill:none;stroke:#0077C0;stroke-width:0.9286;stroke-linecap:round;stroke-linejoin:round;}
	.st67{fill:none;stroke:#0077C0;stroke-width:0.9286;stroke-linecap:round;stroke-linejoin:round;stroke-dasharray:0,2.131;}
	.st68{fill:none;stroke:#0077C0;stroke-width:0.7857;stroke-linecap:round;stroke-linejoin:round;}
	.st69{fill:none;stroke:#0077C0;stroke-width:0.7857;stroke-linecap:round;stroke-linejoin:round;stroke-dasharray:0,2.7143;}
	.st70{fill:none;stroke:#0077C0;stroke-width:0.6429;stroke-linecap:round;stroke-linejoin:round;}
	.st71{fill:none;stroke:#0077C0;stroke-width:0.6429;stroke-linecap:round;stroke-linejoin:round;stroke-dasharray:0,2.2321;}
	.st72{fill:none;stroke:#0077C0;stroke-width:0.5;stroke-linecap:round;stroke-linejoin:round;}
	.st73{fill:none;stroke:#0077C0;stroke-width:0.5;stroke-linecap:round;stroke-linejoin:round;stroke-dasharray:0,1.75;}
	.st74{fill:none;stroke:#0077C0;stroke-linecap:round;stroke-linejoin:round;stroke-miterlimit:10;}
	.st75{fill:#11110F;}
	.st76{fill:none;stroke:#EF413D;stroke-width:1.0204;stroke-linecap:round;stroke-linejoin:round;stroke-miterlimit:10;}
	.st77{fill:none;stroke:#EF413D;stroke-miterlimit:10;}
	.st78{fill:none;stroke:#EF413D;stroke-width:0.5102;stroke-miterlimit:10;}
	.st79{fill:none;stroke:#EF413D;stroke-width:0.5;stroke-miterlimit:10;}
	.st80{fill:none;stroke:#EF413D;stroke-width:0.4758;stroke-miterlimit:10;}
	.st81{fill:none;stroke:#EF413D;stroke-width:0.4119;stroke-miterlimit:10;}
	.st82{fill:none;stroke:#EF413D;stroke-width:1.5;stroke-linecap:round;stroke-linejoin:round;}
	.st83{fill:none;stroke:#EF413D;stroke-width:1.5;stroke-linecap:round;stroke-linejoin:round;stroke-dasharray:0,3.4167;}
	.st84{fill:none;stroke:#EF413D;stroke-width:1.3571;stroke-linecap:round;stroke-linejoin:round;}
	.st85{fill:none;stroke:#EF413D;stroke-width:1.3571;stroke-linecap:round;stroke-linejoin:round;stroke-dasharray:0,3.0952;}
	.st86{fill:none;stroke:#EF413D;stroke-width:1.2143;stroke-linecap:round;stroke-linejoin:round;}
	.st87{fill:none;stroke:#EF413D;stroke-width:1.2143;stroke-linecap:round;stroke-linejoin:round;stroke-dasharray:0,2.7738;}
	.st88{fill:none;stroke:#EF413D;stroke-width:1.0714;stroke-linecap:round;stroke-linejoin:round;}
	.st89{fill:none;stroke:#EF413D;stroke-width:1.0714;stroke-linecap:round;stroke-linejoin:round;stroke-dasharray:0,2.4524;}
	.st90{fill:none;stroke:#EF413D;stroke-width:0.9286;stroke-linecap:round;stroke-linejoin:round;}
	.st91{fill:none;stroke:#EF413D;stroke-width:0.9286;stroke-linecap:round;stroke-linejoin:round;stroke-dasharray:0,2.131;}
	.st92{fill:none;stroke:#EF413D;stroke-width:0.7857;stroke-linecap:round;stroke-linejoin:round;}
	.st93{fill:none;stroke:#EF413D;stroke-width:0.7857;stroke-linecap:round;stroke-linejoin:round;stroke-dasharray:0,2.7143;}
	.st94{fill:none;stroke:#EF413D;stroke-width:0.6429;stroke-linecap:round;stroke-linejoin:round;}
	.st95{fill:none;stroke:#EF413D;stroke-width:0.6429;stroke-linecap:round;stroke-linejoin:round;stroke-dasharray:0,2.2321;}
	.st96{fill:none;stroke:#EF413D;stroke-width:0.5;stroke-linecap:round;stroke-linejoin:round;}
	.st97{fill:none;stroke:#EF413D;stroke-width:0.5;stroke-linecap:round;stroke-linejoin:round;stroke-dasharray:0,1.75;}
</style>
<g>
	<path class="st0" d="M162,186.7c0-26.8,4.7-57.3,7.3-72c0.9-5.2,5.4-9,10.7-9h0c5.3,0,9.8,3.8,10.7,9c2.6,14.7,7.3,45.2,7.3,72l0,0
		C188.1,196.7,171.9,196.7,162,186.7L162,186.7z"/>
</g>
<path class="st0" d="M180,72.7h-9l-14.1,78.4c-2.6,11.7-3.9,23.6-3.9,35.6v0"/>
<path class="st0" d="M180,258.7h-13.5l3.3-9c-0.6-2.2-1.5-4.1-2.5-5.8c-9.8-17.1-14.3-36.7-14.3-56.3v-0.9l-18-9l-72,36v5.3
	c0,8.1,3.2,16,9,21.7l0,0v-9h89.4"/>
<polyline class="st1" points="72,231.7 72,226.4 159.5,226.4 "/>
<rect x="90.4" y="231.7" class="st0" width="26.6" height="4.5"/>
<line class="st2" x1="115.9" y1="231.7" x2="115.9" y2="236.3"/>
<line class="st2" x1="113.6" y1="231.7" x2="113.6" y2="236.3"/>
<line class="st2" x1="110.3" y1="231.7" x2="110.3" y2="236.3"/>
<line class="st2" x1="91.5" y1="236.3" x2="91.5" y2="231.7"/>
<line class="st2" x1="93.7" y1="236.3" x2="93.7" y2="231.7"/>
<line class="st2" x1="97.1" y1="236.3" x2="97.1" y2="231.7"/>
<rect x="126.4" y="231.7" class="st0" width="26.6" height="4.5"/>
<line class="st2" x1="151.9" y1="231.7" x2="151.9" y2="236.3"/>
<line class="st2" x1="149.6" y1="231.7" x2="149.6" y2="236.3"/>
<line class="st2" x1="146.3" y1="231.7" x2="146.3" y2="236.3"/>
<line class="st2" x1="127.5" y1="236.3" x2="127.5" y2="231.7"/>
<line class="st2" x1="129.7" y1="236.3" x2="129.7" y2="231.7"/>
<line class="st2" x1="133.1" y1="236.3" x2="133.1" y2="231.7"/>
<path class="st2" d="M72,226.4c68.3,0,63-48.7,63-48.7s-17.7,36-72,36"/>
<path class="st1" d="M153,114.7v-9l-2.6,2.6c-4.1,4.1-6.4,9.6-6.4,15.4v0h18.2"/>
<line class="st2" x1="164" y1="114.7" x2="153" y2="114.7"/>
<path class="st0" d="M146.8,123.7v2.9c0,1.7,1.4,3.1,3.1,3.1h0c1.7,0,3.1-1.4,3.1-3.1v-2.9"/>
<polyline class="st0" points="117,177.7 117,159.7 110.8,159.7 110.8,177.7 "/>
<line class="st2" x1="117" y1="163.1" x2="110.8" y2="163.1"/>
<path class="st0" d="M180,72.7h9l14.1,78.4c2.6,11.7,3.9,23.6,3.9,35.6v0"/>
<path class="st2" d="M169.3,114.7c0,0,1.7,23.3,1.7,63l-9,9"/>
<path class="st2" d="M190.7,114.7c0,0-1.7,23.3-1.7,63l9,9"/>
<path class="st2" d="M171,177.7L171,177.7c5,5,13,5,18,0l0,0"/>
<path class="st0" d="M180,222.7c12,12,10.2,27,10.2,27h-20.5C169.8,249.7,168,234.7,180,222.7z"/>
<polyline class="st0" points="166.5,258.7 166.5,263.3 193.5,263.3 193.5,258.7 "/>
<line class="st0" x1="193.5" y1="263.3" x2="193.5" y2="258.7"/>
<line class="st2" x1="192.4" y1="263.3" x2="192.4" y2="258.7"/>
<line class="st2" x1="190.1" y1="263.3" x2="190.1" y2="258.7"/>
<line class="st2" x1="186.8" y1="263.3" x2="186.8" y2="258.7"/>
<line class="st2" x1="167.6" y1="258.7" x2="167.6" y2="263.3"/>
<line class="st2" x1="169.9" y1="258.7" x2="169.9" y2="263.3"/>
<line class="st2" x1="173.2" y1="258.7" x2="173.2" y2="263.3"/>
<path class="st2" d="M171,192.6c0,0-12.5,24.5-1.2,57.2"/>
<path class="st2" d="M189,192.6c0,0,12.5,24.5,1.2,57.2"/>
<path class="st2" d="M171,72.7c0,0,3.2,12.9,3.2,34.7"/>
<path class="st2" d="M189,72.7c0,0-3.2,12.9-3.2,34.7"/>
<path class="st0" d="M99,195.7v-9c0-5,4-9,9-9h0h9v9"/>
<line class="st2" x1="113.9" y1="177.7" x2="113.9" y2="188.3"/>
<line class="st2" x1="149.9" y1="129.7" x2="149.9" y2="123.7"/>
<path class="st2" d="M153,114.7c0,0-7,1.3-9,9"/>
<path class="st0" d="M180,258.7h13.5l-3.3-9c0.6-2.2,1.5-4.1,2.5-5.8c9.8-17.1,14.3-36.7,14.3-56.3v-0.9l18-9l72,36v5.3
	c0,8.1-3.2,16-9,21.7v0v-9h-89.4"/>
<polyline class="st1" points="288,231.7 288,226.4 200.5,226.4 "/>
<rect x="243" y="231.7" transform="matrix(-1 -4.486601e-11 4.486601e-11 -1 512.6367 468)" class="st0" width="26.6" height="4.5"/>
<line class="st2" x1="244.1" y1="231.7" x2="244.1" y2="236.3"/>
<line class="st2" x1="246.4" y1="231.7" x2="246.4" y2="236.3"/>
<line class="st2" x1="249.7" y1="231.7" x2="249.7" y2="236.3"/>
<line class="st2" x1="268.5" y1="236.3" x2="268.5" y2="231.7"/>
<line class="st2" x1="266.3" y1="236.3" x2="266.3" y2="231.7"/>
<line class="st2" x1="262.9" y1="236.3" x2="262.9" y2="231.7"/>
<rect x="207" y="231.7" transform="matrix(-1 -4.486601e-11 4.486601e-11 -1 440.6367 468)" class="st0" width="26.6" height="4.5"/>
<line class="st2" x1="208.1" y1="231.7" x2="208.1" y2="236.3"/>
<line class="st2" x1="210.4" y1="231.7" x2="210.4" y2="236.3"/>
<line class="st2" x1="213.7" y1="231.7" x2="213.7" y2="236.3"/>
<line class="st2" x1="232.5" y1="236.3" x2="232.5" y2="231.7"/>
<line class="st2" x1="230.3" y1="236.3" x2="230.3" y2="231.7"/>
<line class="st2" x1="226.9" y1="236.3" x2="226.9" y2="231.7"/>
<path class="st2" d="M225,177.7c0,0-5.3,48.7,63,48.7"/>
<path class="st1" d="M207,114.7v-9l2.6,2.6c4.1,4.1,6.4,9.6,6.4,15.4v0h-18.2"/>
<line class="st2" x1="196" y1="114.7" x2="207" y2="114.7"/>
<path class="st0" d="M213.2,123.7v2.9c0,1.7-1.4,3.1-3.1,3.1h0c-1.7,0-3.1-1.4-3.1-3.1v-2.9"/>
<polyline class="st0" points="243,177.7 243,159.7 249.2,159.7 249.2,177.7 "/>
<line class="st2" x1="243" y1="163.1" x2="249.2" y2="163.1"/>
<path class="st0" d="M261,195.7v-9c0-5-4-9-9-9h0h-9v9"/>
<line class="st2" x1="246.1" y1="177.7" x2="246.1" y2="188.3"/>
<line class="st2" x1="210.1" y1="129.7" x2="210.1" y2="123.7"/>
<path class="st2" d="M207,114.7c0,0,7,1.3,9,9"/>
<line class="st0" x1="180" y1="222.7" x2="180" y2="194.2"/>
<path class="st2" d="M225,177.7c0,0,17.7,36,72,36"/>
<g>
	<g>
		<g>
			<line class="st3" x1="108.8" y1="241.9" x2="108.8" y2="241.9"/>
			<line class="st4" x1="105.4" y1="241.9" x2="100.3" y2="241.9"/>
			<line class="st3" x1="98.6" y1="241.9" x2="98.6" y2="241.9"/>
		</g>
	</g>
	<g>
		<g>
			<line class="st5" x1="108.3" y1="244.1" x2="108.3" y2="244.1"/>
			<line class="st6" x1="105.2" y1="244.1" x2="100.6" y2="244.1"/>
			<line class="st5" x1="99" y1="244.1" x2="99" y2="244.1"/>
		</g>
	</g>
	<g>
		<g>
			<line class="st7" x1="107.8" y1="246.4" x2="107.8" y2="246.4"/>
			<line class="st8" x1="105.1" y1="246.4" x2="100.9" y2="246.4"/>
			<line class="st7" x1="99.5" y1="246.4" x2="99.5" y2="246.4"/>
		</g>
	</g>
	<g>
		<g>
			<line class="st9" x1="107.4" y1="248.6" x2="107.4" y2="248.6"/>
			<line class="st10" x1="104.9" y1="248.6" x2="101.2" y2="248.6"/>
			<line class="st9" x1="100" y1="248.6" x2="100" y2="248.6"/>
		</g>
	</g>
	<g>
		<g>
			<line class="st11" x1="106.9" y1="250.9" x2="106.9" y2="250.9"/>
			<line class="st12" x1="104.7" y1="250.9" x2="101.6" y2="250.9"/>
			<line class="st11" x1="100.5" y1="250.9" x2="100.5" y2="250.9"/>
		</g>
	</g>
	<g>
		<g>
			<line class="st13" x1="106.4" y1="253.1" x2="106.4" y2="253.1"/>
			<line class="st14" x1="103.7" y1="253.1" x2="102.3" y2="253.1"/>
			<line class="st13" x1="101" y1="253.1" x2="101" y2="253.1"/>
		</g>
	</g>
	<g>
		<g>
			<line class="st15" x1="105.9" y1="255.4" x2="105.9" y2="255.4"/>
			<line class="st16" x1="103.7" y1="255.4" x2="102.6" y2="255.4"/>
			<line class="st15" x1="101.4" y1="255.4" x2="101.4" y2="255.4"/>
		</g>
	</g>
	<g>
		<g>
			<line class="st17" x1="105.4" y1="257.6" x2="105.4" y2="257.6"/>
			<line class="st18" x1="103.7" y1="257.6" x2="102.8" y2="257.6"/>
			<line class="st17" x1="101.9" y1="257.6" x2="101.9" y2="257.6"/>
		</g>
	</g>
</g>
<g>
	<g>
		<g>
			<line class="st3" x1="144.8" y1="241.9" x2="144.8" y2="241.9"/>
			<line class="st4" x1="141.4" y1="241.9" x2="136.3" y2="241.9"/>
			<line class="st3" x1="134.6" y1="241.9" x2="134.6" y2="241.9"/>
		</g>
	</g>
	<g>
		<g>
			<line class="st5" x1="144.3" y1="244.1" x2="144.3" y2="244.1"/>
			<line class="st6" x1="141.2" y1="244.1" x2="136.6" y2="244.1"/>
			<line class="st5" x1="135" y1="244.1" x2="135" y2="244.1"/>
		</g>
	</g>
	<g>
		<g>
			<line class="st7" x1="143.8" y1="246.4" x2="143.8" y2="246.4"/>
			<line class="st8" x1="141.1" y1="246.4" x2="136.9" y2="246.4"/>
			<line class="st7" x1="135.5" y1="246.4" x2="135.5" y2="246.4"/>
		</g>
	</g>
	<g>
		<g>
			<line class="st9" x1="143.4" y1="248.6" x2="143.4" y2="248.6"/>
			<line class="st10" x1="140.9" y1="248.6" x2="137.2" y2="248.6"/>
			<line class="st9" x1="136" y1="248.6" x2="136" y2="248.6"/>
		</g>
	</g>
	<g>
		<g>
			<line class="st11" x1="142.9" y1="250.9" x2="142.9" y2="250.9"/>
			<line class="st12" x1="140.7" y1="250.9" x2="137.6" y2="250.9"/>
			<line class="st11" x1="136.5" y1="250.9" x2="136.5" y2="250.9"/>
		</g>
	</g>
	<g>
		<g>
			<line class="st13" x1="142.4" y1="253.1" x2="142.4" y2="253.1"/>
			<line class="st14" x1="139.7" y1="253.1" x2="138.3" y2="253.1"/>
			<line class="st13" x1="137" y1="253.1" x2="137" y2="253.1"/>
		</g>
	</g>
	<g>
		<g>
			<line class="st15" x1="141.9" y1="255.4" x2="141.9" y2="255.4"/>
			<line class="st16" x1="139.7" y1="255.4" x2="138.6" y2="255.4"/>
			<line class="st15" x1="137.4" y1="255.4" x2="137.4" y2="255.4"/>
		</g>
	</g>
	<g>
		<g>
			<line class="st17" x1="141.4" y1="257.6" x2="141.4" y2="257.6"/>
			<line class="st18" x1="139.7" y1="257.6" x2="138.8" y2="257.6"/>
			<line class="st17" x1="137.9" y1="257.6" x2="137.9" y2="257.6"/>
		</g>
	</g>
</g>
<g>
	<g>
		<g>
			<line class="st3" x1="185.1" y1="268.9" x2="185.1" y2="268.9"/>
			<line class="st4" x1="181.7" y1="268.9" x2="176.6" y2="268.9"/>
			<line class="st3" x1="174.9" y1="268.9" x2="174.9" y2="268.9"/>
		</g>
	</g>
	<g>
		<g>
			<line class="st5" x1="184.6" y1="271.1" x2="184.6" y2="271.1"/>
			<line class="st6" x1="181.5" y1="271.1" x2="176.9" y2="271.1"/>
			<line class="st5" x1="175.4" y1="271.1" x2="175.4" y2="271.1"/>
		</g>
	</g>
	<g>
		<g>
			<line class="st7" x1="184.2" y1="273.4" x2="184.2" y2="273.4"/>
			<line class="st8" x1="181.4" y1="273.4" x2="177.2" y2="273.4"/>
			<line class="st7" x1="175.8" y1="273.4" x2="175.8" y2="273.4"/>
		</g>
	</g>
	<g>
		<g>
			<line class="st9" x1="183.7" y1="275.6" x2="183.7" y2="275.6"/>
			<line class="st10" x1="181.2" y1="275.6" x2="177.5" y2="275.6"/>
			<line class="st9" x1="176.3" y1="275.6" x2="176.3" y2="275.6"/>
		</g>
	</g>
	<g>
		<g>
			<line class="st11" x1="183.2" y1="277.9" x2="183.2" y2="277.9"/>
			<line class="st12" x1="181.1" y1="277.9" x2="177.9" y2="277.9"/>
			<line class="st11" x1="176.8" y1="277.9" x2="176.8" y2="277.9"/>
		</g>
	</g>
	<g>
		<g>
			<line class="st13" x1="182.7" y1="280.1" x2="182.7" y2="280.1"/>
			<line class="st14" x1="180" y1="280.1" x2="178.6" y2="280.1"/>
			<line class="st13" x1="177.3" y1="280.1" x2="177.3" y2="280.1"/>
		</g>
	</g>
	<g>
		<g>
			<line class="st15" x1="182.2" y1="282.3" x2="182.2" y2="282.3"/>
			<line class="st16" x1="180" y1="282.3" x2="178.9" y2="282.3"/>
			<line class="st15" x1="177.8" y1="282.3" x2="177.8" y2="282.3"/>
		</g>
	</g>
	<g>
		<g>
			<line class="st17" x1="181.7" y1="284.6" x2="181.7" y2="284.6"/>
			<line class="st18" x1="180" y1="284.6" x2="179.1" y2="284.6"/>
			<line class="st17" x1="178.2" y1="284.6" x2="178.2" y2="284.6"/>
		</g>
	</g>
</g>
<g>
	<g>
		<g>
			<line class="st3" x1="225.4" y1="241.9" x2="225.4" y2="241.9"/>
			<line class="st4" x1="222" y1="241.9" x2="216.9" y2="241.9"/>
			<line class="st3" x1="215.2" y1="241.9" x2="215.2" y2="241.9"/>
		</g>
	</g>
	<g>
		<g>
			<line class="st5" x1="225" y1="244.1" x2="225" y2="244.1"/>
			<line class="st6" x1="221.9" y1="244.1" x2="217.2" y2="244.1"/>
			<line class="st5" x1="215.7" y1="244.1" x2="215.7" y2="244.1"/>
		</g>
	</g>
	<g>
		<g>
			<line class="st7" x1="224.5" y1="246.4" x2="224.5" y2="246.4"/>
			<line class="st8" x1="221.7" y1="246.4" x2="217.5" y2="246.4"/>
			<line class="st7" x1="216.2" y1="246.4" x2="216.2" y2="246.4"/>
		</g>
	</g>
	<g>
		<g>
			<line class="st9" x1="224" y1="248.6" x2="224" y2="248.6"/>
			<line class="st10" x1="221.5" y1="248.6" x2="217.9" y2="248.6"/>
			<line class="st9" x1="216.6" y1="248.6" x2="216.6" y2="248.6"/>
		</g>
	</g>
	<g>
		<g>
			<line class="st11" x1="223.5" y1="250.9" x2="223.5" y2="250.9"/>
			<line class="st12" x1="221.4" y1="250.9" x2="218.2" y2="250.9"/>
			<line class="st11" x1="217.1" y1="250.9" x2="217.1" y2="250.9"/>
		</g>
	</g>
	<g>
		<g>
			<line class="st13" x1="223" y1="253.1" x2="223" y2="253.1"/>
			<line class="st14" x1="220.3" y1="253.1" x2="219" y2="253.1"/>
			<line class="st13" x1="217.6" y1="253.1" x2="217.6" y2="253.1"/>
		</g>
	</g>
	<g>
		<g>
			<line class="st15" x1="222.6" y1="255.4" x2="222.6" y2="255.4"/>
			<line class="st16" x1="220.3" y1="255.4" x2="219.2" y2="255.4"/>
			<line class="st15" x1="218.1" y1="255.4" x2="218.1" y2="255.4"/>
		</g>
	</g>
	<g>
		<g>
			<line class="st17" x1="222.1" y1="257.6" x2="222.1" y2="257.6"/>
			<line class="st18" x1="220.3" y1="257.6" x2="219.4" y2="257.6"/>
			<line class="st17" x1="218.6" y1="257.6" x2="218.6" y2="257.6"/>
		</g>
	</g>
</g>
<g>
	<g>
		<g>
			<line class="st3" x1="261.4" y1="241.9" x2="261.4" y2="241.9"/>
			<line class="st4" x1="258" y1="241.9" x2="252.9" y2="241.9"/>
			<line class="st3" x1="251.2" y1="241.9" x2="251.2" y2="241.9"/>
		</g>
	</g>
	<g>
		<g>
			<line class="st5" x1="261" y1="244.1" x2="261" y2="244.1"/>
			<line class="st6" x1="257.9" y1="244.1" x2="253.2" y2="244.1"/>
			<line class="st5" x1="251.7" y1="244.1" x2="251.7" y2="244.1"/>
		</g>
	</g>
	<g>
		<g>
			<line class="st7" x1="260.5" y1="246.4" x2="260.5" y2="246.4"/>
			<line class="st8" x1="257.7" y1="246.4" x2="253.5" y2="246.4"/>
			<line class="st7" x1="252.2" y1="246.4" x2="252.2" y2="246.4"/>
		</g>
	</g>
	<g>
		<g>
			<line class="st9" x1="260" y1="248.6" x2="260" y2="248.6"/>
			<line class="st10" x1="257.5" y1="248.6" x2="253.9" y2="248.6"/>
			<line class="st9" x1="252.6" y1="248.6" x2="252.6" y2="248.6"/>
		</g>
	</g>
	<g>
		<g>
			<line class="st11" x1="259.5" y1="250.9" x2="259.5" y2="250.9"/>
			<line class="st12" x1="257.4" y1="250.9" x2="254.2" y2="250.9"/>
			<line class="st11" x1="253.1" y1="250.9" x2="253.1" y2="250.9"/>
		</g>
	</g>
	<g>
		<g>
			<line class="st13" x1="259" y1="253.1" x2="259" y2="253.1"/>
			<line class="st14" x1="256.3" y1="253.1" x2="255" y2="253.1"/>
			<line class="st13" x1="253.6" y1="253.1" x2="253.6" y2="253.1"/>
		</g>
	</g>
	<g>
		<g>
			<line class="st15" x1="258.6" y1="255.4" x2="258.6" y2="255.4"/>
			<line class="st16" x1="256.3" y1="255.4" x2="255.2" y2="255.4"/>
			<line class="st15" x1="254.1" y1="255.4" x2="254.1" y2="255.4"/>
		</g>
	</g>
	<g>
		<g>
			<line class="st17" x1="258.1" y1="257.6" x2="258.1" y2="257.6"/>
			<line class="st18" x1="256.3" y1="257.6" x2="255.4" y2="257.6"/>
			<line class="st17" x1="254.6" y1="257.6" x2="254.6" y2="257.6"/>
		</g>
	</g>
</g>
</svg>
