<?xml version="1.0" encoding="utf-8"?>
<!-- Generator: Adobe Illustrator 23.0.1, SVG Export Plug-In . SVG Version: 6.00 Build 0)  -->
<svg version="1.1" id="Layer_1" xmlns="http://www.w3.org/2000/svg" xmlns:xlink="http://www.w3.org/1999/xlink" x="0px" y="0px"
	 viewBox="0 0 360 360" style="enable-background:new 0 0 360 360;" xml:space="preserve">
<style type="text/css">
	.st0{fill:none;stroke:#A6CE39;stroke-linecap:round;stroke-linejoin:round;stroke-miterlimit:10;}
	.st1{fill:none;stroke:#A6CE39;stroke-linejoin:round;stroke-miterlimit:10;}
	.st2{fill:none;stroke:#A6CE39;stroke-width:0.5;stroke-linecap:round;stroke-linejoin:round;stroke-miterlimit:10;}
	.st3{fill:none;stroke:#A6CE39;stroke-width:1.5;stroke-linecap:round;stroke-linejoin:round;}
	.st4{fill:none;stroke:#A6CE39;stroke-width:1.5;stroke-linecap:round;stroke-linejoin:round;stroke-dasharray:0,3.4167;}
	.st5{fill:none;stroke:#A6CE39;stroke-width:1.3571;stroke-linecap:round;stroke-linejoin:round;}
	.st6{fill:none;stroke:#A6CE39;stroke-width:1.3571;stroke-linecap:round;stroke-linejoin:round;stroke-dasharray:0,3.0952;}
	.st7{fill:none;stroke:#A6CE39;stroke-width:1.2143;stroke-linecap:round;stroke-linejoin:round;}
	.st8{fill:none;stroke:#A6CE39;stroke-width:1.2143;stroke-linecap:round;stroke-linejoin:round;stroke-dasharray:0,2.7738;}
	.st9{fill:none;stroke:#A6CE39;stroke-width:1.0714;stroke-linecap:round;stroke-linejoin:round;}
	.st10{fill:none;stroke:#A6CE39;stroke-width:1.0714;stroke-linecap:round;stroke-linejoin:round;stroke-dasharray:0,2.4524;}
	.st11{fill:none;stroke:#A6CE39;stroke-width:0.9286;stroke-linecap:round;stroke-linejoin:round;}
	.st12{fill:none;stroke:#A6CE39;stroke-width:0.9286;stroke-linecap:round;stroke-linejoin:round;stroke-dasharray:0,2.131;}
	.st13{fill:none;stroke:#A6CE39;stroke-width:0.7857;stroke-linecap:round;stroke-linejoin:round;}
	.st14{fill:none;stroke:#A6CE39;stroke-width:0.7857;stroke-linecap:round;stroke-linejoin:round;stroke-dasharray:0,2.7143;}
	.st15{fill:none;stroke:#A6CE39;stroke-width:0.6429;stroke-linecap:round;stroke-linejoin:round;}
	.st16{fill:none;stroke:#A6CE39;stroke-width:0.6429;stroke-linecap:round;stroke-linejoin:round;stroke-dasharray:0,2.2321;}
	.st17{fill:none;stroke:#A6CE39;stroke-width:0.5;stroke-linecap:round;stroke-linejoin:round;}
	.st18{fill:none;stroke:#A6CE39;stroke-width:0.5;stroke-linecap:round;stroke-linejoin:round;stroke-dasharray:0,1.75;}
	.st19{fill:none;stroke:#A6CE39;stroke-width:2.5;stroke-linecap:round;stroke-linejoin:round;}
	.st20{fill:none;stroke:#A6CE39;stroke-width:2.5;stroke-linecap:round;stroke-linejoin:round;stroke-dasharray:0,6.8661;}
	.st21{fill:none;stroke:#A6CE39;stroke-width:2.2143;stroke-linecap:round;stroke-linejoin:round;}
	.st22{fill:none;stroke:#A6CE39;stroke-width:2.2143;stroke-linecap:round;stroke-linejoin:round;stroke-dasharray:0,6.257;}
	.st23{fill:none;stroke:#A6CE39;stroke-width:1.9286;stroke-linecap:round;stroke-linejoin:round;}
	.st24{fill:none;stroke:#A6CE39;stroke-width:1.9286;stroke-linecap:round;stroke-linejoin:round;stroke-dasharray:0,5.648;}
	.st25{fill:none;stroke:#A6CE39;stroke-width:1.6429;stroke-linecap:round;stroke-linejoin:round;}
	.st26{fill:none;stroke:#A6CE39;stroke-width:1.6429;stroke-linecap:round;stroke-linejoin:round;stroke-dasharray:0,5.039;}
	.st27{fill:none;stroke:#A6CE39;stroke-width:1.3571;stroke-linecap:round;stroke-linejoin:round;stroke-dasharray:0,5.9067;}
	.st28{fill:none;stroke:#A6CE39;stroke-width:1.0714;stroke-linecap:round;stroke-linejoin:round;stroke-dasharray:0,5.0946;}
	.st29{fill:none;stroke:#A6CE39;stroke-width:0.7857;stroke-linecap:round;stroke-linejoin:round;stroke-dasharray:0,4.2826;}
	.st30{fill:none;stroke:#A6CE39;stroke-width:0.5;stroke-linecap:round;stroke-linejoin:round;stroke-dasharray:0,5.2059;}
	.st31{fill:none;stroke:#A6CE39;stroke-width:2.3217;stroke-linecap:round;stroke-linejoin:round;}
	.st32{fill:none;stroke:#A6CE39;stroke-width:2.3217;stroke-linecap:round;stroke-linejoin:round;stroke-dasharray:0,6.5164;}
	.st33{fill:none;stroke:#A6CE39;stroke-width:2.1434;stroke-linecap:round;stroke-linejoin:round;}
	.st34{fill:none;stroke:#A6CE39;stroke-width:2.1434;stroke-linecap:round;stroke-linejoin:round;stroke-dasharray:0,6.1667;}
	.st35{fill:none;stroke:#A6CE39;stroke-width:1.9651;stroke-linecap:round;stroke-linejoin:round;}
	.st36{fill:none;stroke:#A6CE39;stroke-width:1.9651;stroke-linecap:round;stroke-linejoin:round;stroke-dasharray:0,5.8171;}
	.st37{fill:none;stroke:#A6CE39;stroke-width:1.7867;stroke-linecap:round;stroke-linejoin:round;}
	.st38{fill:none;stroke:#A6CE39;stroke-width:1.7867;stroke-linecap:round;stroke-linejoin:round;stroke-dasharray:0,5.4674;}
	.st39{fill:none;stroke:#A6CE39;stroke-width:1.6084;stroke-linecap:round;stroke-linejoin:round;}
	.st40{fill:none;stroke:#A6CE39;stroke-width:1.6084;stroke-linecap:round;stroke-linejoin:round;stroke-dasharray:0,5.1177;}
	.st41{fill:none;stroke:#A6CE39;stroke-width:1.4301;stroke-linecap:round;stroke-linejoin:round;}
	.st42{fill:none;stroke:#A6CE39;stroke-width:1.4301;stroke-linecap:round;stroke-linejoin:round;stroke-dasharray:0,6.3574;}
	.st43{fill:none;stroke:#A6CE39;stroke-width:1.2518;stroke-linecap:round;stroke-linejoin:round;}
	.st44{fill:none;stroke:#A6CE39;stroke-width:1.2518;stroke-linecap:round;stroke-linejoin:round;stroke-dasharray:0,5.8912;}
	.st45{fill:none;stroke:#A6CE39;stroke-width:1.0735;stroke-linecap:round;stroke-linejoin:round;}
	.st46{fill:none;stroke:#A6CE39;stroke-width:1.0735;stroke-linecap:round;stroke-linejoin:round;stroke-dasharray:0,5.425;}
	.st47{fill:none;stroke:#A6CE39;stroke-width:0.8952;stroke-linecap:round;stroke-linejoin:round;}
	.st48{fill:none;stroke:#A6CE39;stroke-width:0.8952;stroke-linecap:round;stroke-linejoin:round;stroke-dasharray:0,4.9588;}
	.st49{fill:none;stroke:#A6CE39;stroke-width:0.7169;stroke-linecap:round;stroke-linejoin:round;}
	.st50{fill:none;stroke:#A6CE39;stroke-width:0.7169;stroke-linecap:round;stroke-linejoin:round;stroke-dasharray:0,4.4926;}
	.st51{fill:none;stroke:#A6CE39;stroke-width:0.5385;stroke-linecap:round;stroke-linejoin:round;}
	.st52{fill:none;stroke:#A6CE39;stroke-width:0.5385;stroke-linecap:round;stroke-linejoin:round;stroke-dasharray:0,4.0264;}
	.st53{fill:#A6CE39;}
	.st54{fill:none;stroke:#A6CE39;stroke-miterlimit:10;}
	.st55{fill:none;stroke:#0077C0;stroke-linejoin:round;stroke-miterlimit:10;}
	.st56{fill:none;stroke:#0077C0;stroke-width:0.5;stroke-linecap:round;stroke-linejoin:round;stroke-miterlimit:10;}
	.st57{fill:none;stroke:#0077C0;stroke-width:6;stroke-linejoin:round;stroke-miterlimit:10;stroke-dasharray:0.5,4;}
	.st58{fill:none;stroke:#0077C0;stroke-width:1.5;stroke-linecap:round;stroke-linejoin:round;}
	.st59{fill:none;stroke:#0077C0;stroke-width:1.5;stroke-linecap:round;stroke-linejoin:round;stroke-dasharray:0,3.4167;}
	.st60{fill:none;stroke:#0077C0;stroke-width:1.3571;stroke-linecap:round;stroke-linejoin:round;}
	.st61{fill:none;stroke:#0077C0;stroke-width:1.3571;stroke-linecap:round;stroke-linejoin:round;stroke-dasharray:0,3.0952;}
	.st62{fill:none;stroke:#0077C0;stroke-width:1.2143;stroke-linecap:round;stroke-linejoin:round;}
	.st63{fill:none;stroke:#0077C0;stroke-width:1.2143;stroke-linecap:round;stroke-linejoin:round;stroke-dasharray:0,2.7738;}
	.st64{fill:none;stroke:#0077C0;stroke-width:1.0714;stroke-linecap:round;stroke-linejoin:round;}
	.st65{fill:none;stroke:#0077C0;stroke-width:1.0714;stroke-linecap:round;stroke-linejoin:round;stroke-dasharray:0,2.4524;}
	.st66{fill:none;stroke:#0077C0;stroke-width:0.9286;stroke-linecap:round;stroke-linejoin:round;}
	.st67{fill:none;stroke:#0077C0;stroke-width:0.9286;stroke-linecap:round;stroke-linejoin:round;stroke-dasharray:0,2.131;}
	.st68{fill:none;stroke:#0077C0;stroke-width:0.7857;stroke-linecap:round;stroke-linejoin:round;}
	.st69{fill:none;stroke:#0077C0;stroke-width:0.7857;stroke-linecap:round;stroke-linejoin:round;stroke-dasharray:0,2.7143;}
	.st70{fill:none;stroke:#0077C0;stroke-width:0.6429;stroke-linecap:round;stroke-linejoin:round;}
	.st71{fill:none;stroke:#0077C0;stroke-width:0.6429;stroke-linecap:round;stroke-linejoin:round;stroke-dasharray:0,2.2321;}
	.st72{fill:none;stroke:#0077C0;stroke-width:0.5;stroke-linecap:round;stroke-linejoin:round;}
	.st73{fill:none;stroke:#0077C0;stroke-width:0.5;stroke-linecap:round;stroke-linejoin:round;stroke-dasharray:0,1.75;}
	.st74{fill:none;stroke:#0077C0;stroke-linecap:round;stroke-linejoin:round;stroke-miterlimit:10;}
	.st75{fill:#11110F;}
	.st76{fill:none;stroke:#EF413D;stroke-width:1.0204;stroke-linecap:round;stroke-linejoin:round;stroke-miterlimit:10;}
	.st77{fill:none;stroke:#EF413D;stroke-miterlimit:10;}
	.st78{fill:none;stroke:#EF413D;stroke-width:0.5102;stroke-miterlimit:10;}
	.st79{fill:none;stroke:#EF413D;stroke-width:0.5;stroke-miterlimit:10;}
	.st80{fill:none;stroke:#EF413D;stroke-width:0.4758;stroke-miterlimit:10;}
	.st81{fill:none;stroke:#EF413D;stroke-width:0.4119;stroke-miterlimit:10;}
	.st82{fill:none;stroke:#EF413D;stroke-width:1.5;stroke-linecap:round;stroke-linejoin:round;}
	.st83{fill:none;stroke:#EF413D;stroke-width:1.5;stroke-linecap:round;stroke-linejoin:round;stroke-dasharray:0,3.4167;}
	.st84{fill:none;stroke:#EF413D;stroke-width:1.3571;stroke-linecap:round;stroke-linejoin:round;}
	.st85{fill:none;stroke:#EF413D;stroke-width:1.3571;stroke-linecap:round;stroke-linejoin:round;stroke-dasharray:0,3.0952;}
	.st86{fill:none;stroke:#EF413D;stroke-width:1.2143;stroke-linecap:round;stroke-linejoin:round;}
	.st87{fill:none;stroke:#EF413D;stroke-width:1.2143;stroke-linecap:round;stroke-linejoin:round;stroke-dasharray:0,2.7738;}
	.st88{fill:none;stroke:#EF413D;stroke-width:1.0714;stroke-linecap:round;stroke-linejoin:round;}
	.st89{fill:none;stroke:#EF413D;stroke-width:1.0714;stroke-linecap:round;stroke-linejoin:round;stroke-dasharray:0,2.4524;}
	.st90{fill:none;stroke:#EF413D;stroke-width:0.9286;stroke-linecap:round;stroke-linejoin:round;}
	.st91{fill:none;stroke:#EF413D;stroke-width:0.9286;stroke-linecap:round;stroke-linejoin:round;stroke-dasharray:0,2.131;}
	.st92{fill:none;stroke:#EF413D;stroke-width:0.7857;stroke-linecap:round;stroke-linejoin:round;}
	.st93{fill:none;stroke:#EF413D;stroke-width:0.7857;stroke-linecap:round;stroke-linejoin:round;stroke-dasharray:0,2.7143;}
	.st94{fill:none;stroke:#EF413D;stroke-width:0.6429;stroke-linecap:round;stroke-linejoin:round;}
	.st95{fill:none;stroke:#EF413D;stroke-width:0.6429;stroke-linecap:round;stroke-linejoin:round;stroke-dasharray:0,2.2321;}
	.st96{fill:none;stroke:#EF413D;stroke-width:0.5;stroke-linecap:round;stroke-linejoin:round;}
	.st97{fill:none;stroke:#EF413D;stroke-width:0.5;stroke-linecap:round;stroke-linejoin:round;stroke-dasharray:0,1.75;}
</style>
<g>
	<g>
		<g>
			<line class="st19" x1="117.8" y1="236.1" x2="117.8" y2="236.1"/>
			<line class="st20" x1="110.9" y1="236.1" x2="93.8" y2="236.1"/>
			<line class="st19" x1="90.3" y1="236.1" x2="90.3" y2="236.1"/>
		</g>
	</g>
	<g>
		<g>
			<line class="st21" x1="116.6" y1="240.4" x2="116.6" y2="240.4"/>
			<line class="st22" x1="110.3" y1="240.4" x2="94.7" y2="240.4"/>
			<line class="st21" x1="91.6" y1="240.4" x2="91.6" y2="240.4"/>
		</g>
	</g>
	<g>
		<g>
			<line class="st23" x1="115.4" y1="244.7" x2="115.4" y2="244.7"/>
			<line class="st24" x1="109.7" y1="244.7" x2="95.6" y2="244.7"/>
			<line class="st23" x1="92.8" y1="244.7" x2="92.8" y2="244.7"/>
		</g>
	</g>
	<g>
		<g>
			<line class="st25" x1="114.1" y1="249" x2="114.1" y2="249"/>
			<line class="st26" x1="109.1" y1="249" x2="96.5" y2="249"/>
			<line class="st25" x1="94" y1="249" x2="94" y2="249"/>
		</g>
	</g>
	<g>
		<g>
			<line class="st5" x1="112.9" y1="253.2" x2="112.9" y2="253.2"/>
			<line class="st27" x1="107" y1="253.2" x2="98.2" y2="253.2"/>
			<line class="st5" x1="95.2" y1="253.2" x2="95.2" y2="253.2"/>
		</g>
	</g>
	<g>
		<g>
			<line class="st9" x1="111.7" y1="257.5" x2="111.7" y2="257.5"/>
			<line class="st28" x1="106.6" y1="257.5" x2="99" y2="257.5"/>
			<line class="st9" x1="96.4" y1="257.5" x2="96.4" y2="257.5"/>
		</g>
	</g>
	<g>
		<g>
			<line class="st13" x1="110.5" y1="261.8" x2="110.5" y2="261.8"/>
			<line class="st29" x1="106.2" y1="261.8" x2="99.8" y2="261.8"/>
			<line class="st13" x1="97.6" y1="261.8" x2="97.6" y2="261.8"/>
		</g>
	</g>
	<g>
		<g>
			<line class="st17" x1="109.3" y1="266.1" x2="109.3" y2="266.1"/>
			<line class="st30" x1="104.1" y1="266.1" x2="101.5" y2="266.1"/>
			<line class="st17" x1="98.9" y1="266.1" x2="98.9" y2="266.1"/>
		</g>
	</g>
</g>
<g>
	<g>
		<g>
			<line class="st19" x1="193.7" y1="275.3" x2="193.7" y2="275.3"/>
			<line class="st20" x1="186.9" y1="275.3" x2="169.7" y2="275.3"/>
			<line class="st19" x1="166.3" y1="275.3" x2="166.3" y2="275.3"/>
		</g>
	</g>
	<g>
		<g>
			<line class="st31" x1="193" y1="280.1" x2="193" y2="280.1"/>
			<line class="st32" x1="186.5" y1="280.1" x2="170.2" y2="280.1"/>
			<line class="st31" x1="167" y1="280.1" x2="167" y2="280.1"/>
		</g>
	</g>
	<g>
		<g>
			<line class="st33" x1="192.3" y1="284.8" x2="192.3" y2="284.8"/>
			<line class="st34" x1="186.2" y1="284.8" x2="170.7" y2="284.8"/>
			<line class="st33" x1="167.7" y1="284.8" x2="167.7" y2="284.8"/>
		</g>
	</g>
	<g>
		<g>
			<line class="st35" x1="191.6" y1="289.6" x2="191.6" y2="289.6"/>
			<line class="st36" x1="185.8" y1="289.6" x2="171.3" y2="289.6"/>
			<line class="st35" x1="168.4" y1="289.6" x2="168.4" y2="289.6"/>
		</g>
	</g>
	<g>
		<g>
			<line class="st37" x1="190.9" y1="294.4" x2="190.9" y2="294.4"/>
			<line class="st38" x1="185.5" y1="294.4" x2="171.8" y2="294.4"/>
			<line class="st37" x1="169.1" y1="294.4" x2="169.1" y2="294.4"/>
		</g>
	</g>
	<g>
		<g>
			<line class="st39" x1="190.2" y1="299.1" x2="190.2" y2="299.1"/>
			<line class="st40" x1="185.1" y1="299.1" x2="172.3" y2="299.1"/>
			<line class="st39" x1="169.8" y1="299.1" x2="169.8" y2="299.1"/>
		</g>
	</g>
	<g>
		<g>
			<line class="st41" x1="189.5" y1="303.9" x2="189.5" y2="303.9"/>
			<line class="st42" x1="183.2" y1="303.9" x2="173.6" y2="303.9"/>
			<line class="st41" x1="170.5" y1="303.9" x2="170.5" y2="303.9"/>
		</g>
	</g>
	<g>
		<g>
			<line class="st43" x1="188.8" y1="308.7" x2="188.8" y2="308.7"/>
			<line class="st44" x1="182.9" y1="308.7" x2="174.1" y2="308.7"/>
			<line class="st43" x1="171.2" y1="308.7" x2="171.2" y2="308.7"/>
		</g>
	</g>
	<g>
		<g>
			<line class="st45" x1="188.1" y1="313.5" x2="188.1" y2="313.5"/>
			<line class="st46" x1="182.7" y1="313.5" x2="174.6" y2="313.5"/>
			<line class="st45" x1="171.9" y1="313.5" x2="171.9" y2="313.5"/>
		</g>
	</g>
	<g>
		<g>
			<line class="st47" x1="187.4" y1="318.2" x2="187.4" y2="318.2"/>
			<line class="st48" x1="182.5" y1="318.2" x2="175" y2="318.2"/>
			<line class="st47" x1="172.6" y1="318.2" x2="172.6" y2="318.2"/>
		</g>
	</g>
	<g>
		<g>
			<line class="st49" x1="186.7" y1="323" x2="186.7" y2="323"/>
			<line class="st50" x1="182.2" y1="323" x2="175.5" y2="323"/>
			<line class="st49" x1="173.3" y1="323" x2="173.3" y2="323"/>
		</g>
	</g>
	<g>
		<g>
			<line class="st51" x1="186" y1="327.8" x2="186" y2="327.8"/>
			<line class="st52" x1="182" y1="327.8" x2="176" y2="327.8"/>
			<line class="st51" x1="174" y1="327.8" x2="174" y2="327.8"/>
		</g>
	</g>
</g>
<g>
	<g>
		<g>
			<line class="st19" x1="269.7" y1="236.1" x2="269.7" y2="236.1"/>
			<line class="st20" x1="262.8" y1="236.1" x2="245.6" y2="236.1"/>
			<line class="st19" x1="242.2" y1="236.1" x2="242.2" y2="236.1"/>
		</g>
	</g>
	<g>
		<g>
			<line class="st21" x1="268.4" y1="240.4" x2="268.4" y2="240.4"/>
			<line class="st22" x1="262.2" y1="240.4" x2="246.5" y2="240.4"/>
			<line class="st21" x1="243.4" y1="240.4" x2="243.4" y2="240.4"/>
		</g>
	</g>
	<g>
		<g>
			<line class="st23" x1="267.2" y1="244.7" x2="267.2" y2="244.7"/>
			<line class="st24" x1="261.6" y1="244.7" x2="247.5" y2="244.7"/>
			<line class="st23" x1="244.6" y1="244.7" x2="244.6" y2="244.7"/>
		</g>
	</g>
	<g>
		<g>
			<line class="st25" x1="266" y1="249" x2="266" y2="249"/>
			<line class="st26" x1="261" y1="249" x2="248.4" y2="249"/>
			<line class="st25" x1="245.9" y1="249" x2="245.9" y2="249"/>
		</g>
	</g>
	<g>
		<g>
			<line class="st5" x1="264.8" y1="253.2" x2="264.8" y2="253.2"/>
			<line class="st27" x1="258.9" y1="253.2" x2="250" y2="253.2"/>
			<line class="st5" x1="247.1" y1="253.2" x2="247.1" y2="253.2"/>
		</g>
	</g>
	<g>
		<g>
			<line class="st9" x1="263.6" y1="257.5" x2="263.6" y2="257.5"/>
			<line class="st28" x1="258.5" y1="257.5" x2="250.8" y2="257.5"/>
			<line class="st9" x1="248.3" y1="257.5" x2="248.3" y2="257.5"/>
		</g>
	</g>
	<g>
		<g>
			<line class="st13" x1="262.4" y1="261.8" x2="262.4" y2="261.8"/>
			<line class="st29" x1="258.1" y1="261.8" x2="251.7" y2="261.8"/>
			<line class="st13" x1="249.5" y1="261.8" x2="249.5" y2="261.8"/>
		</g>
	</g>
	<g>
		<g>
			<line class="st17" x1="261.1" y1="266.1" x2="261.1" y2="266.1"/>
			<line class="st30" x1="255.9" y1="266.1" x2="253.3" y2="266.1"/>
			<line class="st17" x1="250.7" y1="266.1" x2="250.7" y2="266.1"/>
		</g>
	</g>
</g>
<path class="st0" d="M172.6,202H135c0,0,0,36,27,63h18"/>
<polyline class="st0" points="180,49 171,49 153,85 164.9,85 "/>
<path class="st0" d="M127.5,145.7L63,175v45v0c0,5.8,2.3,11.3,6.4,15.4L72,238v-18h65.5"/>
<path class="st0" d="M48.4,229L48.4,229c-5,0-9-4-9-9v-36h18v36C57.4,225,53.3,229,48.4,229z"/>
<path class="st2" d="M39.4,220L39.4,220c5,0,9-4,9-9v-27"/>
<path class="st2" d="M57.4,205.4c-5,0-9-4-9-9"/>
<path class="st0" d="M198,103c0-18.2-7.3-27.8-12.7-32.4c-3.1-2.7-7.6-2.7-10.7,0C169.3,75.2,162,84.8,162,103"/>
<path class="st0" d="M166.5,180.7c-5.8,14.6-19.5,7.3-23.1,21.3"/>
<path class="st0" d="M171,166c0,5,4,9,9,9s9-4,9-9v-18"/>
<line class="st0" x1="171" y1="148" x2="171" y2="166"/>
<path class="st2" d="M171,166c0-9.3,9-8.3,9-14.5"/>
<path class="st0" d="M147.7,116.5c0,0-21.7,15.5-21.7,40.5h35.5"/>
<path class="st2" d="M180,68.6V78c0,0-9,2.4-9,31.7c0,0,9,5.3,9,20.3"/>
<path class="st2" d="M180,78c0,0,9,2.4,9,31.7c0,0-9,5.3-9,20.3"/>
<line class="st2" x1="171" y1="109.7" x2="163.3" y2="114.8"/>
<line class="st2" x1="189" y1="109.7" x2="196.7" y2="114.8"/>
<path class="st2" d="M189,166c0-9.3-9-8.3-9-14.5V130"/>
<g>
	<g>
		<path class="st2" d="M137.8,202c0,0,0,37.7,25.3,63"/>
		<path class="st2" d="M140.6,202c0,0,0,39.4,23.6,63"/>
		<path class="st2" d="M146.3,202c0,0,0,42.8,20.3,63"/>
	</g>
	<path class="st2" d="M157.5,202c0,0,0,49.5,13.5,63"/>
</g>
<polyline class="st0" points="72,220 72,216.5 97,214.1 97,220 "/>
<polyline class="st0" points="104.7,220 104.7,213.4 129.7,211 129.7,220 "/>
<line class="st2" x1="126.2" y1="152.9" x2="161" y2="152.9"/>
<rect x="41.4" y="176.9" class="st0" width="14" height="7.1"/>
<g>
	<g>
		<rect x="43.9" y="171.7" class="st2" width="3.3" height="5.1"/>
	</g>
	<rect x="49.6" y="169.5" class="st2" width="3.3" height="7.4"/>
</g>
<line class="st0" x1="57.4" y1="190.2" x2="63" y2="190.2"/>
<line class="st2" x1="57.4" y1="194.7" x2="63" y2="194.7"/>
<line class="st2" x1="57.4" y1="196.9" x2="63" y2="196.9"/>
<line class="st2" x1="57.4" y1="201.4" x2="63" y2="201.4"/>
<line class="st2" x1="57.4" y1="203.6" x2="63" y2="203.6"/>
<line class="st2" x1="57.4" y1="208.1" x2="63" y2="208.1"/>
<line class="st0" x1="57.4" y1="210.4" x2="63" y2="210.4"/>
<path class="st2" d="M109.8,153.7c-2.2-4.9-7.1-8.2-12.8-8.2c-7.7,0-14,6.3-14,14v6.4"/>
<g>
	<path class="st53" d="M160,172.4c-0.4,0-0.7-0.1-1.1-0.1l0.4-4c0.3,0,0.6,0.1,0.9,0.1L160,172.4z M156.8,172
		c-0.4-0.1-0.7-0.2-1.1-0.2l1-3.9c0.3,0.1,0.6,0.1,0.9,0.2L156.8,172z M153.6,171.1c-0.4-0.1-0.7-0.3-1-0.4l1.7-3.6
		c0.3,0.1,0.5,0.2,0.8,0.3L153.6,171.1z M150.6,169.5c-0.3-0.2-0.6-0.4-0.9-0.7l2.4-3.2c0.2,0.2,0.5,0.3,0.7,0.5L150.6,169.5z
		 M147.9,167.4c-0.3-0.3-0.5-0.6-0.8-0.9l3.1-2.6c0.2,0.2,0.4,0.4,0.6,0.6L147.9,167.4z M145.8,164.7c-0.2-0.3-0.4-0.7-0.6-1
		l3.5-1.8c0.1,0.2,0.3,0.5,0.4,0.8L145.8,164.7z M144.3,161.6c-0.1-0.4-0.2-0.7-0.3-1.1l3.8-1.1c0.1,0.3,0.2,0.5,0.3,0.8
		L144.3,161.6z M147.4,156.9c0,0,0,0.3,0.1,0.8l-4,0.6c-0.1-0.7-0.1-1.2-0.1-1.2"/>
</g>
<g>
	<path class="st54" d="M143.4,157.1c0,0.2,0.6,15.4,18.6,15.4h0.8"/>
	<path class="st54" d="M147.4,156.9c0,0.5,0.6,11.6,14.6,11.6"/>
</g>
<line class="st0" x1="171.7" y1="186.9" x2="176.2" y2="265"/>
<path class="st0" d="M180,265h18c27-27,27-63,27-63h-37.6"/>
<polyline class="st0" points="180,49 189,49 207,85 195.1,85 "/>
<path class="st0" d="M232.5,145.7L297,175v45v0c0,5.8-2.3,11.3-6.4,15.4L288,238v-18h-65.5"/>
<path class="st0" d="M311.6,229L311.6,229c5,0,9-4,9-9v-36h-18v36C302.6,225,306.7,229,311.6,229z"/>
<path class="st2" d="M320.6,220L320.6,220c-5,0-9-4-9-9v-27"/>
<path class="st2" d="M302.6,205.4c5,0,9-4,9-9"/>
<path class="st0" d="M162.7,94H144v1.5c0,10.2,2.5,20.1,7.3,29c6.8,12.8,10.7,27,10.7,41.5v0c0,18,18,27,18,27s18-9,18-27v0
	c0-14.5,3.9-28.7,10.7-41.5c4.7-8.8,7.3-18.8,7.3-29V94h-18.7"/>
<path class="st0" d="M193.5,180.7c5.8,14.6,19.5,7.3,23.1,21.3"/>
<path class="st0" d="M212.3,116.5c0,0,21.7,15.5,21.7,40.5h-35.5"/>
<g>
	<g>
		<path class="st2" d="M222.2,202c0,0,0,37.7-25.3,63"/>
		<path class="st2" d="M219.4,202c0,0,0,39.4-23.6,63"/>
		<path class="st2" d="M213.8,202c0,0,0,42.8-20.3,63"/>
	</g>
	<path class="st2" d="M202.5,202c0,0,0,49.5-13.5,63"/>
</g>
<polyline class="st0" points="288,220 288,216.5 263,214.1 263,220 "/>
<polyline class="st0" points="255.3,220 255.3,213.4 230.3,211 230.3,220 "/>
<line class="st2" x1="233.8" y1="152.9" x2="199" y2="152.9"/>
<rect x="304.6" y="176.9" transform="matrix(-1 -4.495527e-11 4.495527e-11 -1 623.2608 360.875)" class="st0" width="14" height="7.1"/>
<g>
	<g>
		
			<rect x="312.9" y="171.7" transform="matrix(-1 2.360353e-09 -2.360353e-09 -1 628.9971 348.6231)" class="st2" width="3.3" height="5.1"/>
	</g>
	
		<rect x="307.1" y="169.5" transform="matrix(-1 -1.927297e-09 1.927297e-09 -1 617.5245 346.3767)" class="st2" width="3.3" height="7.4"/>
</g>
<line class="st0" x1="302.6" y1="190.2" x2="297" y2="190.2"/>
<line class="st2" x1="302.6" y1="194.7" x2="297" y2="194.7"/>
<line class="st2" x1="302.6" y1="196.9" x2="297" y2="196.9"/>
<line class="st2" x1="302.6" y1="201.4" x2="297" y2="201.4"/>
<line class="st2" x1="302.6" y1="203.6" x2="297" y2="203.6"/>
<line class="st2" x1="302.6" y1="208.1" x2="297" y2="208.1"/>
<line class="st0" x1="302.6" y1="210.4" x2="297" y2="210.4"/>
<path class="st2" d="M250.2,153.7c2.2-4.9,7.1-8.2,12.8-8.2c7.7,0,14,6.3,14,14v6.4"/>
<g>
	<path class="st53" d="M199.7,168.4c0.3,0,0.6,0,0.9-0.1l0.4,4c-0.4,0-0.7,0.1-1.1,0.1L199.7,168.4z M202.4,168.1
		c0.3-0.1,0.6-0.1,0.9-0.2l1,3.9c-0.3,0.1-0.7,0.2-1.1,0.2L202.4,168.1z M204.9,167.4c0.3-0.1,0.5-0.2,0.8-0.3l1.7,3.6
		c-0.3,0.2-0.7,0.3-1,0.4L204.9,167.4z M207.3,166.2c0.2-0.2,0.5-0.3,0.7-0.5l2.4,3.2c-0.3,0.2-0.6,0.4-0.9,0.7L207.3,166.2z
		 M209.2,164.6c0.2-0.2,0.4-0.4,0.6-0.6l3.1,2.6c-0.2,0.3-0.5,0.6-0.8,0.9L209.2,164.6z M210.8,162.6c0.2-0.3,0.3-0.5,0.4-0.8
		l3.5,1.8c-0.2,0.3-0.4,0.7-0.6,1L210.8,162.6z M211.9,160.2c0.1-0.3,0.2-0.6,0.3-0.8l3.8,1.1c-0.1,0.3-0.2,0.7-0.3,1.1L211.9,160.2
		z M216.6,157.1c0,0.1,0,0.5-0.1,1.2l-4-0.6c0.1-0.4,0.1-0.7,0.1-0.8"/>
</g>
<g>
	<path class="st54" d="M216.6,157.1c0,0.2-0.6,15.4-18.6,15.4h-0.8"/>
	<path class="st54" d="M212.6,156.9c0,0.5-0.6,11.6-14.6,11.6"/>
</g>
<line class="st0" x1="188.3" y1="186.9" x2="183.8" y2="265"/>
<line class="st2" x1="159.7" y1="85" x2="159.7" y2="94"/>
<line class="st2" x1="200.3" y1="85" x2="200.3" y2="94"/>
<g>
	<polyline class="st0" points="83.2,220 83.2,226 124.9,226 124.9,220 	"/>
	<line class="st2" x1="122.7" y1="226" x2="122.7" y2="220"/>
	<line class="st2" x1="119.3" y1="226" x2="119.3" y2="220"/>
	<line class="st2" x1="114.8" y1="226" x2="114.8" y2="220"/>
	<line class="st2" x1="85.5" y1="220" x2="85.5" y2="226"/>
	<line class="st2" x1="88.8" y1="220" x2="88.8" y2="226"/>
	<line class="st2" x1="93.3" y1="220" x2="93.3" y2="226"/>
</g>
<g>
	<polyline class="st0" points="235.1,220 235.1,226 276.8,226 276.8,220 	"/>
	<line class="st2" x1="274.5" y1="226" x2="274.5" y2="220"/>
	<line class="st2" x1="271.2" y1="226" x2="271.2" y2="220"/>
	<line class="st2" x1="266.7" y1="226" x2="266.7" y2="220"/>
	<line class="st2" x1="237.3" y1="220" x2="237.3" y2="226"/>
	<line class="st2" x1="240.7" y1="220" x2="240.7" y2="226"/>
	<line class="st2" x1="245.2" y1="220" x2="245.2" y2="226"/>
</g>
<path class="st2" d="M135,157c0,0-4.5,43.1-63,59.5"/>
<path class="st2" d="M225,157c0,0,4.5,43.1,63,59.5"/>
<path class="st0" d="M171,148c0-15-9-19.6-9-45"/>
<path class="st0" d="M189,148c0-15,9-19.6,9-45"/>
<path class="st2" d="M171,49c0,0,2.3,16.8-2.7,29"/>
<path class="st2" d="M189,49c0,0-2.3,16.8,2.7,29"/>
</svg>
