<?xml version="1.0" encoding="utf-8"?>
<!-- Generator: Adobe Illustrator 23.0.1, SVG Export Plug-In . SVG Version: 6.00 Build 0)  -->
<svg version="1.1" id="Layer_1" xmlns="http://www.w3.org/2000/svg" xmlns:xlink="http://www.w3.org/1999/xlink" x="0px" y="0px"
	 viewBox="0 0 288 288" style="enable-background:new 0 0 288 288;" xml:space="preserve">
<style type="text/css">
	.st0{fill:none;stroke:#A6CE39;stroke-linecap:round;stroke-linejoin:round;stroke-miterlimit:10;}
	.st1{fill:none;stroke:#A6CE39;stroke-linejoin:round;stroke-miterlimit:10;}
	.st2{fill:none;stroke:#A6CE39;stroke-width:0.5;stroke-linecap:round;stroke-linejoin:round;stroke-miterlimit:10;}
	.st3{fill:none;stroke:#A6CE39;stroke-width:1.5;stroke-linecap:round;stroke-linejoin:round;}
	.st4{fill:none;stroke:#A6CE39;stroke-width:1.5;stroke-linecap:round;stroke-linejoin:round;stroke-dasharray:0,3.4167;}
	.st5{fill:none;stroke:#A6CE39;stroke-width:1.3571;stroke-linecap:round;stroke-linejoin:round;}
	.st6{fill:none;stroke:#A6CE39;stroke-width:1.3571;stroke-linecap:round;stroke-linejoin:round;stroke-dasharray:0,3.0952;}
	.st7{fill:none;stroke:#A6CE39;stroke-width:1.2143;stroke-linecap:round;stroke-linejoin:round;}
	.st8{fill:none;stroke:#A6CE39;stroke-width:1.2143;stroke-linecap:round;stroke-linejoin:round;stroke-dasharray:0,2.7738;}
	.st9{fill:none;stroke:#A6CE39;stroke-width:1.0714;stroke-linecap:round;stroke-linejoin:round;}
	.st10{fill:none;stroke:#A6CE39;stroke-width:1.0714;stroke-linecap:round;stroke-linejoin:round;stroke-dasharray:0,2.4524;}
	.st11{fill:none;stroke:#A6CE39;stroke-width:0.9286;stroke-linecap:round;stroke-linejoin:round;}
	.st12{fill:none;stroke:#A6CE39;stroke-width:0.9286;stroke-linecap:round;stroke-linejoin:round;stroke-dasharray:0,2.131;}
	.st13{fill:none;stroke:#A6CE39;stroke-width:0.7857;stroke-linecap:round;stroke-linejoin:round;}
	.st14{fill:none;stroke:#A6CE39;stroke-width:0.7857;stroke-linecap:round;stroke-linejoin:round;stroke-dasharray:0,2.7143;}
	.st15{fill:none;stroke:#A6CE39;stroke-width:0.6429;stroke-linecap:round;stroke-linejoin:round;}
	.st16{fill:none;stroke:#A6CE39;stroke-width:0.6429;stroke-linecap:round;stroke-linejoin:round;stroke-dasharray:0,2.2321;}
	.st17{fill:none;stroke:#A6CE39;stroke-width:0.5;stroke-linecap:round;stroke-linejoin:round;}
	.st18{fill:none;stroke:#A6CE39;stroke-width:0.5;stroke-linecap:round;stroke-linejoin:round;stroke-dasharray:0,1.75;}
	.st19{fill:none;stroke:#A6CE39;stroke-width:2.5;stroke-linecap:round;stroke-linejoin:round;}
	.st20{fill:none;stroke:#A6CE39;stroke-width:2.5;stroke-linecap:round;stroke-linejoin:round;stroke-dasharray:0,6.8661;}
	.st21{fill:none;stroke:#A6CE39;stroke-width:2.2143;stroke-linecap:round;stroke-linejoin:round;}
	.st22{fill:none;stroke:#A6CE39;stroke-width:2.2143;stroke-linecap:round;stroke-linejoin:round;stroke-dasharray:0,6.257;}
	.st23{fill:none;stroke:#A6CE39;stroke-width:1.9286;stroke-linecap:round;stroke-linejoin:round;}
	.st24{fill:none;stroke:#A6CE39;stroke-width:1.9286;stroke-linecap:round;stroke-linejoin:round;stroke-dasharray:0,5.648;}
	.st25{fill:none;stroke:#A6CE39;stroke-width:1.6429;stroke-linecap:round;stroke-linejoin:round;}
	.st26{fill:none;stroke:#A6CE39;stroke-width:1.6429;stroke-linecap:round;stroke-linejoin:round;stroke-dasharray:0,5.039;}
	.st27{fill:none;stroke:#A6CE39;stroke-width:1.3571;stroke-linecap:round;stroke-linejoin:round;stroke-dasharray:0,5.9067;}
	.st28{fill:none;stroke:#A6CE39;stroke-width:1.0714;stroke-linecap:round;stroke-linejoin:round;stroke-dasharray:0,5.0946;}
	.st29{fill:none;stroke:#A6CE39;stroke-width:0.7857;stroke-linecap:round;stroke-linejoin:round;stroke-dasharray:0,4.2826;}
	.st30{fill:none;stroke:#A6CE39;stroke-width:0.5;stroke-linecap:round;stroke-linejoin:round;stroke-dasharray:0,5.2059;}
	.st31{fill:none;stroke:#A6CE39;stroke-width:2.3217;stroke-linecap:round;stroke-linejoin:round;}
	.st32{fill:none;stroke:#A6CE39;stroke-width:2.3217;stroke-linecap:round;stroke-linejoin:round;stroke-dasharray:0,6.5164;}
	.st33{fill:none;stroke:#A6CE39;stroke-width:2.1434;stroke-linecap:round;stroke-linejoin:round;}
	.st34{fill:none;stroke:#A6CE39;stroke-width:2.1434;stroke-linecap:round;stroke-linejoin:round;stroke-dasharray:0,6.1667;}
	.st35{fill:none;stroke:#A6CE39;stroke-width:1.9651;stroke-linecap:round;stroke-linejoin:round;}
	.st36{fill:none;stroke:#A6CE39;stroke-width:1.9651;stroke-linecap:round;stroke-linejoin:round;stroke-dasharray:0,5.8171;}
	.st37{fill:none;stroke:#A6CE39;stroke-width:1.7867;stroke-linecap:round;stroke-linejoin:round;}
	.st38{fill:none;stroke:#A6CE39;stroke-width:1.7867;stroke-linecap:round;stroke-linejoin:round;stroke-dasharray:0,5.4674;}
	.st39{fill:none;stroke:#A6CE39;stroke-width:1.6084;stroke-linecap:round;stroke-linejoin:round;}
	.st40{fill:none;stroke:#A6CE39;stroke-width:1.6084;stroke-linecap:round;stroke-linejoin:round;stroke-dasharray:0,5.1177;}
	.st41{fill:none;stroke:#A6CE39;stroke-width:1.4301;stroke-linecap:round;stroke-linejoin:round;}
	.st42{fill:none;stroke:#A6CE39;stroke-width:1.4301;stroke-linecap:round;stroke-linejoin:round;stroke-dasharray:0,6.3574;}
	.st43{fill:none;stroke:#A6CE39;stroke-width:1.2518;stroke-linecap:round;stroke-linejoin:round;}
	.st44{fill:none;stroke:#A6CE39;stroke-width:1.2518;stroke-linecap:round;stroke-linejoin:round;stroke-dasharray:0,5.8912;}
	.st45{fill:none;stroke:#A6CE39;stroke-width:1.0735;stroke-linecap:round;stroke-linejoin:round;}
	.st46{fill:none;stroke:#A6CE39;stroke-width:1.0735;stroke-linecap:round;stroke-linejoin:round;stroke-dasharray:0,5.425;}
	.st47{fill:none;stroke:#A6CE39;stroke-width:0.8952;stroke-linecap:round;stroke-linejoin:round;}
	.st48{fill:none;stroke:#A6CE39;stroke-width:0.8952;stroke-linecap:round;stroke-linejoin:round;stroke-dasharray:0,4.9588;}
	.st49{fill:none;stroke:#A6CE39;stroke-width:0.7169;stroke-linecap:round;stroke-linejoin:round;}
	.st50{fill:none;stroke:#A6CE39;stroke-width:0.7169;stroke-linecap:round;stroke-linejoin:round;stroke-dasharray:0,4.4926;}
	.st51{fill:none;stroke:#A6CE39;stroke-width:0.5385;stroke-linecap:round;stroke-linejoin:round;}
	.st52{fill:none;stroke:#A6CE39;stroke-width:0.5385;stroke-linecap:round;stroke-linejoin:round;stroke-dasharray:0,4.0264;}
	.st53{fill:#A6CE39;}
	.st54{fill:none;stroke:#A6CE39;stroke-miterlimit:10;}
	.st55{fill:none;stroke:#0077C0;stroke-linejoin:round;stroke-miterlimit:10;}
	.st56{fill:none;stroke:#0077C0;stroke-width:0.5;stroke-linecap:round;stroke-linejoin:round;stroke-miterlimit:10;}
	.st57{fill:none;stroke:#0077C0;stroke-width:6;stroke-linejoin:round;stroke-miterlimit:10;stroke-dasharray:0.5,4;}
	.st58{fill:none;stroke:#0077C0;stroke-width:1.5;stroke-linecap:round;stroke-linejoin:round;}
	.st59{fill:none;stroke:#0077C0;stroke-width:1.5;stroke-linecap:round;stroke-linejoin:round;stroke-dasharray:0,3.4167;}
	.st60{fill:none;stroke:#0077C0;stroke-width:1.3571;stroke-linecap:round;stroke-linejoin:round;}
	.st61{fill:none;stroke:#0077C0;stroke-width:1.3571;stroke-linecap:round;stroke-linejoin:round;stroke-dasharray:0,3.0952;}
	.st62{fill:none;stroke:#0077C0;stroke-width:1.2143;stroke-linecap:round;stroke-linejoin:round;}
	.st63{fill:none;stroke:#0077C0;stroke-width:1.2143;stroke-linecap:round;stroke-linejoin:round;stroke-dasharray:0,2.7738;}
	.st64{fill:none;stroke:#0077C0;stroke-width:1.0714;stroke-linecap:round;stroke-linejoin:round;}
	.st65{fill:none;stroke:#0077C0;stroke-width:1.0714;stroke-linecap:round;stroke-linejoin:round;stroke-dasharray:0,2.4524;}
	.st66{fill:none;stroke:#0077C0;stroke-width:0.9286;stroke-linecap:round;stroke-linejoin:round;}
	.st67{fill:none;stroke:#0077C0;stroke-width:0.9286;stroke-linecap:round;stroke-linejoin:round;stroke-dasharray:0,2.131;}
	.st68{fill:none;stroke:#0077C0;stroke-width:0.7857;stroke-linecap:round;stroke-linejoin:round;}
	.st69{fill:none;stroke:#0077C0;stroke-width:0.7857;stroke-linecap:round;stroke-linejoin:round;stroke-dasharray:0,2.7143;}
	.st70{fill:none;stroke:#0077C0;stroke-width:0.6429;stroke-linecap:round;stroke-linejoin:round;}
	.st71{fill:none;stroke:#0077C0;stroke-width:0.6429;stroke-linecap:round;stroke-linejoin:round;stroke-dasharray:0,2.2321;}
	.st72{fill:none;stroke:#0077C0;stroke-width:0.5;stroke-linecap:round;stroke-linejoin:round;}
	.st73{fill:none;stroke:#0077C0;stroke-width:0.5;stroke-linecap:round;stroke-linejoin:round;stroke-dasharray:0,1.75;}
	.st74{fill:none;stroke:#0077C0;stroke-linecap:round;stroke-linejoin:round;stroke-miterlimit:10;}
	.st75{fill:#11110F;}
	.st76{fill:none;stroke:#EF413D;stroke-width:1.0204;stroke-linecap:round;stroke-linejoin:round;stroke-miterlimit:10;}
	.st77{fill:none;stroke:#EF413D;stroke-miterlimit:10;}
	.st78{fill:none;stroke:#EF413D;stroke-width:0.5102;stroke-miterlimit:10;}
	.st79{fill:none;stroke:#EF413D;stroke-width:0.5;stroke-miterlimit:10;}
	.st80{fill:none;stroke:#EF413D;stroke-width:0.4758;stroke-miterlimit:10;}
	.st81{fill:none;stroke:#EF413D;stroke-width:0.4119;stroke-miterlimit:10;}
	.st82{fill:none;stroke:#EF413D;stroke-width:1.5;stroke-linecap:round;stroke-linejoin:round;}
	.st83{fill:none;stroke:#EF413D;stroke-width:1.5;stroke-linecap:round;stroke-linejoin:round;stroke-dasharray:0,3.4167;}
	.st84{fill:none;stroke:#EF413D;stroke-width:1.3571;stroke-linecap:round;stroke-linejoin:round;}
	.st85{fill:none;stroke:#EF413D;stroke-width:1.3571;stroke-linecap:round;stroke-linejoin:round;stroke-dasharray:0,3.0952;}
	.st86{fill:none;stroke:#EF413D;stroke-width:1.2143;stroke-linecap:round;stroke-linejoin:round;}
	.st87{fill:none;stroke:#EF413D;stroke-width:1.2143;stroke-linecap:round;stroke-linejoin:round;stroke-dasharray:0,2.7738;}
	.st88{fill:none;stroke:#EF413D;stroke-width:1.0714;stroke-linecap:round;stroke-linejoin:round;}
	.st89{fill:none;stroke:#EF413D;stroke-width:1.0714;stroke-linecap:round;stroke-linejoin:round;stroke-dasharray:0,2.4524;}
	.st90{fill:none;stroke:#EF413D;stroke-width:0.9286;stroke-linecap:round;stroke-linejoin:round;}
	.st91{fill:none;stroke:#EF413D;stroke-width:0.9286;stroke-linecap:round;stroke-linejoin:round;stroke-dasharray:0,2.131;}
	.st92{fill:none;stroke:#EF413D;stroke-width:0.7857;stroke-linecap:round;stroke-linejoin:round;}
	.st93{fill:none;stroke:#EF413D;stroke-width:0.7857;stroke-linecap:round;stroke-linejoin:round;stroke-dasharray:0,2.7143;}
	.st94{fill:none;stroke:#EF413D;stroke-width:0.6429;stroke-linecap:round;stroke-linejoin:round;}
	.st95{fill:none;stroke:#EF413D;stroke-width:0.6429;stroke-linecap:round;stroke-linejoin:round;stroke-dasharray:0,2.2321;}
	.st96{fill:none;stroke:#EF413D;stroke-width:0.5;stroke-linecap:round;stroke-linejoin:round;}
	.st97{fill:none;stroke:#EF413D;stroke-width:0.5;stroke-linecap:round;stroke-linejoin:round;stroke-dasharray:0,1.75;}
</style>
<path class="st0" d="M144,69h-9l-14.1,75.4c-2.6,11.7-3.9,23.6-3.9,35.6v0l18,36h9"/>
<path class="st0" d="M144,69h9l14.1,75.4c2.6,11.7,3.9,23.6,3.9,35.6v0l-18,36h-9"/>
<path class="st0" d="M126,162c0-37.1,9-63,9-63h18c0,0,9,25.9,9,63l0,0C152.1,171.9,135.9,171.9,126,162L126,162z"/>
<path class="st2" d="M135,216c0,0-4.4-14.1,0-29.6s5.5-17.1,5.5-17.1"/>
<path class="st2" d="M153,216c0,0,4.4-14.1,0-29.6c-4.4-15.6-5.5-17.1-5.5-17.1"/>
<path class="st2" d="M135,99l2.8,24.2c0,0-2.8,7.1-2.8,27.9l-9,10.9"/>
<path class="st2" d="M153,99l-2.8,24.2c0,0,2.8,7.1,2.8,27.9l9,10.9"/>
<line class="st2" x1="150.2" y1="123.2" x2="137.8" y2="123.2"/>
<line class="st2" x1="153" y1="151.1" x2="135" y2="151.1"/>
<path class="st0" d="M117.2,171H108v-63c0,0-28.4,13.5-36,72h45"/>
<path class="st0" d="M81,180v9l0,0c5,5,13,5,18,0l0,0v-9"/>
<line class="st2" x1="103.7" y1="180" x2="103.7" y2="110.8"/>
<line class="st2" x1="81" y1="189" x2="99" y2="189"/>
<path class="st0" d="M90,126.1v-8.9c0-1.2-1-2.3-2.3-2.3l0,0c-1.2,0-2.3,1-2.3,2.3v16.6"/>
<path class="st0" d="M170.8,171h9.2v-63c0,0,28.4,13.5,36,72h-45"/>
<path class="st0" d="M207,180v9v0c-5,5-13,5-18,0l0,0v-9"/>
<line class="st2" x1="184.3" y1="180" x2="184.3" y2="110.8"/>
<line class="st2" x1="207" y1="189" x2="189" y2="189"/>
<path class="st0" d="M198,126.1v-8.9c0-1.2,1-2.3,2.3-2.3l0,0c1.2,0,2.3,1,2.3,2.3v16.6"/>
<g>
	<g>
		<g>
			<line class="st3" x1="203.1" y1="199.5" x2="203.1" y2="199.5"/>
			<line class="st4" x1="199.7" y1="199.5" x2="194.6" y2="199.5"/>
			<line class="st3" x1="192.9" y1="199.5" x2="192.9" y2="199.5"/>
		</g>
	</g>
	<g>
		<g>
			<line class="st5" x1="202.6" y1="201.7" x2="202.6" y2="201.7"/>
			<line class="st6" x1="199.5" y1="201.7" x2="194.9" y2="201.7"/>
			<line class="st5" x1="193.4" y1="201.7" x2="193.4" y2="201.7"/>
		</g>
	</g>
	<g>
		<g>
			<line class="st7" x1="202.2" y1="204" x2="202.2" y2="204"/>
			<line class="st8" x1="199.4" y1="204" x2="195.2" y2="204"/>
			<line class="st7" x1="193.8" y1="204" x2="193.8" y2="204"/>
		</g>
	</g>
	<g>
		<g>
			<line class="st9" x1="201.7" y1="206.2" x2="201.7" y2="206.2"/>
			<line class="st10" x1="199.2" y1="206.2" x2="195.5" y2="206.2"/>
			<line class="st9" x1="194.3" y1="206.2" x2="194.3" y2="206.2"/>
		</g>
	</g>
	<g>
		<g>
			<line class="st11" x1="201.2" y1="208.5" x2="201.2" y2="208.5"/>
			<line class="st12" x1="199.1" y1="208.5" x2="195.9" y2="208.5"/>
			<line class="st11" x1="194.8" y1="208.5" x2="194.8" y2="208.5"/>
		</g>
	</g>
	<g>
		<g>
			<line class="st13" x1="200.7" y1="210.7" x2="200.7" y2="210.7"/>
			<line class="st14" x1="198" y1="210.7" x2="196.6" y2="210.7"/>
			<line class="st13" x1="195.3" y1="210.7" x2="195.3" y2="210.7"/>
		</g>
	</g>
	<g>
		<g>
			<line class="st15" x1="200.2" y1="213" x2="200.2" y2="213"/>
			<line class="st16" x1="198" y1="213" x2="196.9" y2="213"/>
			<line class="st15" x1="195.8" y1="213" x2="195.8" y2="213"/>
		</g>
	</g>
	<g>
		<g>
			<line class="st17" x1="199.7" y1="215.2" x2="199.7" y2="215.2"/>
			<line class="st18" x1="198" y1="215.2" x2="197.1" y2="215.2"/>
			<line class="st17" x1="196.2" y1="215.2" x2="196.2" y2="215.2"/>
		</g>
	</g>
</g>
<g>
	<g>
		<g>
			<line class="st3" x1="95.1" y1="199.5" x2="95.1" y2="199.5"/>
			<line class="st4" x1="91.7" y1="199.5" x2="86.6" y2="199.5"/>
			<line class="st3" x1="84.9" y1="199.5" x2="84.9" y2="199.5"/>
		</g>
	</g>
	<g>
		<g>
			<line class="st5" x1="94.6" y1="201.7" x2="94.6" y2="201.7"/>
			<line class="st6" x1="91.5" y1="201.7" x2="86.9" y2="201.7"/>
			<line class="st5" x1="85.4" y1="201.7" x2="85.4" y2="201.7"/>
		</g>
	</g>
	<g>
		<g>
			<line class="st7" x1="94.2" y1="204" x2="94.2" y2="204"/>
			<line class="st8" x1="91.4" y1="204" x2="87.2" y2="204"/>
			<line class="st7" x1="85.8" y1="204" x2="85.8" y2="204"/>
		</g>
	</g>
	<g>
		<g>
			<line class="st9" x1="93.7" y1="206.2" x2="93.7" y2="206.2"/>
			<line class="st10" x1="91.2" y1="206.2" x2="87.5" y2="206.2"/>
			<line class="st9" x1="86.3" y1="206.2" x2="86.3" y2="206.2"/>
		</g>
	</g>
	<g>
		<g>
			<line class="st11" x1="93.2" y1="208.5" x2="93.2" y2="208.5"/>
			<line class="st12" x1="91.1" y1="208.5" x2="87.9" y2="208.5"/>
			<line class="st11" x1="86.8" y1="208.5" x2="86.8" y2="208.5"/>
		</g>
	</g>
	<g>
		<g>
			<line class="st13" x1="92.7" y1="210.7" x2="92.7" y2="210.7"/>
			<line class="st14" x1="90" y1="210.7" x2="88.6" y2="210.7"/>
			<line class="st13" x1="87.3" y1="210.7" x2="87.3" y2="210.7"/>
		</g>
	</g>
	<g>
		<g>
			<line class="st15" x1="92.2" y1="213" x2="92.2" y2="213"/>
			<line class="st16" x1="90" y1="213" x2="88.9" y2="213"/>
			<line class="st15" x1="87.8" y1="213" x2="87.8" y2="213"/>
		</g>
	</g>
	<g>
		<g>
			<line class="st17" x1="91.7" y1="215.2" x2="91.7" y2="215.2"/>
			<line class="st18" x1="90" y1="215.2" x2="89.1" y2="215.2"/>
			<line class="st17" x1="88.2" y1="215.2" x2="88.2" y2="215.2"/>
		</g>
	</g>
</g>
</svg>
