<?xml version="1.0" encoding="utf-8"?>
<!-- Generator: Adobe Illustrator 23.0.1, SVG Export Plug-In . SVG Version: 6.00 Build 0)  -->
<svg version="1.1" id="Layer_1" xmlns="http://www.w3.org/2000/svg" xmlns:xlink="http://www.w3.org/1999/xlink" x="0px" y="0px"
	 viewBox="0 0 120 64" style="enable-background:new 0 0 120 64;" xml:space="preserve">
<style type="text/css">
	.st0{fill:#FFFFFF;}
	.st1{fill:#00FF00;}
</style>
<rect class="st0" width="120" height="64"/>
<g>
	<path class="st1" d="M22.5,23.2h2.3v15.6h7.5v1.9h-9.8V23.2z"/>
	<path class="st1" d="M53.4,31.8c0,6-3.7,9.2-8.1,9.2c-4.6,0-7.9-3.6-7.9-8.9c0-5.6,3.5-9.2,8.1-9.2C50.3,23,53.4,26.6,53.4,31.8z
		 M39.8,32.1c0,3.7,2,7.1,5.6,7.1s5.6-3.3,5.6-7.3c0-3.5-1.8-7.1-5.6-7.1C41.7,24.8,39.8,28.3,39.8,32.1z"/>
	<path class="st1" d="M74.4,40c-1,0.4-3,1-5.4,1c-2.7,0-4.8-0.7-6.6-2.3c-1.5-1.5-2.4-3.8-2.4-6.5c0-5.2,3.6-9,9.5-9
		c2,0,3.6,0.4,4.4,0.8l-0.5,1.8c-0.9-0.4-2.1-0.8-3.9-0.8c-4.3,0-7,2.7-7,7c0,4.4,2.7,7.1,6.8,7.1c1.5,0,2.5-0.2,3-0.5v-5.2h-3.6
		v-1.8h5.8V40H74.4z"/>
	<path class="st1" d="M97.5,31.8c0,6-3.7,9.2-8.1,9.2c-4.6,0-7.9-3.6-7.9-8.9c0-5.6,3.5-9.2,8.1-9.2C94.4,23,97.5,26.6,97.5,31.8z
		 M83.9,32.1c0,3.7,2,7.1,5.6,7.1s5.6-3.3,5.6-7.3c0-3.5-1.8-7.1-5.6-7.1C85.8,24.8,83.9,28.3,83.9,32.1z"/>
</g>
</svg>
