<?xml version="1.0" encoding="utf-8"?>
<!-- Generator: Adobe Illustrator 23.0.1, SVG Export Plug-In . SVG Version: 6.00 Build 0)  -->
<svg version="1.1" id="Layer_1" xmlns="http://www.w3.org/2000/svg" xmlns:xlink="http://www.w3.org/1999/xlink" x="0px" y="0px"
	 viewBox="0 0 288 288" style="enable-background:new 0 0 288 288;" xml:space="preserve">
<style type="text/css">
	.st0{fill:none;stroke:#A6CE39;stroke-linecap:round;stroke-linejoin:round;stroke-miterlimit:10;}
	.st1{fill:none;stroke:#A6CE39;stroke-linejoin:round;stroke-miterlimit:10;}
	.st2{fill:none;stroke:#A6CE39;stroke-width:0.5;stroke-linecap:round;stroke-linejoin:round;stroke-miterlimit:10;}
	.st3{fill:none;stroke:#A6CE39;stroke-width:1.5;stroke-linecap:round;stroke-linejoin:round;}
	.st4{fill:none;stroke:#A6CE39;stroke-width:1.5;stroke-linecap:round;stroke-linejoin:round;stroke-dasharray:0,3.4167;}
	.st5{fill:none;stroke:#A6CE39;stroke-width:1.3571;stroke-linecap:round;stroke-linejoin:round;}
	.st6{fill:none;stroke:#A6CE39;stroke-width:1.3571;stroke-linecap:round;stroke-linejoin:round;stroke-dasharray:0,3.0952;}
	.st7{fill:none;stroke:#A6CE39;stroke-width:1.2143;stroke-linecap:round;stroke-linejoin:round;}
	.st8{fill:none;stroke:#A6CE39;stroke-width:1.2143;stroke-linecap:round;stroke-linejoin:round;stroke-dasharray:0,2.7738;}
	.st9{fill:none;stroke:#A6CE39;stroke-width:1.0714;stroke-linecap:round;stroke-linejoin:round;}
	.st10{fill:none;stroke:#A6CE39;stroke-width:1.0714;stroke-linecap:round;stroke-linejoin:round;stroke-dasharray:0,2.4524;}
	.st11{fill:none;stroke:#A6CE39;stroke-width:0.9286;stroke-linecap:round;stroke-linejoin:round;}
	.st12{fill:none;stroke:#A6CE39;stroke-width:0.9286;stroke-linecap:round;stroke-linejoin:round;stroke-dasharray:0,2.131;}
	.st13{fill:none;stroke:#A6CE39;stroke-width:0.7857;stroke-linecap:round;stroke-linejoin:round;}
	.st14{fill:none;stroke:#A6CE39;stroke-width:0.7857;stroke-linecap:round;stroke-linejoin:round;stroke-dasharray:0,2.7143;}
	.st15{fill:none;stroke:#A6CE39;stroke-width:0.6429;stroke-linecap:round;stroke-linejoin:round;}
	.st16{fill:none;stroke:#A6CE39;stroke-width:0.6429;stroke-linecap:round;stroke-linejoin:round;stroke-dasharray:0,2.2321;}
	.st17{fill:none;stroke:#A6CE39;stroke-width:0.5;stroke-linecap:round;stroke-linejoin:round;}
	.st18{fill:none;stroke:#A6CE39;stroke-width:0.5;stroke-linecap:round;stroke-linejoin:round;stroke-dasharray:0,1.75;}
	.st19{fill:none;stroke:#A6CE39;stroke-width:2.5;stroke-linecap:round;stroke-linejoin:round;}
	.st20{fill:none;stroke:#A6CE39;stroke-width:2.5;stroke-linecap:round;stroke-linejoin:round;stroke-dasharray:0,6.8661;}
	.st21{fill:none;stroke:#A6CE39;stroke-width:2.2143;stroke-linecap:round;stroke-linejoin:round;}
	.st22{fill:none;stroke:#A6CE39;stroke-width:2.2143;stroke-linecap:round;stroke-linejoin:round;stroke-dasharray:0,6.257;}
	.st23{fill:none;stroke:#A6CE39;stroke-width:1.9286;stroke-linecap:round;stroke-linejoin:round;}
	.st24{fill:none;stroke:#A6CE39;stroke-width:1.9286;stroke-linecap:round;stroke-linejoin:round;stroke-dasharray:0,5.648;}
	.st25{fill:none;stroke:#A6CE39;stroke-width:1.6429;stroke-linecap:round;stroke-linejoin:round;}
	.st26{fill:none;stroke:#A6CE39;stroke-width:1.6429;stroke-linecap:round;stroke-linejoin:round;stroke-dasharray:0,5.039;}
	.st27{fill:none;stroke:#A6CE39;stroke-width:1.3571;stroke-linecap:round;stroke-linejoin:round;stroke-dasharray:0,5.9067;}
	.st28{fill:none;stroke:#A6CE39;stroke-width:1.0714;stroke-linecap:round;stroke-linejoin:round;stroke-dasharray:0,5.0946;}
	.st29{fill:none;stroke:#A6CE39;stroke-width:0.7857;stroke-linecap:round;stroke-linejoin:round;stroke-dasharray:0,4.2826;}
	.st30{fill:none;stroke:#A6CE39;stroke-width:0.5;stroke-linecap:round;stroke-linejoin:round;stroke-dasharray:0,5.2059;}
	.st31{fill:none;stroke:#A6CE39;stroke-width:2.3217;stroke-linecap:round;stroke-linejoin:round;}
	.st32{fill:none;stroke:#A6CE39;stroke-width:2.3217;stroke-linecap:round;stroke-linejoin:round;stroke-dasharray:0,6.5164;}
	.st33{fill:none;stroke:#A6CE39;stroke-width:2.1434;stroke-linecap:round;stroke-linejoin:round;}
	.st34{fill:none;stroke:#A6CE39;stroke-width:2.1434;stroke-linecap:round;stroke-linejoin:round;stroke-dasharray:0,6.1667;}
	.st35{fill:none;stroke:#A6CE39;stroke-width:1.9651;stroke-linecap:round;stroke-linejoin:round;}
	.st36{fill:none;stroke:#A6CE39;stroke-width:1.9651;stroke-linecap:round;stroke-linejoin:round;stroke-dasharray:0,5.8171;}
	.st37{fill:none;stroke:#A6CE39;stroke-width:1.7867;stroke-linecap:round;stroke-linejoin:round;}
	.st38{fill:none;stroke:#A6CE39;stroke-width:1.7867;stroke-linecap:round;stroke-linejoin:round;stroke-dasharray:0,5.4674;}
	.st39{fill:none;stroke:#A6CE39;stroke-width:1.6084;stroke-linecap:round;stroke-linejoin:round;}
	.st40{fill:none;stroke:#A6CE39;stroke-width:1.6084;stroke-linecap:round;stroke-linejoin:round;stroke-dasharray:0,5.1177;}
	.st41{fill:none;stroke:#A6CE39;stroke-width:1.4301;stroke-linecap:round;stroke-linejoin:round;}
	.st42{fill:none;stroke:#A6CE39;stroke-width:1.4301;stroke-linecap:round;stroke-linejoin:round;stroke-dasharray:0,6.3574;}
	.st43{fill:none;stroke:#A6CE39;stroke-width:1.2518;stroke-linecap:round;stroke-linejoin:round;}
	.st44{fill:none;stroke:#A6CE39;stroke-width:1.2518;stroke-linecap:round;stroke-linejoin:round;stroke-dasharray:0,5.8912;}
	.st45{fill:none;stroke:#A6CE39;stroke-width:1.0735;stroke-linecap:round;stroke-linejoin:round;}
	.st46{fill:none;stroke:#A6CE39;stroke-width:1.0735;stroke-linecap:round;stroke-linejoin:round;stroke-dasharray:0,5.425;}
	.st47{fill:none;stroke:#A6CE39;stroke-width:0.8952;stroke-linecap:round;stroke-linejoin:round;}
	.st48{fill:none;stroke:#A6CE39;stroke-width:0.8952;stroke-linecap:round;stroke-linejoin:round;stroke-dasharray:0,4.9588;}
	.st49{fill:none;stroke:#A6CE39;stroke-width:0.7169;stroke-linecap:round;stroke-linejoin:round;}
	.st50{fill:none;stroke:#A6CE39;stroke-width:0.7169;stroke-linecap:round;stroke-linejoin:round;stroke-dasharray:0,4.4926;}
	.st51{fill:none;stroke:#A6CE39;stroke-width:0.5385;stroke-linecap:round;stroke-linejoin:round;}
	.st52{fill:none;stroke:#A6CE39;stroke-width:0.5385;stroke-linecap:round;stroke-linejoin:round;stroke-dasharray:0,4.0264;}
	.st53{fill:#A6CE39;}
	.st54{fill:none;stroke:#A6CE39;stroke-miterlimit:10;}
	.st55{fill:none;stroke:#0077C0;stroke-linejoin:round;stroke-miterlimit:10;}
	.st56{fill:none;stroke:#0077C0;stroke-width:0.5;stroke-linecap:round;stroke-linejoin:round;stroke-miterlimit:10;}
	.st57{fill:none;stroke:#0077C0;stroke-width:6;stroke-linejoin:round;stroke-miterlimit:10;stroke-dasharray:0.5,4;}
	.st58{fill:none;stroke:#0077C0;stroke-width:1.5;stroke-linecap:round;stroke-linejoin:round;}
	.st59{fill:none;stroke:#0077C0;stroke-width:1.5;stroke-linecap:round;stroke-linejoin:round;stroke-dasharray:0,3.4167;}
	.st60{fill:none;stroke:#0077C0;stroke-width:1.3571;stroke-linecap:round;stroke-linejoin:round;}
	.st61{fill:none;stroke:#0077C0;stroke-width:1.3571;stroke-linecap:round;stroke-linejoin:round;stroke-dasharray:0,3.0952;}
	.st62{fill:none;stroke:#0077C0;stroke-width:1.2143;stroke-linecap:round;stroke-linejoin:round;}
	.st63{fill:none;stroke:#0077C0;stroke-width:1.2143;stroke-linecap:round;stroke-linejoin:round;stroke-dasharray:0,2.7738;}
	.st64{fill:none;stroke:#0077C0;stroke-width:1.0714;stroke-linecap:round;stroke-linejoin:round;}
	.st65{fill:none;stroke:#0077C0;stroke-width:1.0714;stroke-linecap:round;stroke-linejoin:round;stroke-dasharray:0,2.4524;}
	.st66{fill:none;stroke:#0077C0;stroke-width:0.9286;stroke-linecap:round;stroke-linejoin:round;}
	.st67{fill:none;stroke:#0077C0;stroke-width:0.9286;stroke-linecap:round;stroke-linejoin:round;stroke-dasharray:0,2.131;}
	.st68{fill:none;stroke:#0077C0;stroke-width:0.7857;stroke-linecap:round;stroke-linejoin:round;}
	.st69{fill:none;stroke:#0077C0;stroke-width:0.7857;stroke-linecap:round;stroke-linejoin:round;stroke-dasharray:0,2.7143;}
	.st70{fill:none;stroke:#0077C0;stroke-width:0.6429;stroke-linecap:round;stroke-linejoin:round;}
	.st71{fill:none;stroke:#0077C0;stroke-width:0.6429;stroke-linecap:round;stroke-linejoin:round;stroke-dasharray:0,2.2321;}
	.st72{fill:none;stroke:#0077C0;stroke-width:0.5;stroke-linecap:round;stroke-linejoin:round;}
	.st73{fill:none;stroke:#0077C0;stroke-width:0.5;stroke-linecap:round;stroke-linejoin:round;stroke-dasharray:0,1.75;}
	.st74{fill:none;stroke:#0077C0;stroke-linecap:round;stroke-linejoin:round;stroke-miterlimit:10;}
	.st75{fill:#11110F;}
	.st76{fill:none;stroke:#EF413D;stroke-width:1.0204;stroke-linecap:round;stroke-linejoin:round;stroke-miterlimit:10;}
	.st77{fill:none;stroke:#EF413D;stroke-miterlimit:10;}
	.st78{fill:none;stroke:#EF413D;stroke-width:0.5102;stroke-miterlimit:10;}
	.st79{fill:none;stroke:#EF413D;stroke-width:0.5;stroke-miterlimit:10;}
	.st80{fill:none;stroke:#EF413D;stroke-width:0.4758;stroke-miterlimit:10;}
	.st81{fill:none;stroke:#EF413D;stroke-width:0.4119;stroke-miterlimit:10;}
	.st82{fill:none;stroke:#EF413D;stroke-width:1.5;stroke-linecap:round;stroke-linejoin:round;}
	.st83{fill:none;stroke:#EF413D;stroke-width:1.5;stroke-linecap:round;stroke-linejoin:round;stroke-dasharray:0,3.4167;}
	.st84{fill:none;stroke:#EF413D;stroke-width:1.3571;stroke-linecap:round;stroke-linejoin:round;}
	.st85{fill:none;stroke:#EF413D;stroke-width:1.3571;stroke-linecap:round;stroke-linejoin:round;stroke-dasharray:0,3.0952;}
	.st86{fill:none;stroke:#EF413D;stroke-width:1.2143;stroke-linecap:round;stroke-linejoin:round;}
	.st87{fill:none;stroke:#EF413D;stroke-width:1.2143;stroke-linecap:round;stroke-linejoin:round;stroke-dasharray:0,2.7738;}
	.st88{fill:none;stroke:#EF413D;stroke-width:1.0714;stroke-linecap:round;stroke-linejoin:round;}
	.st89{fill:none;stroke:#EF413D;stroke-width:1.0714;stroke-linecap:round;stroke-linejoin:round;stroke-dasharray:0,2.4524;}
	.st90{fill:none;stroke:#EF413D;stroke-width:0.9286;stroke-linecap:round;stroke-linejoin:round;}
	.st91{fill:none;stroke:#EF413D;stroke-width:0.9286;stroke-linecap:round;stroke-linejoin:round;stroke-dasharray:0,2.131;}
	.st92{fill:none;stroke:#EF413D;stroke-width:0.7857;stroke-linecap:round;stroke-linejoin:round;}
	.st93{fill:none;stroke:#EF413D;stroke-width:0.7857;stroke-linecap:round;stroke-linejoin:round;stroke-dasharray:0,2.7143;}
	.st94{fill:none;stroke:#EF413D;stroke-width:0.6429;stroke-linecap:round;stroke-linejoin:round;}
	.st95{fill:none;stroke:#EF413D;stroke-width:0.6429;stroke-linecap:round;stroke-linejoin:round;stroke-dasharray:0,2.2321;}
	.st96{fill:none;stroke:#EF413D;stroke-width:0.5;stroke-linecap:round;stroke-linejoin:round;}
	.st97{fill:none;stroke:#EF413D;stroke-width:0.5;stroke-linecap:round;stroke-linejoin:round;stroke-dasharray:0,1.75;}
</style>
<ellipse class="st55" cx="144" cy="100.5" rx="17.5" ry="45.9"/>
<path class="st56" d="M116,139.7c-4.5,0-10.2-9.6-13.5-21.4l1-41.3c2.8-4.6,7.4-7.6,13.9-7.6"/>
<line class="st56" x1="144" y1="125.4" x2="144" y2="146.4"/>
<path class="st56" d="M144,125.4c0,0-14-9.1-17.4-31.9"/>
<path class="st56" d="M102.5,118.3c0,0,6.4-5.4,8-21"/>
<path class="st56" d="M172,139.7c4.5,0,10.2-9.6,13.5-21.4l-1-41.3c-2.8-4.6-7.4-7.6-13.9-7.6"/>
<path class="st56" d="M185.5,118.3c0,0-6.4-5.4-8-21"/>
<path class="st55" d="M128.3,163.3c-5.9-8.1-12.1-16.7-15.8-41.2c-6.4-42.6,3.7-54.4,11.4-57.6l9.4-1.6"/>
<rect x="128.3" y="163.3" class="st55" width="31.4" height="7.2"/>
<path class="st55" d="M128.3,163.3c0,0,2.7-10.3,15.7-16.8c13,6.5,15.7,16.8,15.7,16.8"/>
<g>
	<g>
		<path class="st55" d="M71.2,195.8c-0.1-0.7-2.1-17.1,5.7-26c3.2-3.7,7.5-5.6,12.8-5.6c12.4-0.1,16.2,9.5,18.9,16.5
			c2.6,6.6,4.1,9.5,7.9,9.4c7.2-0.2,10.8-10.2,11.8-19.6"/>
		<path class="st55" d="M134.3,170.5c-1.3,15.8-8.2,25.4-17.6,25.6c-8.4,0.2-11.2-6.9-13.6-13.2c-3.1-7.9-5.5-12.7-13.3-12.6
			c-3.6,0-6.3,1.2-8.4,3.6c-5,5.7-4.8,17.3-4.3,21.3"/>
	</g>
	<path class="st57" d="M74,193.2c0,0-3.4-25.9,15.8-26c19.2-0.2,13.1,26.1,26.9,25.8c9.3-0.2,13.4-9.7,14.5-20.4"/>
	<g>
		<g>
			<g>
				<g>
					<g>
						<line class="st58" x1="81.8" y1="217" x2="81.8" y2="217"/>
						<line class="st59" x1="78.5" y1="217.4" x2="73.4" y2="218"/>
						<line class="st58" x1="71.7" y1="218.2" x2="71.7" y2="218.2"/>
					</g>
				</g>
				<g>
					<g>
						<line class="st60" x1="81.6" y1="219.3" x2="81.6" y2="219.3"/>
						<line class="st61" x1="78.5" y1="219.7" x2="73.9" y2="220.2"/>
						<line class="st60" x1="72.4" y1="220.4" x2="72.4" y2="220.4"/>
					</g>
				</g>
				<g>
					<g>
						<line class="st62" x1="81.4" y1="221.6" x2="81.4" y2="221.6"/>
						<line class="st63" x1="78.6" y1="221.9" x2="74.5" y2="222.4"/>
						<line class="st62" x1="73.1" y1="222.5" x2="73.1" y2="222.5"/>
					</g>
				</g>
				<g>
					<g>
						<line class="st64" x1="81.2" y1="223.9" x2="81.2" y2="223.9"/>
						<line class="st65" x1="78.7" y1="224.2" x2="75.1" y2="224.6"/>
						<line class="st64" x1="73.9" y1="224.7" x2="73.9" y2="224.7"/>
					</g>
				</g>
				<g>
					<g>
						<line class="st66" x1="80.9" y1="226.2" x2="80.9" y2="226.2"/>
						<line class="st67" x1="78.8" y1="226.4" x2="75.6" y2="226.8"/>
						<line class="st66" x1="74.6" y1="226.9" x2="74.6" y2="226.9"/>
					</g>
				</g>
				<g>
					<g>
						<line class="st68" x1="80.7" y1="228.5" x2="80.7" y2="228.5"/>
						<line class="st69" x1="78" y1="228.8" x2="76.7" y2="228.9"/>
						<line class="st68" x1="75.3" y1="229.1" x2="75.3" y2="229.1"/>
					</g>
				</g>
				<g>
					<g>
						<line class="st70" x1="80.5" y1="230.8" x2="80.5" y2="230.8"/>
						<line class="st71" x1="78.3" y1="231" x2="77.2" y2="231.1"/>
						<line class="st70" x1="76.1" y1="231.3" x2="76.1" y2="231.3"/>
					</g>
				</g>
				<g>
					<g>
						<line class="st72" x1="80.3" y1="233" x2="80.3" y2="233"/>
						<line class="st73" x1="78.5" y1="233.2" x2="77.7" y2="233.3"/>
						<line class="st72" x1="76.8" y1="233.4" x2="76.8" y2="233.4"/>
					</g>
				</g>
			</g>
			<path class="st74" d="M76.1,212l8.8-1c0.2-7.8-2-11.9-4.4-14c-3.6-3.2-9.4-2.6-12.2,1.4c-1.9,2.6-3,7.1-1.1,14.6
				C67.3,213,76.1,212,76.1,212z"/>
			<line class="st56" x1="84.9" y1="208.2" x2="66.7" y2="210.1"/>
		</g>
		<line class="st56" x1="68.3" y1="209.9" x2="68.9" y2="212.9"/>
		<line class="st56" x1="70.8" y1="209.7" x2="71.4" y2="212.6"/>
		<line class="st56" x1="73.4" y1="209.4" x2="73.8" y2="212.3"/>
		<g>
			<line class="st56" x1="78.4" y1="208.9" x2="78.7" y2="211.7"/>
			<line class="st56" x1="80.8" y1="208.6" x2="81" y2="211.5"/>
			<line class="st56" x1="83.3" y1="208.4" x2="83.4" y2="211.2"/>
		</g>
	</g>
</g>
<g>
	<g>
		<path class="st55" d="M216.8,195.8c0.1-0.7,2.1-17.1-5.7-26c-3.2-3.7-7.5-5.6-12.8-5.6c-12.4-0.1-16.2,9.5-18.9,16.5
			c-2.6,6.6-4.1,9.5-7.9,9.4c-7.2-0.2-10.8-10.2-11.8-19.6"/>
		<path class="st55" d="M153.7,170.5c1.3,15.8,8.2,25.4,17.6,25.6c8.4,0.2,11.2-6.9,13.6-13.2c3.1-7.9,5.5-12.7,13.3-12.6
			c3.6,0,6.3,1.2,8.4,3.6c5,5.7,4.8,17.3,4.3,21.3"/>
	</g>
	<path class="st57" d="M214,193.2c0,0,3.4-25.9-15.8-26c-19.2-0.2-13.1,26.1-26.9,25.8c-9.3-0.2-13.4-9.7-14.5-20.4"/>
	<g>
		<g>
			<g>
				<g>
					<g>
						<line class="st58" x1="206.2" y1="217" x2="206.2" y2="217"/>
						<line class="st59" x1="209.5" y1="217.4" x2="214.6" y2="218"/>
						<line class="st58" x1="216.3" y1="218.2" x2="216.3" y2="218.2"/>
					</g>
				</g>
				<g>
					<g>
						<line class="st60" x1="206.4" y1="219.3" x2="206.4" y2="219.3"/>
						<line class="st61" x1="209.5" y1="219.7" x2="214.1" y2="220.2"/>
						<line class="st60" x1="215.6" y1="220.4" x2="215.6" y2="220.4"/>
					</g>
				</g>
				<g>
					<g>
						<line class="st62" x1="206.6" y1="221.6" x2="206.6" y2="221.6"/>
						<line class="st63" x1="209.4" y1="221.9" x2="213.5" y2="222.4"/>
						<line class="st62" x1="214.9" y1="222.5" x2="214.9" y2="222.5"/>
					</g>
				</g>
				<g>
					<g>
						<line class="st64" x1="206.8" y1="223.9" x2="206.8" y2="223.9"/>
						<line class="st65" x1="209.3" y1="224.2" x2="212.9" y2="224.6"/>
						<line class="st64" x1="214.1" y1="224.7" x2="214.1" y2="224.7"/>
					</g>
				</g>
				<g>
					<g>
						<line class="st66" x1="207.1" y1="226.2" x2="207.1" y2="226.2"/>
						<line class="st67" x1="209.2" y1="226.4" x2="212.4" y2="226.8"/>
						<line class="st66" x1="213.4" y1="226.9" x2="213.4" y2="226.9"/>
					</g>
				</g>
				<g>
					<g>
						<line class="st68" x1="207.3" y1="228.5" x2="207.3" y2="228.5"/>
						<line class="st69" x1="210" y1="228.8" x2="211.3" y2="228.9"/>
						<line class="st68" x1="212.7" y1="229.1" x2="212.7" y2="229.1"/>
					</g>
				</g>
				<g>
					<g>
						<line class="st70" x1="207.5" y1="230.8" x2="207.5" y2="230.8"/>
						<line class="st71" x1="209.7" y1="231" x2="210.8" y2="231.1"/>
						<line class="st70" x1="211.9" y1="231.3" x2="211.9" y2="231.3"/>
					</g>
				</g>
				<g>
					<g>
						<line class="st72" x1="207.7" y1="233" x2="207.7" y2="233"/>
						<line class="st73" x1="209.5" y1="233.2" x2="210.3" y2="233.3"/>
						<line class="st72" x1="211.2" y1="233.4" x2="211.2" y2="233.4"/>
					</g>
				</g>
			</g>
			<path class="st74" d="M211.9,212l-8.8-1c-0.2-7.8,2-11.9,4.4-14c3.6-3.2,9.4-2.6,12.2,1.4c1.9,2.6,3,7.1,1.1,14.6
				C220.7,213,211.9,212,211.9,212z"/>
			<line class="st56" x1="203.1" y1="208.2" x2="221.3" y2="210.1"/>
		</g>
		<line class="st56" x1="219.7" y1="209.9" x2="219.1" y2="212.9"/>
		<line class="st56" x1="217.2" y1="209.7" x2="216.6" y2="212.6"/>
		<line class="st56" x1="214.6" y1="209.4" x2="214.2" y2="212.3"/>
		<g>
			<line class="st56" x1="209.6" y1="208.9" x2="209.3" y2="211.7"/>
			<line class="st56" x1="207.2" y1="208.6" x2="207" y2="211.5"/>
			<line class="st56" x1="204.7" y1="208.4" x2="204.6" y2="211.2"/>
		</g>
	</g>
</g>
<path class="st56" d="M144,125.4c0,0,14-9.1,17.4-31.9"/>
<path class="st55" d="M159.7,163.3c5.9-8.1,12.1-16.7,15.8-41.2c6.4-42.6-3.7-54.4-11.4-57.6l-9.4-1.6"/>
</svg>
