<?xml version="1.0" encoding="utf-8"?>
<!-- Generator: Adobe Illustrator 23.0.1, SVG Export Plug-In . SVG Version: 6.00 Build 0)  -->
<svg version="1.1" id="Layer_1" xmlns="http://www.w3.org/2000/svg" xmlns:xlink="http://www.w3.org/1999/xlink" x="0px" y="0px"
	 viewBox="0 0 576 144" style="enable-background:new 0 0 576 144;" xml:space="preserve">
<style type="text/css">
	.st0{fill:#00803E;}
	.st1{fill:#D6DE23;}
</style>
<g>
	<g>
		<path class="st0" d="M546.6,69.5c0-0.1,0-0.2,0-0.3c0-0.2,0-0.3,0-0.5c0-0.1,0-0.2,0-0.3c0-0.1,0-0.1,0-0.2l0-0.2
			c0-0.1,0-0.2,0-0.3c0,0,0-0.1,0-0.1c0-0.2-0.1-0.5-0.1-0.7l0-0.2c0-0.2-0.1-0.4-0.1-0.6c0-0.1,0-0.2-0.1-0.2
			c-0.1-0.2-0.1-0.4-0.2-0.7c0,0,0,0,0-0.1l0,0c0,0,0,0,0,0c-0.1-0.3-0.2-0.5-0.3-0.9l-0.1-0.2c-0.1-0.2-0.2-0.4-0.2-0.6l-0.1-0.3
			c-0.1-0.2-0.2-0.4-0.3-0.6c0,0,0,0,0,0c0-0.1,0-0.1-0.1-0.2c0,0,0,0,0,0c-0.1-0.3-0.3-0.6-0.4-0.9l-0.1-0.1
			c-0.1-0.3-0.2-0.5-0.4-0.8l-0.1-0.3c-0.1-0.2-0.2-0.3-0.3-0.5l-0.1-0.2c0,0,0,0,0-0.1l-0.1-0.1c0,0-0.1-0.1-0.1-0.1
			c-0.2-0.3-0.4-0.6-0.5-0.9l-12.3-20.5c-1.5-2.5-3.3-4.8-5.3-6.8c-0.6-0.6-1.3-1.3-2-1.9c-1.4-1.2-2.8-2.2-4.3-3.1
			c-1.5-0.9-3-1.6-4.5-2.3c-0.8-0.3-1.6-0.6-2.3-0.8c-2.4-0.7-4.7-1-7-1h-35.5c0,0,0,0,0,0c-0.1,0-0.1,0-0.2,0c0,0-0.1,0-0.1,0
			c-0.1,0-0.1,0-0.2,0.1c0,0-0.1,0-0.1,0.1c-0.1,0-0.1,0.1-0.1,0.1c0,0-0.1,0.1-0.1,0.1c0,0,0,0,0,0l-4.4,4.4l-1.7-4
			c-0.2-0.5-0.7-0.8-1.2-0.8h-15.2c0,0,0,0-0.1,0c0,0-0.1,0-0.1,0c-0.1,0-0.1,0-0.2,0c0,0-0.1,0-0.1,0.1c-0.1,0-0.1,0.1-0.2,0.1
			c0,0-0.1,0.1-0.1,0.1c0,0-0.1,0.1-0.1,0.1c0,0,0,0-0.1,0.1l-9.4,10.8c-0.3,0.4-0.4,0.9-0.2,1.4l21.9,55.8H455
			c-1.3,0-2.3-0.1-3-0.2c-0.7-0.2-1.2-0.4-1.7-0.8c-0.5-0.4-0.9-1-1.3-1.8c-0.4-0.8-0.9-1.9-1.4-3.6l-21.1-61.1
			c-0.2-0.5-0.7-0.9-1.3-0.9H410h0h0c0,0,0,0,0,0c-0.1,0-0.2,0-0.3,0c0,0,0,0,0,0c-0.1,0-0.2,0.1-0.3,0.1c0,0,0,0,0,0
			c-0.1,0-0.2,0.1-0.2,0.2c0,0,0,0,0,0c-0.1,0.1-0.1,0.1-0.2,0.2c0,0,0,0,0,0c0,0,0,0,0,0c0,0,0,0,0,0l-7.3,10.8
			c-0.2,0.3-0.3,0.7-0.2,1.1l18.3,61.2c0.6,2.1,1.1,3.6,1.6,5.2c0.2,0.6,0.4,1.1,0.6,1.6c0.4,1.1,0.9,2.2,1.3,3.1c0.5,1,1,2,1.7,3
			c0.3,0.4,0.6,1,1,1.5c1.1,1.5,2.4,3,4,4.6c1.5,1.4,2.9,2.6,4.3,3.6c0.5,0.3,1,0.6,1.4,0.9c1,0.5,1.9,1,2.7,1.3
			c0.9,0.3,1.8,0.6,2.8,0.8c0.4,0.1,0.9,0.2,1.4,0.2c1.2,0.2,2.6,0.3,4.3,0.3h22.9c0.4,0,0.7,0,1,0c0.1,0,0.2,0,0.3,0l0.1,0
			c0.2,0,0.4,0,0.6,0c0,0,0.1,0,0.1,0c0,0,0,0,0,0l1.4-0.1c0.2,0,0.4,0,0.5-0.1c0.1,0,0.3,0,0.4-0.1c0.2,0,0.4-0.1,0.5-0.1
			c0.1,0,0.3-0.1,0.4-0.1l0.1,0c0,0,0.1,0,0.1,0c0.1,0,0.2-0.1,0.3-0.1c0.1,0,0.3-0.1,0.4-0.1c0.2-0.1,0.3-0.1,0.4-0.2
			c0.1,0,0.2-0.1,0.4-0.1c0,0,0,0,0,0c0,0,0.1,0,0.1-0.1l0.7-0.3c0.4-0.2,0.8-0.4,1.2-0.6l0.9-0.4c0.5-0.2,0.9-0.4,1.4-0.7l5.5-2.5
			c0.2-0.1,0.4-0.2,0.6-0.3l2.2-1c0,0,0,0,0.1,0c0.1,0,0.1-0.1,0.2-0.1c0.2-0.1,0.3-0.2,0.5-0.3c0.1-0.1,0.3-0.1,0.4-0.2
			c0.2-0.1,0.3-0.2,0.5-0.3c0.2-0.1,0.3-0.2,0.5-0.4c0,0,0,0,0,0c0,0,0,0,0,0c0.1-0.1,0.2-0.2,0.3-0.3l0.1-0.1c0,0,0.1-0.1,0.1-0.1
			c0.1,0,0.1-0.1,0.2-0.2c0,0,0.1-0.1,0.1-0.1c0.1-0.1,0.2-0.2,0.3-0.3l0,0c0,0,0,0,0,0c0,0,0.1-0.1,0.1-0.2l3.9,8.6
			c0,0,0,0.1,0,0.1c0,0,0,0,0,0.1c0,0,0.1,0.1,0.1,0.1c0,0,0,0,0,0c0,0.1,0.1,0.1,0.2,0.1c0,0,0,0,0,0c0,0,0.1,0.1,0.1,0.1
			c0,0,0,0,0.1,0c0,0,0.1,0,0.1,0.1c0,0,0,0,0.1,0c0,0,0.1,0,0.1,0c0,0,0,0,0.1,0c0.1,0,0.1,0,0.2,0c0,0,0,0,0,0h17.8
			c0.2,0,0.3,0,0.5-0.1l15.1-5.6c0,0,0,0,0,0c0.1,0,0.1-0.1,0.2-0.1c0,0,0,0,0,0c0.1,0,0.1-0.1,0.2-0.1c0,0,0,0,0,0
			c0.1-0.1,0.2-0.2,0.2-0.2c0,0,0,0,0,0c0.1-0.1,0.1-0.2,0.1-0.3c0,0,0,0,0,0c0.1-0.1,0.1-0.3,0.1-0.4c0-0.3-0.1-0.5-0.2-0.7
			l-14-27.8h3.1c0.3,0,0.6,0,0.9,0c0.1,0,0.1,0,0.2,0l0.3,0c0,0,0,0,0.1,0c0,0,0.1,0,0.1,0l0.4,0c0.2,0,0.3,0,0.5-0.1l0.4-0.1
			c0.1,0,0.1,0,0.2,0c0,0,0,0,0.1,0c0,0,0.1,0,0.1,0l0.3-0.1c0,0,0.1,0,0.1,0c0.1,0,0.3-0.1,0.4-0.1l0.3-0.1c0.1,0,0.3-0.1,0.4-0.1
			c0.1,0,0.2-0.1,0.3-0.1c0,0,0,0,0,0c0.1,0,0.2-0.1,0.3-0.1c0.1,0,0.2-0.1,0.3-0.1l0.1,0c0.1,0,0.1-0.1,0.2-0.1
			c0.1-0.1,0.2-0.1,0.4-0.2l0.2-0.1c0.1-0.1,0.3-0.1,0.4-0.2c0,0,0,0,0,0c0.4-0.2,0.7-0.4,1.2-0.6l1.7-0.9c1.4-0.7,2.8-1.4,4.2-2.1
			l0.6-0.3c0.9-0.5,1.9-0.9,2.8-1.4l4-2c0,0,0,0,0.1,0c0.1,0,0.2-0.1,0.2-0.1c0,0,0,0,0.1,0c0,0,0.1,0,0.1-0.1
			c0.2-0.1,0.4-0.2,0.6-0.4c0,0,0.1-0.1,0.1-0.1c0.1-0.1,0.3-0.2,0.4-0.3l0.1-0.1c0,0,0.1,0,0.1-0.1l0.2-0.2c0,0,0.1-0.1,0.1-0.1
			l0.1-0.1c0,0,0,0,0,0c0.1-0.2,0.3-0.3,0.4-0.5l0,0c0,0,0-0.1,0.1-0.1c0.1-0.1,0.2-0.3,0.3-0.5c0,0,0-0.1,0-0.1c0,0,0,0,0-0.1
			c0.1-0.1,0.2-0.3,0.2-0.4c0,0,0-0.1,0.1-0.1c0,0,0,0,0,0c0.1-0.2,0.2-0.3,0.2-0.5c0,0,0,0,0,0c0,0,0-0.1,0-0.1
			c0.1-0.2,0.1-0.4,0.2-0.6c0,0,0-0.1,0-0.1c0-0.2,0.1-0.3,0.1-0.5c0,0,0-0.1,0-0.1l0-0.1c0-0.1,0-0.2,0.1-0.4l0-0.1
			c0,0,0-0.1,0-0.1c0,0,0-0.1,0-0.1c0-0.2,0-0.4,0.1-0.7c0,0,0-0.1,0-0.1c0,0,0,0,0,0C546.6,69.8,546.6,69.6,546.6,69.5z"/>
		<path class="st0" d="M379.3,80.1C379.3,80.1,379.3,80.1,379.3,80.1l0.1-0.1c0.1-0.1,0.2-0.2,0.3-0.3c0.1-0.1,0.2-0.2,0.2-0.2
			c0.1-0.1,0.2-0.2,0.3-0.3c0.1-0.1,0.1-0.1,0.2-0.2c0.1-0.1,0.2-0.2,0.2-0.3c0.1-0.1,0.1-0.2,0.2-0.3c0,0,0,0,0,0c0,0,0,0,0,0
			c0,0,0,0,0,0c0,0,0,0,0,0l5.9-8.1c0-0.1,0.1-0.1,0.1-0.2c0,0,0,0,0,0l0.1-0.1c0.1-0.1,0.1-0.2,0.2-0.3l0.1-0.1
			c0.1-0.1,0.1-0.2,0.1-0.2l0.1-0.1c0.1-0.1,0.2-0.3,0.2-0.4c0-0.1,0.1-0.1,0.1-0.2l0.1-0.1c0,0,0,0,0,0c0.1-0.1,0.1-0.3,0.2-0.4
			l0.1-0.3c0.1-0.2,0.1-0.3,0.2-0.5l0.1-0.3c0,0,0,0,0,0c0.1-0.2,0.1-0.3,0.2-0.5l0-0.1c0-0.1,0.1-0.2,0.1-0.3
			c0.1-0.2,0.1-0.4,0.2-0.7c0-0.1,0-0.1,0.1-0.2c0-0.1,0-0.2,0.1-0.3c0-0.2,0.1-0.4,0.1-0.6c0,0,0-0.1,0-0.1l0-0.2
			c0-0.2,0.1-0.4,0.1-0.7c0,0,0-0.1,0-0.1c0,0,0-0.1,0-0.1l0,0c0,0,0,0,0-0.1c0-0.2,0-0.4,0.1-0.6c0-0.1,0-0.2,0-0.3l0-0.1
			c0-0.2,0-0.4,0-0.6c0-0.1,0-0.2,0-0.3l0-0.1c0-0.2,0-0.4,0-0.6c0-0.1,0-0.3,0-0.4c0-0.2,0-0.4,0-0.6l0-0.4c0-0.2,0-0.4,0-0.6
			l0-0.1c0-0.1,0-0.2,0-0.3c0-0.2,0-0.4-0.1-0.6c0,0,0,0,0,0l-0.1-0.5c0-0.2-0.1-0.4-0.1-0.6l-0.1-0.4c-0.1-0.3-0.1-0.7-0.2-1
			l-3.8-16.7c-0.6-2.6-1.5-5-2.7-7.1c-0.4-0.7-0.8-1.3-1.3-1.9c-0.9-1.2-1.9-2.3-3.1-3.3c-1.1-0.9-2.3-1.7-3.7-2.4
			c-0.7-0.3-1.3-0.6-2-0.8c-2.1-0.7-4.4-1.1-6.8-1.1h-37.3c0,0,0,0,0,0c-0.1,0-0.1,0-0.2,0c0,0,0,0,0,0c-0.1,0-0.2,0-0.2,0.1
			c0,0,0,0,0,0c-0.2,0.1-0.3,0.2-0.4,0.3l0,0c0,0,0,0,0,0c-0.1,0.1-0.1,0.1-0.1,0.2c0,0,0,0,0,0.1c0,0.1-0.1,0.1-0.1,0.2
			c0,0,0,0.1,0,0.1c0,0,0,0,0,0.1L324.8,33l-0.9-10.1c0-0.7-0.6-1.2-1.3-1.2h-31.5c-2.5,0-4.8,0.4-6.9,1.3c-0.7,0.3-1.3,0.6-2,1
			c-1.2,0.7-2.4,1.6-3.3,2.7c-0.3,0.4-0.7,0.8-1,1.2l-0.5-4.9c0,0,0-0.1,0-0.1c0,0,0-0.1,0-0.1c0-0.1,0-0.1-0.1-0.2c0,0,0,0,0,0
			c0-0.1-0.1-0.2-0.1-0.2c0,0,0,0,0,0c0,0,0,0,0,0c0-0.1-0.1-0.1-0.1-0.1c0,0,0,0-0.1-0.1c-0.1,0-0.1-0.1-0.2-0.1c0,0,0,0-0.1,0
			c-0.1,0-0.2-0.1-0.3-0.1c0,0,0,0-0.1,0c-0.1,0-0.1,0-0.2,0c0,0,0,0-0.1,0c0,0,0,0,0,0h-14.8c-0.6,0-1.1,0.4-1.3,1L248,64.9
			l0.5-20.5c0-0.4,0-0.8,0-1.3c0-0.1,0-0.3,0-0.4c0-0.3,0-0.5-0.1-0.8c0-0.2,0-0.3-0.1-0.5c0-0.2-0.1-0.5-0.1-0.7
			c0-0.1,0-0.2-0.1-0.3l-1.4-9.6c0-0.2-0.1-0.5-0.1-0.7c0,0,0,0,0-0.1c0-0.1,0-0.2-0.1-0.4l-0.1-0.5c0-0.1-0.1-0.3-0.1-0.4l0-0.2
			c0,0,0,0,0,0c0,0,0,0,0-0.1l0-0.1c0,0,0,0,0,0c0,0,0-0.1,0-0.1c0,0,0,0,0,0c0,0,0-0.1,0-0.1c0-0.1-0.1-0.3-0.2-0.4
			c0-0.1,0-0.1-0.1-0.2c0,0,0-0.1,0-0.1c0,0,0,0,0,0c-0.1-0.2-0.2-0.5-0.3-0.7l-0.1-0.3c-0.1-0.3-0.2-0.5-0.4-0.7
			c0-0.1-0.1-0.1-0.1-0.2c0,0,0,0,0,0l0-0.1c-0.2-0.3-0.4-0.6-0.5-0.8c-0.1-0.2-0.3-0.4-0.4-0.5c0,0-0.1-0.1-0.1-0.1
			c-0.1-0.1-0.3-0.3-0.4-0.4c0,0-0.1-0.1-0.1-0.1c0,0,0,0,0,0c-0.2-0.2-0.4-0.3-0.6-0.5c0,0,0,0-0.1,0c0,0,0,0-0.1-0.1
			c-0.1-0.1-0.3-0.2-0.4-0.3c0,0,0,0-0.1,0c-0.1,0-0.1-0.1-0.2-0.1c-0.2-0.1-0.4-0.3-0.6-0.4c-0.1,0-0.1-0.1-0.2-0.1
			c-0.2-0.1-0.4-0.2-0.6-0.3c0,0-0.1,0-0.1,0c0,0-0.1,0-0.1-0.1c-0.2-0.1-0.5-0.2-0.7-0.3c0,0-0.1,0-0.1,0c-0.2-0.1-0.5-0.1-0.7-0.2
			c0,0,0,0,0,0l0,0c0,0-0.1,0-0.1,0c-0.3-0.1-0.6-0.1-0.8-0.2c0,0,0,0,0,0c0,0,0,0,0,0c-0.3,0-0.5-0.1-0.8-0.1l-0.2,0
			c-0.4,0-0.6,0-0.9,0c-1.8,0-3.6,0.3-5.3,1c-0.5,0.2-1,0.4-1.6,0.7c-1,0.6-2,1.2-2.8,2c-0.8,0.7-1.6,1.6-2.4,2.6
			c-0.4,0.5-0.7,1-1,1.5c-1,1.6-1.8,3.3-2.4,5.2l-5.3,16.1l1-16c0-0.2,0-0.4-0.1-0.6l-5-10.8c0,0,0-0.1,0-0.1c0,0,0-0.1,0-0.1
			c0-0.1-0.1-0.1-0.1-0.2c0,0,0,0,0,0c0,0,0,0,0,0c-0.1-0.1-0.1-0.1-0.2-0.2c0,0,0,0-0.1,0c-0.1,0-0.1-0.1-0.2-0.1c0,0,0,0-0.1,0
			c-0.1,0-0.1,0-0.2-0.1c0,0,0,0-0.1,0c-0.1,0-0.1,0-0.2,0c0,0,0,0,0,0h0h0h-14.7c-0.7,0-1.2,0.5-1.3,1.2l-1.1,10.6
			c-0.8-1.3-1.7-2.7-2.5-4l-0.8-1.3c-0.1-0.2-0.2-0.4-0.4-0.6l-0.6-1c0,0,0,0,0,0l0,0c0,0,0,0,0,0l0-0.1c-0.1-0.1-0.1-0.2-0.2-0.3
			c0-0.1-0.1-0.1-0.1-0.2l-0.1-0.1c0,0,0,0,0,0c-0.1-0.1-0.2-0.2-0.2-0.3c-0.1-0.1-0.2-0.2-0.3-0.3c-0.1-0.1-0.2-0.2-0.3-0.3
			c-0.1-0.1-0.2-0.1-0.2-0.2c-0.1-0.1-0.2-0.2-0.3-0.2c0,0-0.1,0-0.1-0.1c0,0-0.1-0.1-0.1-0.1c0,0-0.1,0-0.1-0.1c0,0-0.1,0-0.1-0.1
			l-0.1,0c-0.1-0.1-0.2-0.1-0.2-0.2c-0.1-0.1-0.2-0.1-0.3-0.2c-0.1-0.1-0.2-0.1-0.3-0.2c-0.1-0.1-0.2-0.1-0.3-0.2
			c-0.1-0.1-0.2-0.1-0.3-0.2l-0.1,0c0,0,0,0,0,0l-0.3-0.1c-0.1-0.1-0.2-0.1-0.3-0.1l-0.1,0c-0.1,0-0.2-0.1-0.3-0.1
			c-0.1-0.1-0.3-0.1-0.4-0.1l-0.3-0.1c0,0,0,0-0.1,0l-0.7-0.2c0,0,0,0-0.1,0l-0.5-0.1c-0.1,0-0.1,0-0.2,0l-0.1,0c-0.1,0-0.2,0-0.3,0
			l-0.2,0c-0.1,0-0.3,0-0.4-0.1c-0.2,0-0.4,0-0.5-0.1c-0.1,0-0.3,0-0.4,0l-0.9-0.1c-0.2,0-0.4,0-0.7,0l-0.1,0c-0.1,0-0.2,0-0.2,0
			c-0.3,0-0.7,0-1,0h-18.1c-1.1,0-2.1,0-3,0.1c-0.3,0-0.7,0.1-1,0.1c-0.7,0.1-1.4,0.2-2.1,0.3c-0.7,0.1-1.5,0.3-2.2,0.6
			c-0.4,0.1-0.7,0.2-1.1,0.4c-1.2,0.4-2.2,1-3.3,1.7c-1.3,0.8-2.5,1.8-3.7,2.9c-0.4,0.3-0.8,0.7-1.1,1.1c-0.8,0.8-1.5,1.6-2.1,2.4
			c-0.5,0.7-1.1,1.4-1.6,2.1c-2.6-2.8-5.2-5.6-7.9-8.4c0,0,0,0-0.1-0.1c0,0,0,0-0.1-0.1c-0.1-0.1-0.1-0.1-0.2-0.2
			c-0.1-0.1-0.2-0.2-0.3-0.3c-0.1-0.1-0.1-0.1-0.2-0.2c-0.1-0.1-0.3-0.2-0.4-0.3c0,0,0,0-0.1,0c0,0,0,0,0,0c0,0-0.1-0.1-0.2-0.1
			l-0.1-0.1c-0.1-0.1-0.2-0.1-0.3-0.2c-0.3-0.2-0.5-0.3-0.9-0.5c-0.1,0-0.2-0.1-0.2-0.1c-0.1-0.1-0.3-0.1-0.5-0.2
			c-0.2-0.1-0.3-0.1-0.5-0.2c0,0,0,0,0,0c0,0-0.1,0-0.1,0c0,0,0,0,0,0c-0.4-0.1-0.7-0.2-1-0.3c0,0-0.1,0-0.1,0
			c-0.4-0.1-0.8-0.2-1.2-0.2c0,0-0.1,0-0.1,0c0,0,0,0-0.1,0c-0.4-0.1-0.8-0.1-1.2-0.1l-0.2,0c-0.3,0-0.8,0-1.3,0H84.3
			c-0.5,0-0.9,0.2-1.1,0.7l-53.6,91.5c0,0,0,0,0,0c-0.1,0.1-0.1,0.2-0.1,0.3c0,0,0,0.1,0,0.1c0,0,0,0.1,0,0.1c0,0.1,0,0.1,0,0.2
			c0,0,0,0,0,0c0,0.1,0,0.2,0,0.3c0,0,0,0,0,0.1c0,0.1,0.1,0.2,0.1,0.3c0,0,0,0,0,0c0,0,0,0,0,0c0.1,0.1,0.1,0.2,0.2,0.2
			c0,0,0,0,0.1,0.1c0.1,0.1,0.1,0.1,0.2,0.2c0,0,0,0,0,0c0.1,0,0.1,0.1,0.2,0.1l16.4,5.6c0.1,0,0.3,0.1,0.4,0.1H65h0c0,0,0,0,0,0
			c0.1,0,0.2,0,0.3,0c0,0,0,0,0,0c0.1,0,0.2-0.1,0.3-0.1c0,0,0,0,0,0c0.1-0.1,0.2-0.1,0.3-0.2c0,0,0,0,0,0c0.1-0.1,0.2-0.3,0.3-0.4
			l18.5-34.6h22.1c2.4,0,4.8-0.4,7.1-1.3l-2.6,6.1c-0.7,1.7-1.3,3.4-1.8,5.1c-0.1,0.5-0.3,1.1-0.4,1.8c-0.3,1.2-0.5,2.4-0.6,3.6
			c-0.1,1.2-0.2,2.4-0.2,3.4c0,0.6,0,1.1,0.1,1.6c0.2,1.7,0.6,3.2,1.2,4.4c0.1,0.2,0.3,0.5,0.4,0.7c0.1,0.1,0.1,0.2,0.2,0.2l0,0
			c0.1,0.1,0.1,0.2,0.2,0.2c0,0,0,0,0,0.1c0.1,0.1,0.1,0.1,0.2,0.2c0,0,0,0.1,0.1,0.1c0,0,0,0,0,0c0.1,0.1,0.2,0.2,0.3,0.3
			c0.1,0.1,0.2,0.2,0.3,0.3c0,0,0.1,0.1,0.1,0.1l0.1,0c0.2,0.1,0.3,0.3,0.5,0.4c0.1,0,0.1,0.1,0.2,0.1c0.2,0.2,0.5,0.3,0.7,0.4
			c0.1,0,0.1,0.1,0.2,0.1c0.1,0,0.2,0.1,0.2,0.1c0,0,0,0,0.1,0l0.1,0.1c0.1,0.1,0.3,0.2,0.4,0.2l0.5,0.2c0.1,0.1,0.3,0.2,0.4,0.2
			l0.9,0.5c0.1,0,0.2,0.1,0.3,0.1l0.4,0.2c0.1,0.1,0.3,0.1,0.4,0.2l1.3,0.7c0.4,0.2,0.8,0.4,1.2,0.6l5.3,2.7l0.1,0.1c0,0,0,0,0,0
			l0,0c0,0,0.1,0,0.1,0c0,0,0,0,0,0c0,0,0,0,0,0c0.2,0.1,0.5,0.2,0.7,0.3l0.2,0.1c0,0,0,0,0.1,0c0.3,0.1,0.6,0.2,1,0.3l0.2,0.1
			c0.3,0.1,0.5,0.1,0.8,0.2c0.1,0,0.1,0,0.2,0l0.1,0c0.2,0,0.5,0.1,0.7,0.1l0.3,0c0.3,0,0.7,0.1,1,0.1l0.2,0c0.3,0,0.6,0,0.9,0.1
			c0.1,0,0.2,0,0.3,0c0,0,0,0,0.1,0l0.1,0c0.2,0,0.4,0,0.6,0c0.1,0,0.2,0,0.3,0c0.3,0,0.6,0,1,0h20.9c3.2,0,6.1-0.5,8.8-1.4
			c0.9-0.3,1.8-0.7,2.6-1.1c1.7-0.8,3.3-1.9,4.8-3.1c1.5-1.2,2.8-2.7,4.1-4.5c0.7-0.9,1.2-1.8,1.8-2.7c1.7-2.8,3.1-6.2,4.2-10
			l8.1-27.6l-3.1,29.2c0,0.3-0.1,0.7-0.1,1c0,0.1,0,0.1,0,0.2l0,0.1c0,0.2,0,0.5,0,0.7c0,0.1,0,0.2,0,0.3c0,0.3,0,0.5,0,0.8v0.2
			c0,0,0,0,0,0.1c0,0.3,0,0.6,0.1,0.9c0,0,0,0.1,0,0.1l0,0.1c0,0,0,0,0,0.1c0,0.2,0,0.5,0.1,0.7c0,0.1,0,0.2,0,0.3c0,0,0,0,0,0.1
			c0,0.2,0.1,0.4,0.1,0.6c0,0.1,0,0.2,0.1,0.3c0.1,0.3,0.1,0.5,0.2,0.8c0,0,0,0.1,0,0.1c0.1,0.3,0.1,0.5,0.2,0.8c0,0,0,0.1,0,0.1
			l0.1,0.2c0,0.1,0,0.1,0,0.1l0,0.1c0,0.1,0.1,0.2,0.1,0.3l0.1,0.3c0.1,0.2,0.2,0.4,0.2,0.6l0.1,0.2c0.1,0.3,0.2,0.5,0.4,0.7
			c0,0,0,0.1,0.1,0.2c0.1,0.2,0.2,0.4,0.3,0.6c0,0.1,0.1,0.1,0.1,0.2l0,0c0.1,0.2,0.2,0.3,0.3,0.5c0,0,0,0,0,0l0.1,0.2
			c0.1,0.2,0.3,0.4,0.4,0.6l0.1,0.1c0.2,0.2,0.4,0.4,0.6,0.6l0.1,0.1c0.1,0.1,0.3,0.3,0.4,0.4c0,0,0,0,0.1,0.1c0,0,0,0,0,0l5.2,4.6
			c0.1,0.1,0.2,0.2,0.3,0.2c0,0,0,0,0.1,0.1c0,0,0,0,0,0l0.5,0.5c0.1,0.1,0.2,0.2,0.3,0.2c0,0,0.1,0,0.1,0.1l0.2,0.2
			c0.1,0.1,0.3,0.2,0.4,0.3c0,0,0.1,0.1,0.1,0.1c0.2,0.1,0.4,0.3,0.7,0.4l0.1,0c0,0,0.1,0,0.1,0.1c0,0,0,0,0,0l0.3,0.2
			c0.1,0,0.1,0.1,0.2,0.1l0.2,0.1c0,0,0.1,0,0.1,0l0,0c0.1,0,0.1,0.1,0.2,0.1l0.1,0.1c0,0,0.1,0,0.1,0.1c0,0,0,0,0.1,0l0.1,0.1
			c0.1,0,0.2,0.1,0.2,0.1l0.3,0.1c0,0,0.1,0,0.1,0l0.5,0.1c0.3,0.1,0.6,0.1,0.8,0.2c0.1,0,0.1,0,0.2,0c0.2,0,0.5,0.1,0.7,0.1
			c0.1,0,0.2,0,0.3,0c0.3,0,0.6,0,0.9,0c1.9,0,3.8-0.4,5.7-1.2c0.6-0.3,1.2-0.6,1.8-0.9c1.2-0.7,2.3-1.5,3.4-2.5c1.1-1,2.1-2,3-3.2
			c0.5-0.6,0.9-1.2,1.3-1.9c1.2-2,2.2-4.1,2.8-6.4l6.3-22.5l-0.8,15.6c0,0.1,0,0.3,0,0.4c0,0,0,0.1,0,0.1l0,0.4l0,0.2
			c0,0.2,0,0.4,0,0.6l0,0.3c0,0.2,0,0.3,0,0.6l0,0.3c0,0.2,0,0.3,0,0.5c0,0.1,0,0.3,0,0.4l0,0.1c0,0.1,0,0.2,0,0.3
			c0,0.1,0,0.2,0.1,0.4c0,0.2,0,0.3,0.1,0.4c0,0.1,0,0.2,0.1,0.4l0.1,0.4c0,0.1,0,0.2,0.1,0.3l0.1,0.4c0,0.2,0.1,0.4,0.1,0.6l0,0
			c0,0,0,0,0,0.1c0.1,0.2,0.1,0.4,0.2,0.6c0,0,0,0.1,0.1,0.2c0,0,0,0,0,0.1c0.1,0.2,0.1,0.3,0.2,0.5l0.1,0.2c0,0.1,0.1,0.2,0.1,0.3
			c0,0,0,0,0,0.1c0,0.1,0.1,0.2,0.1,0.2l0,0.1c0.2,0.4,0.4,0.8,0.6,1.2c0,0,0,0.1,0,0.1c0.2,0.4,0.4,0.7,0.6,1.1c0,0,0,0.1,0.1,0.1
			l0,0c0,0,0,0,0,0c0.2,0.3,0.4,0.6,0.6,0.9l3.2,4.8c0,0,0,0.1,0.1,0.1c0.1,0.1,0.2,0.3,0.3,0.4l0,0c0,0,0,0,0,0.1l0.1,0.1
			c0,0,0,0,0,0c0.1,0.2,0.3,0.4,0.4,0.5c0,0,0.1,0.1,0.1,0.1c0,0,0,0,0,0c0.1,0.1,0.2,0.2,0.3,0.4c0,0,0,0,0,0l0.3,0.3
			c0.1,0.1,0.1,0.1,0.2,0.2l0.2,0.2c0.1,0.1,0.2,0.2,0.3,0.3l0.2,0.2c0.1,0.1,0.2,0.2,0.3,0.3c0,0,0.1,0.1,0.1,0.1l0.1,0.1
			c0.1,0.1,0.2,0.2,0.3,0.2c0.1,0.1,0.2,0.1,0.3,0.2c0.1,0.1,0.2,0.1,0.3,0.2c0.1,0.1,0.2,0.1,0.3,0.1c0.1,0,0.2,0.1,0.3,0.1l0.1,0
			c0,0,0,0,0.1,0l0.1,0c0.1,0,0.1,0.1,0.2,0.1l0.1,0c0.1,0,0.1,0.1,0.2,0.1l0.3,0.1c0,0,0,0,0,0l0.4,0.1c0.1,0,0.2,0.1,0.3,0.1
			c0.1,0,0.3,0.1,0.4,0.1c0.1,0,0.2,0.1,0.3,0.1c0.1,0,0.3,0.1,0.4,0.1l0.1,0c0.1,0,0.2,0,0.2,0c0.1,0,0.3,0,0.4,0.1l0.3,0
			c0,0,0.1,0,0.1,0l0.6,0c0.1,0,0.1,0,0.2,0c0.3,0,0.5,0,0.8,0c1.9,0,3.8-0.4,5.7-1.3c0.6-0.3,1.1-0.6,1.7-0.9
			c1.1-0.7,2.2-1.5,3.2-2.5c0.9-0.9,1.8-2,2.7-3.2c0.4-0.7,0.8-1.3,1.1-1.8c1.1-1.9,1.9-4.1,2.4-6.3l12.6-51.6l-2,36.3
			c0,0.6-0.1,1.2-0.1,1.8c0,0.2,0,0.4,0,0.5c0,0.4,0,0.8,0,1.2c0,0.2,0,0.4,0,0.5c0,0.5,0.1,1,0.1,1.4l0,0.2c0.1,0.5,0.1,1,0.2,1.6
			c0,0.1,0,0.2,0,0.3c0,0,0,0,0,0c0,0,0,0,0,0c0,0.1,0,0.2,0,0.3c0,0.1,0,0.2,0,0.3c0,0.1,0,0.1,0,0.2c0,0.3,0.1,0.6,0.1,0.9
			l0.1,0.5c0.1,0.5,0.2,1,0.2,1.5l0.4,2.7c0,0,0,0.1,0,0.1c0,0.2,0.1,0.4,0.1,0.5l0,0.1c0,0.1,0,0.1,0,0.2c0.1,0.4,0.1,0.7,0.2,1.1
			l0.1,0.2c0.1,0.3,0.1,0.6,0.2,0.8c0,0.1,0,0.1,0.1,0.2l0,0.1c0.1,0.2,0.1,0.5,0.2,0.6c0,0.1,0.1,0.3,0.1,0.4
			c0.1,0.2,0.2,0.4,0.2,0.6l0,0.1c0,0.1,0.1,0.1,0.1,0.2c0.1,0.1,0.1,0.3,0.2,0.4l0.1,0.1c0,0,0,0,0,0.1c0,0,0,0.1,0,0.1l0,0
			c0,0.1,0.1,0.2,0.1,0.2c0.1,0.3,0.3,0.6,0.4,0.8c0,0,0,0,0,0.1c0,0,0,0.1,0.1,0.1c0.1,0.2,0.3,0.4,0.4,0.6c0,0.1,0.1,0.1,0.2,0.2
			l0,0.1c0.1,0.2,0.2,0.3,0.3,0.5c0.1,0.1,0.2,0.2,0.2,0.3c0.1,0.2,0.2,0.3,0.4,0.5c0.1,0.1,0.1,0.2,0.2,0.2
			c0.1,0.2,0.3,0.3,0.4,0.5l0,0c0.1,0.1,0.1,0.1,0.1,0.2c0.2,0.2,0.4,0.4,0.6,0.6c0,0,0.1,0.1,0.1,0.1c0.2,0.2,0.4,0.3,0.5,0.5
			c0.1,0,0.1,0.1,0.2,0.1l0.1,0.1c0,0,0,0,0,0l0.2,0.2c0,0,0,0,0.1,0c0.1,0,0.1,0.1,0.2,0.1c0.1,0,0.1,0.1,0.2,0.1l0.1,0.1
			c0,0,0,0,0,0l0.4,0.3c0,0,0,0,0.1,0l0.2,0.1c0.2,0.1,0.4,0.2,0.6,0.3c0.1,0.1,0.2,0.1,0.3,0.2l0.2,0.1c0,0,0.1,0.1,0.1,0.1
			c0,0,0,0,0.1,0c0,0,0,0,0,0c0,0,0,0,0,0l0.1,0c0.1,0.1,0.2,0.1,0.3,0.2l0.1,0c0.2,0.1,0.5,0.2,0.8,0.3c0.1,0,0.2,0.1,0.3,0.1
			c0.2,0.1,0.4,0.1,0.6,0.2c0.1,0,0.2,0.1,0.3,0.1c0.1,0,0.3,0.1,0.4,0.1l0.2,0.1c0.1,0,0.2,0.1,0.4,0.1l0.3,0.1
			c0.1,0,0.2,0.1,0.3,0.1l0.3,0.1c0.3,0.1,0.6,0.1,0.9,0.2l0.1,0c0.3,0.1,0.6,0.1,0.9,0.2l0.3,0c0.2,0,0.4,0.1,0.7,0.1
			c0,0,0,0,0.1,0c0.1,0,0.2,0,0.3,0l0.6,0.1l1.4,0.1c0.3,0,0.7,0,1,0h29.4v0h17.1v0h12.7c0.4,0,0.8-0.2,1.1-0.5l4.2-5.6l0,0
			c0,0,0,0,0,0c0.2-0.2,0.2-0.5,0.2-0.8c0-0.1,0-0.2,0-0.3l-2.9-22.1l18.6,28.8c0,0,0,0,0,0c0,0.1,0.1,0.1,0.1,0.2c0,0,0,0,0,0
			c0.1,0.1,0.1,0.1,0.2,0.2c0,0,0,0,0,0c0.1,0,0.1,0.1,0.2,0.1c0,0,0,0,0,0c0.1,0,0.2,0,0.3,0.1c0,0,0,0,0,0c0,0,0.1,0,0.1,0h21
			c0.3,0,0.6-0.1,0.8-0.3l7.1-5.6l0.1-0.1c0,0,0,0,0.1-0.1c0.1-0.1,0.1-0.1,0.2-0.2c0,0,0,0,0-0.1c0.1-0.2,0.2-0.3,0.2-0.5
			c0,0,0,0,0-0.1c0,0,0-0.1,0-0.1c0-0.3-0.1-0.6-0.3-0.9L379.3,80.1z"/>
	</g>
	<g>
		<path class="st1" d="M126.9,37.8c0.1-0.3,0.3-0.6,0.4-0.9c0,0,0,0,0-0.1c0,0,0-0.1,0-0.1l0.1-0.2c0.1-0.2,0.2-0.4,0.2-0.6
			c0-0.1,0.1-0.2,0.1-0.3c0,0,0,0,0,0c0,0,0,0,0,0c0.1-0.2,0.1-0.4,0.2-0.5l0.1-0.4c0-0.1,0.1-0.3,0.1-0.4c0-0.1,0.1-0.2,0.1-0.3
			c0,0,0,0,0,0c0-0.1,0-0.2,0.1-0.3c0,0,0-0.1,0-0.1c0,0,0-0.1,0-0.1c0,0,0,0,0,0c0,0,0,0,0,0c0-0.1,0-0.1,0-0.2c0,0,0,0,0,0
			c0-0.2,0.1-0.4,0.1-0.6l0-0.2l0-0.2c0-0.1,0-0.1,0-0.2c0,0,0,0,0,0c0,0,0,0,0-0.1c0-0.1,0-0.2,0-0.3c0,0,0,0,0,0
			c0-0.1,0-0.1,0-0.2c0,0,0,0,0,0c0-0.1,0-0.2,0-0.3v-0.2c0-0.1,0-0.1,0-0.2c0,0,0,0,0,0c0-0.1,0-0.2,0-0.4l0-0.3c0,0,0-0.1,0-0.1
			c0-0.1,0-0.1,0-0.2l0-0.2c0-0.1,0-0.2-0.1-0.3c0,0,0,0,0,0c0-0.1,0-0.1,0-0.2c0-0.1-0.1-0.2-0.1-0.3c0,0,0-0.1,0-0.1
			c-0.1-0.2-0.1-0.3-0.2-0.5c0,0,0-0.1,0-0.1c0,0,0,0,0,0c0-0.1-0.1-0.1-0.1-0.2c0,0-0.1-0.1-0.1-0.1c0,0,0,0,0,0l0,0
			c0,0-0.1-0.1-0.1-0.1c0-0.1-0.1-0.1-0.2-0.2c0,0,0,0,0-0.1l-0.1-0.1c0-0.1-0.1-0.1-0.2-0.2c-0.1-0.1-0.1-0.1-0.2-0.2c0,0,0,0,0,0
			c0,0-0.1-0.1-0.1-0.1c0,0-0.1-0.1-0.2-0.2c0,0,0,0,0,0l0,0c0,0,0,0-0.1-0.1c-0.1-0.1-0.2-0.1-0.3-0.2c0,0,0,0,0,0
			c0,0-0.1,0-0.1-0.1l-0.2-0.1c0,0-0.1-0.1-0.1-0.1c-0.2-0.1-0.4-0.2-0.7-0.4l-0.1,0c0,0-0.1,0-0.1,0c-0.1-0.1-0.2-0.1-0.3-0.1
			c-0.1,0-0.2-0.1-0.4-0.1c0,0,0,0-0.1,0c0,0-0.1,0-0.1,0c-0.3-0.1-0.6-0.2-0.8-0.2c0,0-0.1,0-0.1,0c-0.3-0.1-0.7-0.1-0.9-0.2
			c0,0-0.1,0-0.2,0c-0.3,0-0.7-0.1-1-0.1l-0.2,0c-0.3,0-0.7,0-1.1,0H85.1l-52,88.9h16.6l21.2-37c0.2-0.4,0.7-0.7,1.1-0.7h22.6
			c2.2,0,4.5-0.4,6.7-1.2c0.5-0.2,1.1-0.4,1.6-0.6c0,0,0,0,0,0c0.2-0.1,0.4-0.2,0.5-0.3c0.2-0.1,0.4-0.2,0.5-0.3
			c0.2-0.1,0.4-0.2,0.5-0.3c0.1-0.1,0.3-0.2,0.4-0.2c0,0,0.1,0,0.1-0.1c0,0,0.1,0,0.1,0c0.1-0.1,0.2-0.1,0.3-0.2
			c0.2-0.1,0.4-0.3,0.6-0.4c0.3-0.2,0.5-0.3,0.8-0.5c0.3-0.2,0.5-0.4,0.8-0.6c0.5-0.4,1-0.8,1.5-1.2c0.3-0.2,0.5-0.4,0.7-0.6
			c0.3-0.2,0.5-0.4,0.7-0.7c0.3-0.3,0.6-0.6,0.9-0.9c0.1-0.2,0.3-0.3,0.4-0.5c0.2-0.2,0.4-0.5,0.6-0.7c0.2-0.3,0.4-0.5,0.6-0.8
			c1.7-2.2,3.2-4.6,4.3-7.2L126.9,37.8z M111.4,42c0,0,0,0.1,0,0.1c0,0.1,0,0.2,0,0.2c0,0,0,0,0,0.1c0,0,0,0.1,0,0.1
			c0,0.1,0,0.2-0.1,0.3c0,0.1-0.1,0.3-0.1,0.4c0,0.1,0,0.1-0.1,0.2c0,0,0,0.1,0,0.1l0,0c0,0,0,0.1,0,0.1l0,0.1
			c-0.1,0.2-0.1,0.4-0.2,0.6l0,0.1c-0.1,0.2-0.2,0.5-0.3,0.7l-3.7,7.5c-0.6,1.2-1.2,2.2-1.9,3c-0.7,0.7-1.4,1.3-2.3,1.7
			c-0.5,0.2-1.1,0.4-1.7,0.5c-0.3,0.1-0.5,0.1-0.8,0.1C99.7,58,99.4,58,99,58c-0.5,0-1.1,0-1.6,0H83.7c-0.5,0-0.9-0.3-1.1-0.7
			c-0.2-0.4-0.2-0.9,0-1.3L92.3,39c0.2-0.4,0.7-0.7,1.1-0.7l13.1-0.1c0,0,0,0,0,0c0.2,0,0.4,0,0.6,0c0,0,0,0,0,0c0,0,0,0,0.1,0
			c0,0,0,0,0.1,0l0.2,0c0,0,0,0,0,0c0,0,0,0,0,0c0,0,0,0,0,0c0,0,0,0,0,0c0,0,0.1,0,0.1,0l0,0c0,0,0.1,0,0.1,0c0,0,0.1,0,0.1,0
			c0.1,0,0.2,0,0.3,0.1c0,0,0.1,0,0.1,0l0,0c0,0,0.1,0,0.1,0c0,0,0.1,0,0.1,0c0,0,0.1,0,0.1,0c0,0,0,0,0,0c0,0,0.1,0,0.1,0
			c0,0,0.1,0,0.1,0c0.2,0.1,0.3,0.1,0.5,0.2c0,0,0.1,0,0.1,0c0,0,0.1,0,0.1,0.1c0,0,0.1,0,0.1,0c0.1,0,0.1,0.1,0.2,0.1
			c0,0,0,0,0.1,0l0.1,0.1c0,0,0,0,0.1,0c0.1,0,0.1,0.1,0.2,0.1c0,0,0,0,0.1,0.1c0,0,0,0,0,0c0,0,0.1,0.1,0.1,0.1c0,0,0,0,0,0
			c0,0.1,0.1,0.1,0.1,0.1c0,0,0.1,0.1,0.1,0.1c0,0,0,0,0,0c0,0,0,0,0,0c0,0,0,0,0,0c0,0,0.1,0.1,0.1,0.1c0,0,0.1,0.1,0.1,0.1
			c0,0,0,0,0,0c0,0,0,0.1,0,0.1c0,0,0,0,0,0c0,0.1,0.1,0.1,0.1,0.2c0,0,0,0,0,0.1c0.1,0.2,0.1,0.4,0.2,0.6c0,0.1,0,0.1,0,0.2
			c0,0.1,0,0.2,0,0.2c0,0,0,0,0,0.1c0,0,0,0.1,0,0.1c0,0,0,0.1,0,0.1C111.4,41.9,111.4,41.9,111.4,42z"/>
		<path class="st1" d="M186.9,31.5c0-0.1,0-0.1,0-0.2l0-0.1c0-0.1,0-0.1,0-0.1c0,0,0-0.1,0-0.1l0-0.1c0,0,0,0,0,0c0,0,0,0,0,0
			c0-0.1,0-0.2,0-0.3c0-0.1,0-0.2,0-0.3l0-0.1c0-0.1,0-0.2,0-0.2c0,0,0,0,0-0.1c0,0,0-0.1,0-0.1c0-0.1,0-0.1-0.1-0.2l0,0
			c0-0.1,0-0.1-0.1-0.2c0,0,0,0,0-0.1c0-0.1,0-0.1-0.1-0.2c0,0,0,0,0-0.1c0-0.1,0-0.1-0.1-0.2c0-0.1-0.1-0.2-0.1-0.3l-0.1-0.2
			c0-0.1-0.1-0.1-0.1-0.2c-0.1-0.1-0.1-0.2-0.1-0.2l-0.1-0.2c0,0,0,0,0,0c0-0.1-0.1-0.1-0.1-0.2l-0.1-0.1c0,0-0.1-0.1-0.1-0.1
			c-0.1-0.1-0.1-0.1-0.2-0.2c-0.1-0.1-0.1-0.1-0.1-0.2c-0.1-0.1-0.1-0.1-0.2-0.2c-0.1-0.1-0.1-0.1-0.2-0.2c-0.1-0.1-0.1-0.1-0.2-0.2
			c-0.1-0.1-0.1-0.1-0.2-0.1c0,0,0,0,0,0l0,0c-0.1,0-0.1-0.1-0.2-0.1c0,0,0,0-0.1,0c-0.1,0-0.1-0.1-0.2-0.1
			c-0.1-0.1-0.2-0.1-0.2-0.1c-0.1-0.1-0.2-0.1-0.2-0.1c0,0,0,0,0,0c-0.1,0-0.1-0.1-0.2-0.1l-0.3-0.1c-0.1,0-0.1-0.1-0.2-0.1l-0.1,0
			c-0.1,0-0.2-0.1-0.3-0.1c-0.1,0-0.2-0.1-0.3-0.1l-1-0.3l-0.4-0.1c-0.1,0-0.2,0-0.3-0.1l-0.1,0c0,0-0.1,0-0.2,0l-0.2,0
			c-0.1,0-0.2,0-0.3-0.1c-0.2,0-0.3,0-0.4-0.1c0,0,0,0,0,0c-0.1,0-0.2,0-0.3,0l-0.9-0.1c-0.2,0-0.4,0-0.6,0l-0.1,0
			c-0.1,0-0.1,0-0.2,0c-0.3,0-0.6,0-0.9,0h-18.1c-1,0-1.9,0-2.8,0.1c-0.3,0-0.6,0.1-0.9,0.1c-0.7,0.1-1.3,0.2-1.9,0.3
			c-0.6,0.1-1.3,0.3-1.9,0.5c-0.3,0.1-0.6,0.2-0.9,0.3c-1,0.4-1.9,0.8-2.8,1.4c-1.1,0.7-2.3,1.6-3.4,2.6c-0.3,0.3-0.7,0.7-1,1
			c-0.7,0.7-1.4,1.5-1.9,2.2c-0.6,0.7-1.2,1.5-1.7,2.4c-0.2,0.3-0.4,0.6-0.6,0.9c0,0,0,0,0,0c0,0-0.1,0.1-0.1,0.1c0,0,0,0.1-0.1,0.1
			h0l-0.1,0.1c-0.2,0.3-0.4,0.6-0.5,0.9c-0.5,0.9-1,1.8-1.4,2.7l-18.3,42.6c0,0,0,0,0,0.1l-3.9,9.1c-0.7,1.5-1.2,3.2-1.7,4.8
			c-0.1,0.5-0.3,1-0.4,1.7c-0.3,1.1-0.5,2.3-0.6,3.3c-0.1,1.1-0.2,2.1-0.2,3.1c0,0.5,0,1,0.1,1.4c0.1,1.4,0.5,2.5,0.9,3.4
			c0.1,0.2,0.2,0.3,0.3,0.5c0,0,0,0,0,0.1c0,0,0,0,0,0.1l0,0c0,0.1,0.1,0.1,0.1,0.2c0,0.1,0.1,0.1,0.1,0.2c0,0,0.1,0.1,0.1,0.1
			c0,0,0.1,0.1,0.1,0.1c0.1,0.1,0.2,0.1,0.2,0.2c0,0,0,0,0.1,0.1l0.1,0.1c0.1,0.1,0.2,0.2,0.3,0.3c0,0,0,0,0,0c0,0,0,0,0,0
			c0.2,0.1,0.3,0.2,0.5,0.3c0,0,0,0,0,0l0,0c0,0,0,0,0.1,0c0.1,0.1,0.2,0.1,0.3,0.2c0,0,0,0,0,0c0.2,0.1,0.3,0.2,0.5,0.2l0.2,0.1
			c0.1,0.1,0.2,0.1,0.4,0.1c0,0,0.1,0,0.1,0c0,0,0,0,0.1,0c0,0,0,0,0.1,0c0.1,0,0.2,0.1,0.2,0.1c0,0,0,0,0,0c0,0,0,0,0.1,0
			c0,0,0,0,0,0c0,0,0.1,0,0.1,0c0.2,0.1,0.4,0.1,0.7,0.2l0.3,0.1c0.2,0,0.4,0.1,0.7,0.1c0.1,0,0.1,0,0.1,0c0,0,0,0,0.1,0
			c0,0,0,0,0,0l0.1,0c0.3,0,0.6,0.1,0.9,0.1c0,0,0,0,0,0l0.2,0c0.3,0,0.6,0,0.9,0.1c0,0,0,0,0,0c0,0,0.1,0,0.1,0l1.2,0l0.2,0
			c0.3,0,0.6,0,0.8,0h22.3c3.1,0,5.9-0.4,8.5-1.3c0.9-0.3,1.7-0.6,2.5-1c0.2-0.1,0.4-0.2,0.6-0.3c0.2-0.1,0.4-0.2,0.6-0.3
			c0,0,0,0,0,0c0.1,0,0.2-0.1,0.2-0.1c0,0,0,0,0.1,0c0.1,0,0.1-0.1,0.2-0.1c0,0,0,0,0,0c0.2-0.1,0.5-0.3,0.7-0.4
			c0.2-0.1,0.4-0.3,0.6-0.4c0.1-0.1,0.2-0.1,0.2-0.2c0.4-0.3,0.8-0.6,1.2-1c0.3-0.2,0.5-0.5,0.8-0.7c0.1-0.1,0.3-0.3,0.4-0.4
			c1-0.9,1.9-2,2.8-3.2c0.2-0.2,0.3-0.4,0.5-0.7c0-0.1,0.1-0.1,0.1-0.2c0.1-0.2,0.2-0.3,0.3-0.5c0.1-0.2,0.2-0.4,0.3-0.5
			c0.2-0.3,0.3-0.5,0.5-0.7c1.7-2.8,3.1-6.2,4.2-10l15.5-51.8c0.1-0.4,0.2-0.7,0.3-1l0.5-2.3c0-0.1,0-0.2,0.1-0.3c0-0.1,0-0.2,0-0.2
			c0,0,0,0,0,0c0-0.1,0-0.2,0.1-0.4c0-0.2,0.1-0.4,0.1-0.5c0-0.1,0-0.2,0-0.3h0c0,0,0-0.1,0-0.1c0-0.2,0-0.3,0-0.4
			c0-0.1,0-0.2,0-0.4l0-0.4c0-0.1,0-0.2,0-0.3c0-0.2,0-0.3,0-0.4c0-0.1,0-0.2,0-0.3C186.9,31.7,186.9,31.6,186.9,31.5z M171.3,42
			c0,0.1,0,0.2,0,0.2c0,0.1,0,0.1,0,0.2c0,0,0,0,0,0c0,0,0,0,0,0.1c0,0,0,0.1,0,0.1c0,0.1,0,0.2,0,0.3l0,0.3c0,0.2-0.1,0.3-0.1,0.4
			l0,0.1c0,0.1,0,0.1,0,0.2c0,0,0,0,0,0c0,0.1,0,0.2-0.1,0.2c0,0,0,0,0,0.1l0,0.1l0,0.1c0,0,0,0,0,0c0,0,0,0,0,0l0,0.2
			c0,0,0,0,0,0.1l0,0.1c-0.1,0.2-0.2,0.5-0.2,0.8L169,50l-12,35.5c-0.5,1.4-1,2.6-1.6,3.5c-0.2,0.3-0.4,0.6-0.6,0.9
			c-0.4,0.6-0.9,1-1.4,1.4c-0.8,0.6-1.6,0.9-2.6,1.2c-0.8,0.2-1.8,0.3-3,0.3h-4.3h-6.8c0,0-0.1,0-0.1,0c-0.2,0-0.4,0-0.6,0l-0.2,0
			c-0.1,0-0.1,0-0.2,0c0,0,0,0-0.1,0l-0.3,0c-0.1,0-0.1,0-0.2,0c-0.2,0-0.3-0.1-0.5-0.1c0,0,0,0,0,0c0,0,0,0-0.1,0c0,0-0.1,0-0.1,0
			c0,0,0,0,0,0c-0.2,0-0.4-0.1-0.5-0.2c0,0,0,0-0.1,0c0,0,0,0-0.1,0c0,0,0,0-0.1,0c-0.1,0-0.1-0.1-0.2-0.1c-0.1,0-0.2-0.1-0.3-0.2
			c0,0-0.1-0.1-0.1-0.1c-0.1,0-0.1-0.1-0.2-0.1c-0.1,0-0.1-0.1-0.2-0.2c0,0-0.1,0-0.1-0.1c0,0,0,0,0,0c0,0,0,0,0,0c0,0,0,0,0,0
			c0,0-0.1-0.1-0.1-0.1c0,0-0.1-0.1-0.1-0.1c-0.1-0.1-0.1-0.2-0.2-0.2c0,0,0,0-0.1-0.1c0,0,0,0-0.1-0.1c0,0,0,0,0,0
			c0,0-0.1-0.1-0.1-0.1c0,0,0,0,0-0.1c0,0-0.1-0.1-0.1-0.1c0,0,0,0,0,0c0,0,0,0,0,0c0,0,0,0,0,0c0-0.1-0.1-0.1-0.1-0.2c0,0,0,0,0,0
			c0,0,0-0.1,0-0.1c0,0,0,0,0,0c0,0,0-0.1,0-0.1c0-0.1,0-0.2-0.1-0.2c0,0,0,0,0,0v0v0l1.1-0.3l0.2-0.1l-0.2,0.1l-1.1,0.3l0,0l0,0
			c0-0.1,0-0.1,0-0.2c0-0.1,0-0.2-0.1-0.3c0,0,0,0,0,0c0,0,0,0,0,0c0,0,0,0,0,0v0c0,0,0,0,0,0c0-0.1,0-0.2,0-0.3c0,0,0-0.1,0-0.1
			c0,0,0-0.1,0-0.1c0,0,0-0.1,0-0.1c0,0,0-0.1,0-0.1c0,0,0,0,0,0c0,0,0,0,0,0c0-0.2,0-0.4,0.1-0.6c0,0,0,0,0,0c0,0,0,0,0,0
			c0,0,0,0,0-0.1c0-0.1,0-0.2,0-0.3c0-0.1,0-0.3,0.1-0.4l0-0.1c0-0.1,0-0.1,0-0.1c0,0,0,0,0,0l0-0.1c0-0.1,0-0.2,0.1-0.3l0-0.1
			c0-0.1,0-0.2,0.1-0.2c0,0,0,0,0,0c0.1-0.3,0.2-0.5,0.3-0.8c0-0.1,0.1-0.2,0.1-0.2c0.1-0.3,0.2-0.6,0.3-0.9l15.2-39
			c0.5-1.2,1-2.2,1.5-3c0.2-0.3,0.4-0.6,0.6-0.8c0.4-0.5,0.9-1,1.3-1.3c0.5-0.3,1-0.6,1.6-0.8c0.3-0.1,0.6-0.2,0.9-0.3
			c0.8-0.2,1.7-0.3,2.9-0.3h9.8c0.3,0,0.5,0,0.7,0l0.2,0c0.2,0,0.3,0,0.5,0l0.4,0.1c0.1,0,0.2,0,0.2,0c0.1,0,0.1,0,0.2,0l0.1,0
			c0,0,0.1,0,0.1,0l0,0c0,0,0.1,0,0.1,0l0,0l0.1,0c0,0,0,0,0,0c0,0,0,0,0,0c0,0,0,0,0,0c0.1,0,0.2,0.1,0.3,0.1c0,0,0,0,0,0
			c0.1,0,0.2,0.1,0.3,0.1l0.2,0.1c0,0,0.1,0,0.1,0c0.1,0,0.1,0.1,0.2,0.1l0,0c0,0,0.1,0,0.1,0.1c0.1,0.1,0.2,0.1,0.2,0.2
			c0,0,0,0,0,0l0.1,0c0.1,0.1,0.1,0.1,0.2,0.2c0,0,0,0,0,0c0.1,0.1,0.1,0.1,0.2,0.2c0,0,0,0,0.1,0.1c0,0,0.1,0.1,0.1,0.2
			c0,0,0,0.1,0.1,0.1c0,0,0.1,0.1,0.1,0.1c0,0.1,0.1,0.1,0.1,0.2c0,0.1,0.1,0.1,0.1,0.2c0,0,0,0.1,0,0.1c0,0.1,0.1,0.2,0.1,0.3
			c0,0,0,0.1,0,0.1c0,0,0,0.1,0,0.2h0c0,0,0,0.1,0,0.1c0,0.1,0,0.2,0,0.2c0,0,0,0,0,0.1c0,0.1,0,0.2,0,0.3
			C171.3,41.9,171.3,41.9,171.3,42L171.3,42z"/>
		<path class="st1" d="M543.9,69.3C543.9,69.3,543.9,69.3,543.9,69.3c0-0.2,0-0.3,0-0.4c0-0.1,0-0.1,0-0.1c0,0,0-0.1,0-0.1l0-0.1
			c0,0,0-0.1,0-0.1l0-0.3c0,0,0-0.1,0-0.1c0,0,0-0.1,0-0.1h0c0-0.2-0.1-0.4-0.1-0.6l0-0.2c0-0.2-0.1-0.3-0.1-0.5c0,0,0,0,0-0.1
			c0-0.1,0-0.1,0-0.2c-0.1-0.2-0.1-0.4-0.2-0.6c0-0.1,0-0.1-0.1-0.2c-0.1-0.2-0.1-0.5-0.2-0.7c0,0,0-0.1-0.1-0.2
			c-0.1-0.2-0.1-0.4-0.2-0.6l-0.1-0.3c-0.1-0.2-0.2-0.4-0.2-0.6c0-0.1-0.1-0.2-0.1-0.2c-0.1-0.3-0.2-0.5-0.4-0.8l-0.1-0.1
			c-0.1-0.2-0.2-0.5-0.3-0.7l-0.1-0.3c-0.1-0.2-0.2-0.3-0.3-0.5l-0.1-0.2c0,0-0.1-0.1-0.1-0.1l-0.1-0.1c0,0,0,0,0,0
			c-0.2-0.3-0.3-0.6-0.5-0.9L528,39c-1.4-2.3-3-4.5-4.9-6.3c-0.6-0.6-1.2-1.2-1.9-1.7c-1.3-1.1-2.6-2-3.9-2.9
			c-1.3-0.8-2.7-1.5-4.1-2.1c-0.7-0.3-1.4-0.5-2.1-0.7c-2.1-0.6-4.2-0.9-6.3-0.9h-33.4l41.2,88.9h16l-14.1-27.9c0,0,0,0,0,0
			l-3.9-7.8c-0.2-0.4-0.2-0.9,0.1-1.3c0.2-0.3,0.5-0.5,0.8-0.6c0.1,0,0.2,0,0.3,0h24.4c0.3,0,0.5,0,0.8,0c0,0,0,0,0.1,0l0.2,0
			c0.1,0,0.2,0,0.3,0c0.1,0,0.1,0,0.2,0c0,0,0,0,0,0c0.1,0,0.2,0,0.2,0c0,0,0,0,0.1,0c0.1,0,0.2,0,0.3,0c0,0,0,0,0.1,0
			c0,0,0.1,0,0.1,0l0.1,0c0,0,0.1,0,0.2,0c0,0,0.1,0,0.1,0l0,0l0,0l0,0l0.1,0c0.1,0,0.1,0,0.1,0c0,0,0.1,0,0.1,0c0,0,0,0,0.1,0
			c0.1,0,0.2-0.1,0.3-0.1c0.1,0,0.1,0,0.2-0.1c0,0,0,0,0,0c0.1,0,0.2-0.1,0.3-0.1c0,0,0,0,0,0c0,0,0,0,0,0c0.1,0,0.1,0,0.2-0.1
			c0.1,0,0.2-0.1,0.3-0.1l0.2-0.1c0.1,0,0.2-0.1,0.3-0.1c0,0,0.1,0,0.1,0c0.2-0.1,0.3-0.2,0.4-0.3c0,0,0.1,0,0.1-0.1
			c0.1-0.1,0.2-0.1,0.3-0.2l0.1,0c0,0,0,0,0,0l0.1-0.1c0,0,0.1-0.1,0.1-0.1l0.1-0.1c0.1-0.1,0.1-0.2,0.2-0.3c0,0,0,0,0.1-0.1l0,0
			c0.1-0.1,0.1-0.2,0.2-0.3c0,0,0.1-0.1,0.1-0.1c0-0.1,0.1-0.2,0.1-0.2c0,0,0-0.1,0.1-0.1c0-0.1,0.1-0.2,0.1-0.3c0,0,0-0.1,0-0.1
			c0.1-0.1,0.1-0.3,0.1-0.4c0,0,0-0.1,0-0.1c0-0.1,0.1-0.2,0.1-0.3c0-0.1,0-0.1,0-0.2c0-0.1,0-0.2,0-0.3l0-0.1c0,0,0-0.1,0-0.1
			c0,0,0,0,0,0c0-0.2,0-0.3,0-0.5c0,0,0,0,0,0c0,0,0-0.1,0-0.1c0-0.1,0-0.3,0-0.4C543.9,69.4,543.9,69.4,543.9,69.3z M523.4,55.3
			c0,0,0,0.1,0,0.1c0,0,0,0,0,0.1c0,0.1,0,0.1,0,0.1c0,0.1,0,0.2-0.1,0.3l0,0c0,0,0,0.1,0,0.1c0,0,0,0,0,0c0,0,0,0,0,0.1
			c0,0,0,0.1,0,0.1c0,0.1-0.1,0.2-0.1,0.2c0,0,0,0,0,0.1c0,0,0,0.1-0.1,0.1c0,0,0,0,0,0.1c0,0,0,0.1-0.1,0.1c0,0,0,0,0,0.1
			c0,0-0.1,0.1-0.1,0.1c0,0,0,0,0,0c0,0,0,0,0,0c0,0.1-0.1,0.1-0.2,0.2c0,0-0.1,0.1-0.2,0.1c-0.1,0-0.1,0.1-0.2,0.1c0,0,0,0,0,0
			c0,0,0,0,0,0c0,0,0,0-0.1,0c0,0,0,0,0,0c-0.1,0-0.1,0.1-0.2,0.1c-0.1,0-0.2,0.1-0.3,0.1c0,0,0,0,0,0c0,0,0,0,0,0c0,0-0.1,0-0.1,0
			c-0.1,0-0.1,0.1-0.2,0.1c0,0,0,0-0.1,0c0,0,0,0,0.1,0c0,0-0.1,0-0.1,0c0,0,0,0,0,0l0,0c0,0,0,0,0,0l-0.2,0c-0.1,0-0.2,0-0.3,0.1
			c0,0,0,0-0.1,0c0,0-0.1,0-0.1,0c0,0,0,0,0,0l0,0c-0.1,0-0.1,0-0.2,0c0,0-0.1,0-0.1,0v0l-0.1,0c0,0-0.1,0-0.1,0c0,0,0,0,0,0
			c0,0,0,0-0.1,0c-0.1,0-0.2,0-0.3,0c0,0-0.1,0-0.1,0l-0.1,0c0,0-0.1,0-0.1,0c-0.1,0-0.1,0-0.2,0l-0.1,0c0,0,0,0,0,0h-0.2
			c-0.2,0-0.4,0-0.6,0h-13.4h-2.8c-0.5,0-1-0.3-1.2-0.7l-8.6-17.1c-0.2-0.4-0.2-0.9,0.1-1.3c0.2-0.4,0.7-0.6,1.1-0.6l15.9-0.1h0
			c0.1,0,0.3,0,0.4,0c0.3,0,0.6,0,0.9,0.1c0.5,0,0.9,0.1,1.4,0.2c0.3,0.1,0.5,0.1,0.8,0.2c0.6,0.2,1.1,0.4,1.6,0.7
			c0.5,0.3,1,0.7,1.5,1.1c0.2,0.2,0.4,0.4,0.7,0.7c0.7,0.8,1.3,1.6,1.9,2.6l4.2,7.5c0.1,0.2,0.2,0.3,0.3,0.5l0.2,0.4
			c0,0,0.1,0.1,0.1,0.2c0,0,0,0.1,0.1,0.1c0,0,0,0.1,0.1,0.1l0,0.1c0,0,0,0,0,0c0,0,0,0,0,0.1l0.1,0.2c0,0,0,0,0,0
			c0,0.1,0,0.1,0.1,0.2c0,0,0,0,0,0c0,0.1,0.1,0.1,0.1,0.2c0,0.1,0,0.1,0.1,0.2c0,0,0,0,0,0c0,0,0,0,0,0c0,0,0,0.1,0,0.1
			c0,0.1,0,0.1,0,0.2c0,0,0,0.1,0,0.1c0,0,0,0,0,0c0,0,0,0,0,0c0,0,0,0.1,0,0.1c0,0,0,0,0,0.1c0,0,0,0,0,0c0,0,0,0,0,0c0,0,0,0,0,0
			c0,0,0,0,0,0c0,0,0,0.1,0,0.1c0,0,0,0,0,0.1l0,0.1c0,0,0,0.1,0,0.1c0,0.1,0,0.3,0,0.4C523.4,55.2,523.4,55.3,523.4,55.3z"/>
		<path class="st1" d="M262.3,24.4l-16.7,58.2c-0.2,0.6-0.8,1-1.5,0.9c-0.7-0.1-1.1-0.7-1.1-1.3l1.2-48.3c0,0,0-0.1,0-0.1
			c0-0.3,0-0.5,0-0.8c0-0.1,0-0.1,0-0.2c0-0.1,0-0.1,0-0.2l0-0.2c0-0.2,0-0.4,0-0.6c0-0.1,0-0.2,0-0.2c0-0.1,0-0.1,0-0.2
			c0-0.2-0.1-0.4-0.1-0.6c0,0,0,0,0,0c0-0.1,0-0.2-0.1-0.2l-0.1-0.5c0,0,0,0,0-0.1c0-0.1,0-0.1-0.1-0.2c0,0,0,0,0-0.1l0-0.1
			c0-0.1,0-0.1,0-0.1l0,0c0,0,0-0.1,0-0.1c0,0,0,0,0,0l0-0.1c0-0.1-0.1-0.2-0.1-0.3c0,0,0,0,0-0.1l0-0.1c0,0,0,0,0-0.1
			c0,0,0-0.1,0-0.1c-0.1-0.2-0.1-0.4-0.2-0.5l-0.1-0.3c-0.1-0.2-0.2-0.3-0.3-0.5c0,0,0-0.1,0-0.1c0,0,0-0.1-0.1-0.1
			c-0.2-0.3-0.3-0.5-0.4-0.6c-0.1-0.1-0.2-0.3-0.3-0.4c0,0-0.1-0.1-0.1-0.1c-0.1-0.1-0.2-0.2-0.3-0.3c0,0,0,0-0.1-0.1l-0.1-0.1
			c-0.1-0.1-0.2-0.2-0.4-0.3c0,0,0,0,0,0c0,0,0,0,0,0c-0.1-0.1-0.2-0.2-0.3-0.2c0,0,0,0,0,0l-0.1,0c0,0,0,0-0.1,0
			c-0.2-0.1-0.3-0.2-0.5-0.3c0,0-0.1,0-0.1,0c-0.1-0.1-0.3-0.1-0.4-0.2l-0.1,0c-0.2-0.1-0.4-0.2-0.6-0.2c0,0-0.1,0-0.1,0
			c-0.1,0-0.3-0.1-0.5-0.1c0,0-0.1,0-0.1,0l0,0c-0.3-0.1-0.5-0.1-0.6-0.1c0,0,0,0,0,0c0,0,0,0,0,0c-0.2,0-0.4,0-0.6-0.1l-0.2,0
			c-0.2,0-0.5,0-0.7,0c-1.5,0-3,0.3-4.3,0.8c-0.4,0.1-0.8,0.3-1.3,0.6c-0.9,0.5-1.6,1-2.3,1.6c-0.7,0.6-1.4,1.4-2,2.2
			c-0.4,0.5-0.6,0.9-0.9,1.3c-0.9,1.4-1.6,2.9-2.1,4.6l-15.7,48c0,0.1-0.1,0.1-0.1,0.2c0,0,0,0,0,0.1c0,0-0.1,0.1-0.1,0.1
			c0,0,0,0-0.1,0.1c0,0-0.1,0.1-0.1,0.1c0,0,0,0-0.1,0.1c0,0-0.1,0.1-0.1,0.1c0,0,0,0-0.1,0c0,0-0.1,0-0.1,0.1c0,0,0,0-0.1,0
			c-0.1,0-0.1,0-0.2,0c0,0,0,0,0,0c-0.1,0-0.1,0-0.2,0c0,0,0,0,0,0c-0.1,0-0.2,0-0.2,0c-0.7-0.1-1.1-0.7-1.1-1.4l3.8-57.7h-12.2
			l-1.4,12.9l-0.3,2.9l-1,9.6l-0.8,7.3l-4.6,43.6c0,0.3-0.1,0.6-0.1,0.9l0,0.1c0,0.1,0,0.1,0,0.2c0,0.2,0,0.4,0,0.6
			c0,0.1,0,0.2,0,0.3c0,0.2,0,0.4,0,0.7c0,0,0,0,0,0.1v0.2c0,0.3,0,0.6,0,0.8l0,0.1c0,0,0,0.1,0,0.1c0,0.2,0,0.4,0.1,0.6
			c0,0,0,0,0,0.1c0,0.1,0,0.1,0,0.2c0,0.2,0.1,0.4,0.1,0.6c0,0.1,0,0.2,0,0.2c0,0.3,0.1,0.5,0.2,0.7c0,0,0,0,0,0c0,0,0,0,0,0.1
			c0.1,0.2,0.1,0.5,0.2,0.7l0.1,0.2c0,0,0,0,0,0.1l0.1,0.2c0,0.1,0.1,0.2,0.1,0.2l0.1,0.2c0.1,0.2,0.1,0.3,0.2,0.5l0.1,0.2
			c0.1,0.2,0.2,0.4,0.3,0.6c0,0,0.1,0.1,0.1,0.1c0.1,0.1,0.2,0.3,0.3,0.4c0,0.1,0.1,0.1,0.1,0.1l0,0.1c0.1,0.1,0.2,0.3,0.2,0.4
			c0,0,0.1,0.1,0.1,0.1l0,0.1c0.1,0.1,0.2,0.3,0.3,0.4l0,0c0,0,0,0,0,0c0.1,0.2,0.3,0.3,0.4,0.5l0.1,0.1c0.1,0.1,0.2,0.2,0.3,0.3
			c0,0,0.1,0.1,0.1,0.1c0,0,0,0,0,0c0.1,0.1,0.3,0.2,0.5,0.4c0,0,0,0,0,0c0,0,0,0,0.1,0c0.2,0.1,0.3,0.2,0.5,0.3c0,0,0,0,0.1,0l0,0
			c0,0,0,0,0.1,0c0.2,0.1,0.3,0.2,0.5,0.3l0,0c0,0,0,0,0,0c0,0,0,0,0.1,0c0.2,0.1,0.4,0.2,0.6,0.3c0,0,0,0,0.1,0c0,0,0.1,0,0.1,0
			c0,0,0,0,0,0c0.2,0.1,0.3,0.1,0.5,0.2c0,0,0,0,0,0l0.1,0c0,0,0.1,0,0.1,0c0.2,0.1,0.5,0.1,0.7,0.2c0,0,0,0,0,0c0,0,0,0,0,0l0,0
			c0,0,0,0,0.1,0c0.2,0,0.4,0.1,0.6,0.1l0.2,0c0.2,0,0.5,0,0.7,0c1.7,0,3.4-0.3,5.1-1.1c1.7-0.7,3.3-1.8,4.8-3.1
			c0.6-0.5,1.1-1.1,1.6-1.6c0.2-0.2,0.3-0.4,0.5-0.6c0.2-0.3,0.4-0.5,0.7-0.8c0.4-0.6,0.8-1.2,1.2-1.8c0.7-1.2,1.4-2.4,1.9-3.7
			c0.3-0.8,0.6-1.6,0.8-2.4l15.7-55.5c0.2-0.6,0.8-1,1.4-1c0,0,0,0,0.1,0c0,0,0,0,0.1,0c0.6,0.1,1.1,0.7,1,1.4l-2.8,55.5
			c0,0.1,0,0.2,0,0.3c0,0,0,0.1,0,0.1l0,0.4l0,0.2c0,0.2,0,0.4,0,0.5l0,0.3c0,0,0,0,0,0c0,0.1,0,0.3,0,0.4l0,0.3c0,0.2,0,0.3,0,0.4
			c0,0.1,0,0.2,0,0.3l0,0.2c0,0.1,0,0.2,0,0.2c0,0.1,0,0.2,0,0.3c0,0,0,0,0,0c0,0.1,0,0.2,0.1,0.3c0,0.1,0,0.2,0.1,0.3l0.1,0.4
			c0,0.1,0,0.1,0.1,0.2l0.1,0.3c0,0.2,0.1,0.3,0.1,0.5l0,0c0.1,0.2,0.1,0.3,0.2,0.5l0,0.1c0,0,0,0.1,0,0.1c0,0.1,0.1,0.3,0.1,0.4
			l0.1,0.2c0,0.1,0.1,0.1,0.1,0.2c0,0.1,0,0.1,0.1,0.1c0,0,0,0.1,0,0.1l0,0.1c0.1,0.3,0.3,0.7,0.5,1c0,0,0,0,0,0.1l0,0
			c0.2,0.3,0.4,0.6,0.6,0.9c0,0,0,0,0,0c0,0,0,0,0,0c0.1,0.1,0.2,0.3,0.3,0.4c0,0,0.1,0.1,0.1,0.1c0.1,0.2,0.2,0.3,0.4,0.5
			c0,0,0.1,0.1,0.1,0.1c0,0,0,0,0,0c0.1,0.1,0.2,0.2,0.3,0.3c0,0,0.1,0.1,0.1,0.1c0,0,0,0,0.1,0.1c0.1,0.1,0.1,0.2,0.2,0.2
			c0,0,0,0,0,0c0,0,0,0,0,0c0,0,0,0,0.1,0.1c0,0,0.1,0,0.1,0.1c0,0,0,0,0,0c0.1,0.1,0.1,0.1,0.2,0.2c0,0,0.1,0.1,0.1,0.1l0.1,0.1
			l0.1,0.1c0.1,0,0.1,0.1,0.2,0.1c0.1,0,0.1,0.1,0.2,0.1c0.1,0.1,0.2,0.1,0.3,0.2c0,0,0,0,0,0c0.1,0,0.1,0.1,0.2,0.1
			c0.1,0,0.1,0.1,0.2,0.1c0,0,0.1,0.1,0.1,0.1c0.1,0.1,0.2,0.1,0.2,0.1c0,0,0,0,0,0c0,0,0,0,0,0c0.1,0,0.1,0.1,0.1,0.1l0,0
			c0,0,0.1,0,0.1,0c0.1,0,0.2,0.1,0.2,0.1c0,0,0,0,0.1,0c0.1,0,0.2,0.1,0.2,0.1c0,0,0,0,0,0c0.1,0,0.2,0.1,0.2,0.1
			c0.1,0,0.2,0.1,0.3,0.1l0.1,0c0,0,0.1,0,0.1,0c0,0,0,0,0.1,0c0.1,0,0.2,0.1,0.3,0.1c0,0,0,0,0,0l0.1,0c0,0,0.1,0,0.1,0
			c0,0,0.1,0,0.1,0c0.1,0,0.2,0,0.3,0.1l0.1,0c0.1,0,0.1,0,0.2,0c0.1,0,0.2,0,0.4,0.1l0.1,0c0,0,0.1,0,0.1,0c0,0,0,0,0.1,0
			c0.1,0,0.2,0,0.3,0l0.1,0c0,0,0,0,0,0c0.1,0,0.1,0,0.2,0c0.2,0,0.4,0,0.7,0c1.7,0,3.3-0.4,4.9-1.1c0.5-0.2,1-0.5,1.5-0.8
			c1-0.6,2-1.4,2.9-2.3c0.2-0.2,0.4-0.5,0.7-0.7c0.7-0.7,1.3-1.5,1.8-2.3c0.4-0.6,0.7-1.1,1.1-1.7c1-1.9,1.8-3.9,2.3-6l18.6-75.8
			H262.3z"/>
		<path class="st1" d="M492.3,98.6c-0.2-0.9-0.6-1.9-1-3.1c-0.2-0.5-0.4-1.1-0.6-1.7c-0.7-1.7-1.4-3.4-2.3-5.3l-0.1-0.2l-28.1-63.9
			h-12.4L471.8,84c0,0,0,0,0,0.1l0.2,0.6c0,0,0,0,0,0c0,0,0,0,0,0l0.1,0.2c0,0.1,0.1,0.2,0.1,0.4l0.1,0.2c0,0,0,0,0,0.1l0,0.1
			c0,0.1,0.1,0.2,0.1,0.3c0,0,0,0,0,0.1c0,0,0,0,0,0.1c0,0,0,0,0,0c0,0,0,0,0,0.1l0.1,0.3l0.1,0.3c0,0,0,0,0,0c0,0,0,0,0,0
			c0,0,0,0,0,0.1c0,0.1,0.1,0.2,0.1,0.3l0,0l0,0c0,0.1,0,0.2,0.1,0.2l0.1,0.4c0,0,0,0,0,0c0,0,0,0.1,0,0.1c0,0,0,0.1,0,0.1
			c0,0.2,0,0.3,0.1,0.5c0,0,0,0,0,0.1c0,0,0,0,0,0c0,0,0,0,0,0c0,0.1,0,0.1,0,0.2c0,0.1,0,0.1,0,0.2c0,0.1,0,0.2,0,0.2v0.1
			c0,0.1,0,0.1,0,0.2c0,0,0,0.1,0,0.1c0,0.2,0,0.4-0.1,0.6c0,0,0,0.1,0,0.1c0,0,0,0,0,0c0,0,0,0,0,0c0,0,0,0,0,0
			c0,0.1-0.1,0.2-0.1,0.3c0,0,0,0.1,0,0.1l0,0.1l0,0c0,0,0,0.1,0,0.1c0,0,0,0,0,0.1c-0.1,0.2-0.2,0.4-0.4,0.5l0,0
			c0,0-0.1,0.1-0.1,0.1l0,0c-0.1,0-0.1,0.1-0.1,0.1c-0.1,0.1-0.2,0.1-0.3,0.2c0,0-0.1,0-0.1,0.1c0,0,0,0,0,0c0,0-0.1,0-0.1,0.1
			c0,0,0,0-0.1,0l0,0l0,0v0c0,0-0.1,0.1-0.1,0.1c0,0,0,0,0,0c0,0,0,0,0,0c-0.1,0-0.2,0.1-0.2,0.1c0,0,0,0,0,0l0,0c0,0,0,0,0,0
			c0,0-0.1,0-0.1,0c0,0-0.1,0-0.1,0c-0.1,0-0.2,0.1-0.2,0.1c0,0,0,0-0.1,0c0,0-0.1,0-0.1,0c0,0,0,0,0,0c-0.1,0-0.1,0-0.2,0.1
			c0,0,0,0,0,0c-0.2,0-0.3,0.1-0.5,0.1c0,0-0.1,0-0.1,0c0,0,0,0,0,0c0,0,0,0,0,0c-0.2,0-0.4,0.1-0.6,0.1l-0.3,0c-0.1,0-0.1,0-0.2,0
			l-0.2,0c0,0,0,0-0.1,0l-0.1,0c0,0,0,0,0,0c0,0,0,0,0,0l0,0c0,0,0,0,0,0c0,0-0.1,0-0.1,0h-0.2h-0.1c-0.1,0-0.2,0-0.4,0h-8H455
			c-1.5,0-2.6-0.1-3.6-0.3c-1.1-0.2-2-0.7-2.8-1.3c-0.7-0.6-1.4-1.5-2-2.6c-0.5-1-1-2.2-1.6-3.9l-20.8-60.2h-12.6h0l2.8,9.1
			L431,87.5c0.3,0.9,0.5,1.7,0.8,2.5c0.3,1,0.6,2,0.9,2.9c0.1,0.2,0.1,0.3,0.2,0.4c0.2,0.4,0.3,0.8,0.4,1.2c0.4,1.1,0.9,2.1,1.3,3.1
			c0.5,1,1.1,2,1.7,2.9c0.3,0.5,0.7,1,1,1.5c1.1,1.5,2.4,3,4,4.5c1.5,1.4,2.9,2.6,4.2,3.5c0.4,0.3,0.9,0.6,1.3,0.8
			c0.8,0.5,1.7,0.9,2.5,1.2c0.8,0.3,1.6,0.5,2.5,0.7c0.4,0.1,0.9,0.2,1.3,0.2c1.2,0.2,2.6,0.2,4.2,0.2h24.4c0.4,0,0.7,0,1.1,0l0.3,0
			c0.2,0,0.4,0,0.6,0c0,0,0.1,0,0.1,0c0,0,0,0,0,0c0.1,0,0.2,0,0.3,0c0.2,0,0.4,0,0.5,0c0.1,0,0.2,0,0.3,0c0.2,0,0.4,0,0.5-0.1
			l0.3-0.1l0,0c0,0,0,0,0,0c0.1,0,0.3-0.1,0.4-0.1c0.1,0,0.2,0,0.3-0.1c0.1,0,0.1,0,0.2,0c0.1,0,0.1,0,0.2-0.1c0,0,0.1,0,0.1,0
			c0.1,0,0.2,0,0.2-0.1c0,0,0,0,0,0c0.2,0,0.3-0.1,0.4-0.1l0.1,0c0.1,0,0.1,0,0.2-0.1c0.1-0.1,0.2-0.1,0.3-0.1
			c0.1-0.1,0.2-0.1,0.4-0.2c0.1-0.1,0.2-0.1,0.3-0.2c0.1-0.1,0.2-0.1,0.3-0.2c0.1-0.1,0.2-0.2,0.3-0.3c0,0,0,0,0,0c0,0,0,0,0,0
			c0.1,0,0.1-0.1,0.2-0.1c0.1-0.1,0.1-0.1,0.1-0.1c0,0,0.1-0.1,0.1-0.1c0,0,0.1-0.1,0.1-0.1l0,0c0,0,0.1-0.1,0.1-0.1c0,0,0,0,0-0.1
			c0,0,0,0,0-0.1c0-0.1,0.1-0.1,0.1-0.2c0,0,0-0.1,0.1-0.1l0,0c0-0.1,0.1-0.1,0.1-0.1c0-0.1,0.1-0.1,0.1-0.2l0-0.1
			c0,0,0-0.1,0.1-0.1l0,0c0,0,0.1-0.1,0.1-0.1l0.1-0.1c0,0,0-0.1,0-0.1c0-0.1,0.1-0.1,0.1-0.2c0,0,0-0.1,0.1-0.1l0,0c0,0,0,0,0-0.1
			c0-0.1,0.1-0.1,0.1-0.2c0,0,0-0.1,0-0.1c0,0,0-0.1,0-0.1c0,0,0,0,0-0.1c0,0,0-0.1,0-0.1c0,0,0,0,0-0.1l0.1-0.3c0,0,0,0,0,0
			c0-0.1,0-0.1,0.1-0.1l0.1-0.3c0.1-0.2,0.1-0.3,0.2-0.5c0.4-1.4,0.6-2.8,0.6-4.3c0-0.4,0-0.9-0.1-1.4
			C492.8,100.5,492.6,99.6,492.3,98.6z"/>
		<path class="st1" d="M297.9,92.7c-1.2,0-2.3,0-3.3-0.1c-1.2-0.2-2.1-0.5-2.9-1c-0.9-0.6-1.5-1.5-1.9-2.8c-0.3-1-0.5-2.3-0.5-3.8
			l0-0.1c0,0,0-0.1,0-0.2l0.2-11.1c0-0.1,0-0.1,0-0.2c0,0,0,0,0-0.1c0-0.1,0-0.2,0.1-0.2c0,0,0,0,0,0c0-0.1,0.1-0.1,0.1-0.2
			c0,0,0,0,0,0c0.1-0.1,0.2-0.2,0.3-0.3c0,0,0,0,0,0c0,0,0.1,0,0.1-0.1c0,0,0.1,0,0.1-0.1c0.2-0.1,0.3-0.1,0.5-0.1h33.7l-1.1-16.9
			h-32.3h0h0c-0.4,0-0.7-0.1-0.9-0.4c-0.2-0.3-0.4-0.6-0.4-1l0.1-9.2c0-0.7,0.1-1.4,0.3-2.1c0.1-0.2,0.1-0.4,0.2-0.7
			c0.2-0.5,0.4-1,0.6-1.4c0.3-0.4,0.6-0.8,0.9-1.2c0.2-0.2,0.4-0.4,0.6-0.5c0.7-0.5,1.5-0.7,2.4-0.7h27.3l-0.9-14h-30.3
			c-2.2,0-4.2,0.4-5.9,1.1c-0.5,0.2-1.1,0.5-1.6,0.8c-1,0.6-1.9,1.3-2.7,2.2c-0.8,0.9-1.5,1.9-2.1,3c-0.2,0.3-0.3,0.6-0.4,0.9
			c-0.1,0.3-0.2,0.6-0.4,0.9c-0.7,1.9-1.1,4.2-1.3,6.6l-0.1,1.8l-2.7,50.5c0,0.6,0,1.1-0.1,1.7c0,0.2,0,0.3,0,0.5c0,0.4,0,0.8,0,1.2
			c0,0.2,0,0.3,0,0.5c0,0.5,0.1,0.9,0.1,1.3l0,0.2c0,0.4,0.1,0.9,0.2,1.4c0,0,0,0.1,0,0.1c0,0.1,0,0.1,0,0.2c0,0,0,0,0,0
			c0,0,0,0,0,0.1c0,0,0,0,0,0l0.1,0.7c0.1,0.3,0.1,0.7,0.2,1l0,0.1c0,0.1,0,0.1,0,0.2c0.1,0.2,0.1,0.5,0.2,0.7c0,0,0,0.1,0,0.1
			c0,0,0,0,0,0.1l0.1,0.3c0.1,0.2,0.1,0.3,0.2,0.5c0,0.1,0.1,0.2,0.1,0.3c0.1,0.2,0.1,0.4,0.2,0.6c0,0.1,0.1,0.2,0.1,0.3
			c0.1,0.2,0.2,0.4,0.3,0.6c0,0,0,0,0,0l0,0.1c0,0,0,0.1,0.1,0.1c0.1,0.2,0.2,0.5,0.4,0.7c0,0,0,0,0,0l0,0c0,0.1,0.1,0.1,0.1,0.2
			c0.1,0.2,0.2,0.4,0.4,0.6c0,0,0,0.1,0.1,0.1l0.1,0.1c0.1,0.2,0.2,0.3,0.3,0.5c0,0.1,0.1,0.1,0.1,0.1l0.1,0.1
			c0.1,0.1,0.2,0.3,0.3,0.4c0,0,0,0,0,0c0.1,0.1,0.1,0.1,0.2,0.2c0.1,0.2,0.3,0.3,0.4,0.4l0.1,0.1c0,0,0,0,0,0c0,0,0,0,0,0l0,0
			c0.2,0.2,0.4,0.4,0.6,0.6l0.1,0.1c0.2,0.2,0.3,0.3,0.5,0.4c0.1,0.1,0.2,0.1,0.2,0.2c0.1,0.1,0.3,0.2,0.4,0.3c0,0,0,0,0,0
			c0.1,0.1,0.1,0.1,0.2,0.1c0.1,0.1,0.3,0.2,0.4,0.3l0,0l0.1,0c0.1,0,0.1,0.1,0.2,0.1c0.1,0.1,0.2,0.1,0.3,0.1
			c0.1,0,0.2,0.1,0.2,0.1c0,0,0.1,0,0.1,0.1c0,0,0,0,0,0l0.3,0.2c0.2,0.1,0.3,0.2,0.5,0.2l0.1,0c0.3,0.1,0.5,0.2,0.7,0.3
			c0.1,0,0.1,0,0.1,0.1c0,0,0.1,0,0.1,0c0.2,0.1,0.4,0.1,0.5,0.2c0,0,0,0,0,0l0.2,0.1c0.1,0,0.1,0,0.2,0.1c0.2,0.1,0.3,0.1,0.5,0.2
			l0.7,0.2c0,0,0,0,0,0c0.1,0,0.2,0,0.2,0.1l0.2,0.1c0.1,0,0.3,0.1,0.4,0.1c0.1,0,0.3,0.1,0.4,0.1c0,0,0.1,0,0.1,0c0,0,0,0,0,0
			c0,0,0,0,0,0c0.3,0.1,0.6,0.1,0.8,0.1l0.6,0.1c0.1,0,0.2,0,0.4,0l1.4,0.1c0.2,0,0.4,0,0.7,0l0.3,0c0.3,0,0.7,0,1,0h35L326,92.7
			H297.9z"/>
		<path class="st1" d="M371.7,73.5c0-0.1,0-0.2,0-0.3c0-0.1,0.1-0.2,0.1-0.3c0.2-0.4,0.7-0.7,1.2-0.7c0.3,0,0.6,0,0.9,0l0.9,0.1
			c0.2,0,0.4,0,0.5,0c0,0,0,0,0.1,0c0.1,0,0.2,0,0.2,0c0.5,0,1,0,1.6,0c0,0,0,0,0.1,0l0.1,0c0.1,0,0.1,0,0.2,0l0,0
			c0.1,0,0.3,0,0.4,0l0.8-0.1c0,0,0.1,0,0.1,0l0,0l0.4-0.1c0,0,0.1,0,0.1,0c0.1,0,0.1,0,0.2,0c0.1,0,0.1,0,0.2-0.1
			c0.1,0,0.1,0,0.2-0.1c0.1,0,0.2,0,0.2-0.1c0.1,0,0.2-0.1,0.4-0.1c0,0,0,0,0,0c0.1,0,0.1,0,0.1-0.1c0,0,0,0,0,0l0.1,0
			c0.1,0,0.1-0.1,0.2-0.1l0.3-0.1c0,0,0.1,0,0.1-0.1c0,0,0,0,0.1,0l0,0l0,0c0,0,0.1,0,0.1-0.1c0,0,0.1,0,0.1-0.1c0,0,0,0,0.1,0
			l0.1,0c0,0,0,0,0,0c0.2-0.1,0.3-0.2,0.5-0.3l0.2-0.1c0,0,0.1-0.1,0.1-0.1c0.1,0,0.1-0.1,0.2-0.1c0.1-0.1,0.1-0.1,0.2-0.1l0.1-0.1
			c0,0,0,0,0,0c0,0,0,0,0,0c0,0,0,0,0,0c0,0,0,0,0,0c0,0,0.1-0.1,0.1-0.1c0,0,0.1-0.1,0.1-0.1c0,0,0,0,0,0c0.1-0.1,0.2-0.1,0.2-0.2
			l0.6-0.6c0.1-0.1,0.1-0.1,0.2-0.2c0,0,0,0,0,0c0,0,0.1-0.1,0.1-0.1l0.1-0.1c0-0.1,0.1-0.1,0.1-0.2c0,0,0.1-0.1,0.1-0.2l0.1-0.1
			c0,0,0.1-0.1,0.1-0.1l0.1-0.1c0.1-0.1,0.1-0.2,0.2-0.3c0-0.1,0.1-0.1,0.1-0.2l0.1-0.1c0.1-0.1,0.1-0.2,0.2-0.4l0.1-0.3
			c0-0.1,0.1-0.2,0.2-0.4l0.1-0.3c0-0.1,0.1-0.3,0.1-0.4l0-0.1c0,0,0-0.1,0-0.1c0.1-0.2,0.1-0.4,0.2-0.6l0-0.1c0,0,0,0,0-0.1
			c0-0.1,0-0.1,0-0.2c0,0,0,0,0-0.1c0-0.2,0.1-0.3,0.1-0.5l0-0.1c0,0,0,0,0-0.1c0-0.2,0.1-0.4,0.1-0.5c0,0,0,0,0-0.1
			c0,0,0-0.1,0-0.1c0-0.1,0-0.1,0-0.2c0-0.2,0-0.3,0-0.5c0,0,0,0,0-0.1c0-0.1,0-0.1,0-0.2l0-0.1c0-0.2,0-0.3,0-0.5c0,0,0,0,0-0.1
			c0-0.1,0-0.1,0-0.2l0-0.1c0-0.2,0-0.3,0-0.5c0-0.1,0-0.2,0-0.3c0-0.2,0-0.3,0-0.5l0-0.4c0-0.2,0-0.3,0-0.5l0-0.1
			c0-0.1,0-0.1,0-0.2c0,0,0,0,0-0.1c0-0.2,0-0.3-0.1-0.5l-0.1-0.5c0-0.2-0.1-0.4-0.1-0.5l-0.1-0.3c-0.1-0.3-0.1-0.6-0.2-0.9
			l-3.8-16.7c-0.5-2.4-1.3-4.5-2.4-6.3c-0.3-0.6-0.7-1.2-1.1-1.7c-0.8-1.1-1.7-2-2.6-2.8c-0.9-0.8-2-1.5-3.1-2
			c-0.6-0.3-1.1-0.5-1.7-0.7c-1.8-0.6-3.8-0.9-5.9-0.9H330l8.1,88.9h16.1l-3.5-26.6l-2.3-17.5c0,0,0,0,0-0.1l0-0.3l-2.5-19.1
			l-1.3-9.9c0-0.4,0.1-0.8,0.3-1c0.3-0.3,0.6-0.5,1-0.5h17.4c0.9,0,1.7,0.1,2.4,0.3c0.3,0.1,0.5,0.2,0.8,0.3c0.5,0.2,1,0.5,1.4,0.8
			c0.4,0.3,0.8,0.7,1.2,1.2c0.2,0.2,0.3,0.5,0.5,0.7c0.4,0.8,0.8,1.7,0.9,2.6L372,52c0,0.2,0.1,0.4,0.1,0.7c0,0.1,0,0.1,0,0.2
			c0,0.1,0,0.3,0,0.4c0,0.1,0,0.2,0,0.2c0,0.1,0,0.3,0,0.4c0,0,0,0.1,0,0.1l0,0.1c0,0,0,0.1,0,0.1v0.1c0,0.1,0,0.1,0,0.2
			c0,0,0,0,0,0c0,0,0,0,0,0c0,0,0,0,0,0c0,0,0,0.1,0,0.1c0,0,0,0.1,0,0.1c0,0.1,0,0.2,0,0.2c0,0,0,0,0,0c0,0,0,0,0,0.1l0,0
			c0,0,0,0.1,0,0.1c0,0,0,0,0,0c0,0,0,0,0,0c0,0.1,0,0.1,0,0.2c0,0,0,0.1,0,0.1c0,0,0,0,0,0c0,0,0,0,0,0c0,0.1,0,0.1-0.1,0.2
			c0,0.1-0.1,0.2-0.1,0.3l0,0l-1-0.4l-0.2-0.1l0.2,0.1l0.6,0.3l0.4,0.1c0,0,0,0,0,0l0,0l0,0c0,0,0,0,0,0c0,0,0,0,0,0.1c0,0,0,0,0,0
			c0,0,0,0,0,0.1c0,0,0,0.1-0.1,0.1c0,0.1-0.1,0.1-0.1,0.1c0,0,0,0,0,0.1c0,0,0,0,0,0.1c0,0-0.1,0.1-0.1,0.1c0,0,0,0,0,0
			c0,0,0,0,0,0c0,0.1-0.1,0.1-0.1,0.2l0,0c0,0.1-0.1,0.1-0.1,0.2c0,0-0.1,0-0.1,0.1c0,0-0.1,0.1-0.1,0.1c0,0-0.1,0.1-0.1,0.1
			c0,0,0,0,0,0c-0.1,0.1-0.2,0.1-0.2,0.2c0,0-0.1,0.1-0.1,0.1c0,0-0.1,0.1-0.1,0.1c-0.1,0.1-0.2,0.1-0.3,0.1c0,0,0,0,0,0
			c0,0,0,0,0,0c0,0-0.1,0-0.1,0l0,0c0,0-0.1,0-0.1,0c-0.1,0-0.1,0-0.2,0.1c0,0-0.1,0-0.1,0c0,0-0.1,0-0.1,0l0,0c0,0,0,0,0,0
			c-0.1,0-0.1,0-0.2,0.1l0,0c0,0,0,0-0.1,0c-0.1,0-0.2,0-0.3,0.1c0,0,0,0,0,0c0,0,0,0,0,0c0,0,0,0,0,0c0,0,0,0,0,0c0,0,0,0,0,0
			c-0.1,0-0.1,0-0.2,0c0,0,0,0,0,0c0,0-0.1,0-0.1,0c0,0-0.1,0-0.1,0l-0.1,0c-0.1,0-0.2,0-0.2,0c-0.2,0-0.5,0-0.7,0h-2.2h-4.4
			c-0.2,0-0.4,0-0.6,0c0,0-0.1,0-0.1,0c0,0-0.1,0-0.1,0c-0.1,0-0.2,0-0.3,0l-0.2,0c-0.1,0-0.2,0-0.3,0c-0.1,0-0.1,0-0.2,0
			c0,0,0,0-0.1,0c-0.1,0-0.2,0-0.3,0.1l-0.2,0c-0.1,0-0.2,0-0.2,0.1l0,0c0,0-0.1,0-0.1,0c0,0,0,0-0.1,0c-0.1,0-0.3,0.1-0.4,0.1
			c0,0,0,0-0.1,0c0,0,0,0,0,0c-0.1,0.1-0.2,0.1-0.4,0.2l-0.1,0.1c-0.1,0.1-0.2,0.1-0.3,0.1c0,0,0,0,0,0l0,0v0c0,0,0,0-0.1,0
			c0,0,0,0,0,0c-0.1,0-0.1,0.1-0.2,0.1c-0.1,0-0.1,0.1-0.1,0.1c0,0,0,0-0.1,0c-0.1,0-0.1,0.1-0.2,0.1l-0.1,0.1
			c-0.1,0.1-0.1,0.1-0.2,0.2l-0.1,0.1c-0.1,0.1-0.2,0.2-0.2,0.3c0,0,0,0,0,0.1c0,0,0,0,0,0c-0.1,0.1-0.2,0.2-0.3,0.3l-0.1,0.2
			c0,0,0,0.1-0.1,0.1c0,0,0,0,0,0.1c-0.1,0.2-0.2,0.4-0.4,0.6c0,0,0,0.1,0,0.1c-0.1,0.2-0.2,0.4-0.3,0.6c0,0,0,0,0,0.1
			c0,0,0,0.1,0,0.1l0,0l0,0c0,0,0,0.1,0,0.1c0,0.1-0.1,0.2-0.1,0.3c0,0.1-0.1,0.2-0.1,0.3c0,0,0,0,0,0c0,0,0,0,0,0c0,0,0,0.1,0,0.1
			c-0.1,0.2-0.1,0.5-0.2,0.8c0,0.1,0,0.2,0,0.3c0,0,0,0,0,0.1c0,0.2-0.1,0.4-0.1,0.6c0,0.1,0,0.2,0,0.3v0c0,0,0,0.1,0,0.1
			c0,0.2,0,0.4,0,0.6l0,0.1c0,0.1,0,0.2,0,0.2l0,0.1c0,0.2,0,0.5,0,0.7l0,0.4c0,0.3,0.1,0.6,0.1,0.9c0,0.1,0,0.2,0,0.3
			c0.1,0.5,0.2,1,0.3,1.5c0,0.2,0.1,0.3,0.1,0.4l0,0.1c0.1,0.4,0.2,0.7,0.3,1c0.1,0.3,0.2,0.6,0.4,1c0.1,0.2,0.1,0.3,0.2,0.5
			c0.2,0.5,0.5,0.9,0.7,1.3l24.9,38.2h19.1l-27.5-39C371.8,74.1,371.7,73.8,371.7,73.5z"/>
	</g>
</g>
</svg>
