<?xml version="1.0" encoding="utf-8"?>
<!-- Generator: Adobe Illustrator 23.0.1, SVG Export Plug-In . SVG Version: 6.00 Build 0)  -->
<svg version="1.1" id="Layer_1" xmlns="http://www.w3.org/2000/svg" xmlns:xlink="http://www.w3.org/1999/xlink" x="0px" y="0px"
	 viewBox="0 0 288 288" style="enable-background:new 0 0 288 288;" xml:space="preserve">
<style type="text/css">
	.st0{fill:none;stroke:#A6CE39;stroke-linecap:round;stroke-linejoin:round;stroke-miterlimit:10;}
	.st1{fill:none;stroke:#A6CE39;stroke-linejoin:round;stroke-miterlimit:10;}
	.st2{fill:none;stroke:#A6CE39;stroke-width:0.5;stroke-linecap:round;stroke-linejoin:round;stroke-miterlimit:10;}
	.st3{fill:none;stroke:#A6CE39;stroke-width:1.5;stroke-linecap:round;stroke-linejoin:round;}
	.st4{fill:none;stroke:#A6CE39;stroke-width:1.5;stroke-linecap:round;stroke-linejoin:round;stroke-dasharray:0,3.4167;}
	.st5{fill:none;stroke:#A6CE39;stroke-width:1.3571;stroke-linecap:round;stroke-linejoin:round;}
	.st6{fill:none;stroke:#A6CE39;stroke-width:1.3571;stroke-linecap:round;stroke-linejoin:round;stroke-dasharray:0,3.0952;}
	.st7{fill:none;stroke:#A6CE39;stroke-width:1.2143;stroke-linecap:round;stroke-linejoin:round;}
	.st8{fill:none;stroke:#A6CE39;stroke-width:1.2143;stroke-linecap:round;stroke-linejoin:round;stroke-dasharray:0,2.7738;}
	.st9{fill:none;stroke:#A6CE39;stroke-width:1.0714;stroke-linecap:round;stroke-linejoin:round;}
	.st10{fill:none;stroke:#A6CE39;stroke-width:1.0714;stroke-linecap:round;stroke-linejoin:round;stroke-dasharray:0,2.4524;}
	.st11{fill:none;stroke:#A6CE39;stroke-width:0.9286;stroke-linecap:round;stroke-linejoin:round;}
	.st12{fill:none;stroke:#A6CE39;stroke-width:0.9286;stroke-linecap:round;stroke-linejoin:round;stroke-dasharray:0,2.131;}
	.st13{fill:none;stroke:#A6CE39;stroke-width:0.7857;stroke-linecap:round;stroke-linejoin:round;}
	.st14{fill:none;stroke:#A6CE39;stroke-width:0.7857;stroke-linecap:round;stroke-linejoin:round;stroke-dasharray:0,2.7143;}
	.st15{fill:none;stroke:#A6CE39;stroke-width:0.6429;stroke-linecap:round;stroke-linejoin:round;}
	.st16{fill:none;stroke:#A6CE39;stroke-width:0.6429;stroke-linecap:round;stroke-linejoin:round;stroke-dasharray:0,2.2321;}
	.st17{fill:none;stroke:#A6CE39;stroke-width:0.5;stroke-linecap:round;stroke-linejoin:round;}
	.st18{fill:none;stroke:#A6CE39;stroke-width:0.5;stroke-linecap:round;stroke-linejoin:round;stroke-dasharray:0,1.75;}
	.st19{fill:none;stroke:#A6CE39;stroke-width:2.5;stroke-linecap:round;stroke-linejoin:round;}
	.st20{fill:none;stroke:#A6CE39;stroke-width:2.5;stroke-linecap:round;stroke-linejoin:round;stroke-dasharray:0,6.8661;}
	.st21{fill:none;stroke:#A6CE39;stroke-width:2.2143;stroke-linecap:round;stroke-linejoin:round;}
	.st22{fill:none;stroke:#A6CE39;stroke-width:2.2143;stroke-linecap:round;stroke-linejoin:round;stroke-dasharray:0,6.257;}
	.st23{fill:none;stroke:#A6CE39;stroke-width:1.9286;stroke-linecap:round;stroke-linejoin:round;}
	.st24{fill:none;stroke:#A6CE39;stroke-width:1.9286;stroke-linecap:round;stroke-linejoin:round;stroke-dasharray:0,5.648;}
	.st25{fill:none;stroke:#A6CE39;stroke-width:1.6429;stroke-linecap:round;stroke-linejoin:round;}
	.st26{fill:none;stroke:#A6CE39;stroke-width:1.6429;stroke-linecap:round;stroke-linejoin:round;stroke-dasharray:0,5.039;}
	.st27{fill:none;stroke:#A6CE39;stroke-width:1.3571;stroke-linecap:round;stroke-linejoin:round;stroke-dasharray:0,5.9067;}
	.st28{fill:none;stroke:#A6CE39;stroke-width:1.0714;stroke-linecap:round;stroke-linejoin:round;stroke-dasharray:0,5.0946;}
	.st29{fill:none;stroke:#A6CE39;stroke-width:0.7857;stroke-linecap:round;stroke-linejoin:round;stroke-dasharray:0,4.2826;}
	.st30{fill:none;stroke:#A6CE39;stroke-width:0.5;stroke-linecap:round;stroke-linejoin:round;stroke-dasharray:0,5.2059;}
	.st31{fill:none;stroke:#A6CE39;stroke-width:2.3217;stroke-linecap:round;stroke-linejoin:round;}
	.st32{fill:none;stroke:#A6CE39;stroke-width:2.3217;stroke-linecap:round;stroke-linejoin:round;stroke-dasharray:0,6.5164;}
	.st33{fill:none;stroke:#A6CE39;stroke-width:2.1434;stroke-linecap:round;stroke-linejoin:round;}
	.st34{fill:none;stroke:#A6CE39;stroke-width:2.1434;stroke-linecap:round;stroke-linejoin:round;stroke-dasharray:0,6.1667;}
	.st35{fill:none;stroke:#A6CE39;stroke-width:1.9651;stroke-linecap:round;stroke-linejoin:round;}
	.st36{fill:none;stroke:#A6CE39;stroke-width:1.9651;stroke-linecap:round;stroke-linejoin:round;stroke-dasharray:0,5.8171;}
	.st37{fill:none;stroke:#A6CE39;stroke-width:1.7867;stroke-linecap:round;stroke-linejoin:round;}
	.st38{fill:none;stroke:#A6CE39;stroke-width:1.7867;stroke-linecap:round;stroke-linejoin:round;stroke-dasharray:0,5.4674;}
	.st39{fill:none;stroke:#A6CE39;stroke-width:1.6084;stroke-linecap:round;stroke-linejoin:round;}
	.st40{fill:none;stroke:#A6CE39;stroke-width:1.6084;stroke-linecap:round;stroke-linejoin:round;stroke-dasharray:0,5.1177;}
	.st41{fill:none;stroke:#A6CE39;stroke-width:1.4301;stroke-linecap:round;stroke-linejoin:round;}
	.st42{fill:none;stroke:#A6CE39;stroke-width:1.4301;stroke-linecap:round;stroke-linejoin:round;stroke-dasharray:0,6.3574;}
	.st43{fill:none;stroke:#A6CE39;stroke-width:1.2518;stroke-linecap:round;stroke-linejoin:round;}
	.st44{fill:none;stroke:#A6CE39;stroke-width:1.2518;stroke-linecap:round;stroke-linejoin:round;stroke-dasharray:0,5.8912;}
	.st45{fill:none;stroke:#A6CE39;stroke-width:1.0735;stroke-linecap:round;stroke-linejoin:round;}
	.st46{fill:none;stroke:#A6CE39;stroke-width:1.0735;stroke-linecap:round;stroke-linejoin:round;stroke-dasharray:0,5.425;}
	.st47{fill:none;stroke:#A6CE39;stroke-width:0.8952;stroke-linecap:round;stroke-linejoin:round;}
	.st48{fill:none;stroke:#A6CE39;stroke-width:0.8952;stroke-linecap:round;stroke-linejoin:round;stroke-dasharray:0,4.9588;}
	.st49{fill:none;stroke:#A6CE39;stroke-width:0.7169;stroke-linecap:round;stroke-linejoin:round;}
	.st50{fill:none;stroke:#A6CE39;stroke-width:0.7169;stroke-linecap:round;stroke-linejoin:round;stroke-dasharray:0,4.4926;}
	.st51{fill:none;stroke:#A6CE39;stroke-width:0.5385;stroke-linecap:round;stroke-linejoin:round;}
	.st52{fill:none;stroke:#A6CE39;stroke-width:0.5385;stroke-linecap:round;stroke-linejoin:round;stroke-dasharray:0,4.0264;}
	.st53{fill:#A6CE39;}
	.st54{fill:none;stroke:#A6CE39;stroke-miterlimit:10;}
	.st55{fill:none;stroke:#0077C0;stroke-linejoin:round;stroke-miterlimit:10;}
	.st56{fill:none;stroke:#0077C0;stroke-width:0.5;stroke-linecap:round;stroke-linejoin:round;stroke-miterlimit:10;}
	.st57{fill:none;stroke:#0077C0;stroke-width:6;stroke-linejoin:round;stroke-miterlimit:10;stroke-dasharray:0.5,4;}
	.st58{fill:none;stroke:#0077C0;stroke-width:1.5;stroke-linecap:round;stroke-linejoin:round;}
	.st59{fill:none;stroke:#0077C0;stroke-width:1.5;stroke-linecap:round;stroke-linejoin:round;stroke-dasharray:0,3.4167;}
	.st60{fill:none;stroke:#0077C0;stroke-width:1.3571;stroke-linecap:round;stroke-linejoin:round;}
	.st61{fill:none;stroke:#0077C0;stroke-width:1.3571;stroke-linecap:round;stroke-linejoin:round;stroke-dasharray:0,3.0952;}
	.st62{fill:none;stroke:#0077C0;stroke-width:1.2143;stroke-linecap:round;stroke-linejoin:round;}
	.st63{fill:none;stroke:#0077C0;stroke-width:1.2143;stroke-linecap:round;stroke-linejoin:round;stroke-dasharray:0,2.7738;}
	.st64{fill:none;stroke:#0077C0;stroke-width:1.0714;stroke-linecap:round;stroke-linejoin:round;}
	.st65{fill:none;stroke:#0077C0;stroke-width:1.0714;stroke-linecap:round;stroke-linejoin:round;stroke-dasharray:0,2.4524;}
	.st66{fill:none;stroke:#0077C0;stroke-width:0.9286;stroke-linecap:round;stroke-linejoin:round;}
	.st67{fill:none;stroke:#0077C0;stroke-width:0.9286;stroke-linecap:round;stroke-linejoin:round;stroke-dasharray:0,2.131;}
	.st68{fill:none;stroke:#0077C0;stroke-width:0.7857;stroke-linecap:round;stroke-linejoin:round;}
	.st69{fill:none;stroke:#0077C0;stroke-width:0.7857;stroke-linecap:round;stroke-linejoin:round;stroke-dasharray:0,2.7143;}
	.st70{fill:none;stroke:#0077C0;stroke-width:0.6429;stroke-linecap:round;stroke-linejoin:round;}
	.st71{fill:none;stroke:#0077C0;stroke-width:0.6429;stroke-linecap:round;stroke-linejoin:round;stroke-dasharray:0,2.2321;}
	.st72{fill:none;stroke:#0077C0;stroke-width:0.5;stroke-linecap:round;stroke-linejoin:round;}
	.st73{fill:none;stroke:#0077C0;stroke-width:0.5;stroke-linecap:round;stroke-linejoin:round;stroke-dasharray:0,1.75;}
	.st74{fill:none;stroke:#0077C0;stroke-linecap:round;stroke-linejoin:round;stroke-miterlimit:10;}
	.st75{fill:#11110F;}
	.st76{fill:none;stroke:#EF413D;stroke-width:1.0204;stroke-linecap:round;stroke-linejoin:round;stroke-miterlimit:10;}
	.st77{fill:none;stroke:#EF413D;stroke-miterlimit:10;}
	.st78{fill:none;stroke:#EF413D;stroke-width:0.5102;stroke-miterlimit:10;}
	.st79{fill:none;stroke:#EF413D;stroke-width:0.5;stroke-miterlimit:10;}
	.st80{fill:none;stroke:#EF413D;stroke-width:0.4758;stroke-miterlimit:10;}
	.st81{fill:none;stroke:#EF413D;stroke-width:0.4119;stroke-miterlimit:10;}
	.st82{fill:none;stroke:#EF413D;stroke-width:1.5;stroke-linecap:round;stroke-linejoin:round;}
	.st83{fill:none;stroke:#EF413D;stroke-width:1.5;stroke-linecap:round;stroke-linejoin:round;stroke-dasharray:0,3.4167;}
	.st84{fill:none;stroke:#EF413D;stroke-width:1.3571;stroke-linecap:round;stroke-linejoin:round;}
	.st85{fill:none;stroke:#EF413D;stroke-width:1.3571;stroke-linecap:round;stroke-linejoin:round;stroke-dasharray:0,3.0952;}
	.st86{fill:none;stroke:#EF413D;stroke-width:1.2143;stroke-linecap:round;stroke-linejoin:round;}
	.st87{fill:none;stroke:#EF413D;stroke-width:1.2143;stroke-linecap:round;stroke-linejoin:round;stroke-dasharray:0,2.7738;}
	.st88{fill:none;stroke:#EF413D;stroke-width:1.0714;stroke-linecap:round;stroke-linejoin:round;}
	.st89{fill:none;stroke:#EF413D;stroke-width:1.0714;stroke-linecap:round;stroke-linejoin:round;stroke-dasharray:0,2.4524;}
	.st90{fill:none;stroke:#EF413D;stroke-width:0.9286;stroke-linecap:round;stroke-linejoin:round;}
	.st91{fill:none;stroke:#EF413D;stroke-width:0.9286;stroke-linecap:round;stroke-linejoin:round;stroke-dasharray:0,2.131;}
	.st92{fill:none;stroke:#EF413D;stroke-width:0.7857;stroke-linecap:round;stroke-linejoin:round;}
	.st93{fill:none;stroke:#EF413D;stroke-width:0.7857;stroke-linecap:round;stroke-linejoin:round;stroke-dasharray:0,2.7143;}
	.st94{fill:none;stroke:#EF413D;stroke-width:0.6429;stroke-linecap:round;stroke-linejoin:round;}
	.st95{fill:none;stroke:#EF413D;stroke-width:0.6429;stroke-linecap:round;stroke-linejoin:round;stroke-dasharray:0,2.2321;}
	.st96{fill:none;stroke:#EF413D;stroke-width:0.5;stroke-linecap:round;stroke-linejoin:round;}
	.st97{fill:none;stroke:#EF413D;stroke-width:0.5;stroke-linecap:round;stroke-linejoin:round;stroke-dasharray:0,1.75;}
</style>
<g>
	<path class="st76" d="M209.3,144c0-2.7-0.2-5.4-0.6-8H79.2c-0.4,2.6-0.6,5.3-0.6,8s0.2,5.4,0.6,8h129.6
		C209.1,149.4,209.3,146.7,209.3,144z"/>
	<line class="st78" x1="78.9" y1="138.6" x2="209.1" y2="138.6"/>
	<line class="st78" x1="209.1" y1="149.4" x2="78.9" y2="149.4"/>
	<g>
		<path class="st77" d="M144,74.1c-35.9,0-65.5,27.1-69.5,61.9h7.3h124.4h7.3C209.5,101.1,179.9,74.1,144,74.1z"/>
		<path class="st79" d="M107.6,84.2L107.6,84.2c-1.5-2.4-4.7-3-7-1.4c-4.6,3.3-8.8,7-12.6,11.3c-1.9,2.1-1.6,5.3,0.6,7.1l0,0
			C93.9,94.4,100.4,88.7,107.6,84.2z"/>
		<path class="st79" d="M199.3,101.2L199.3,101.2c2.2-1.7,2.5-5,0.6-7.1c-3.8-4.2-8-8-12.6-11.3c-2.3-1.6-5.5-1-7,1.4l0,0
			C187.7,88.7,194.1,94.5,199.3,101.2z"/>
		<path class="st79" d="M156.7,75.2L156.7,75.2c0.5-2.8-1.4-5.4-4.2-5.7c-5.6-0.6-11.3-0.6-16.9,0c-2.8,0.3-4.8,2.9-4.2,5.7v0
			c4.1-0.8,8.3-1.2,12.7-1.2C148.3,74.1,152.6,74.5,156.7,75.2z"/>
		<path class="st79" d="M130.7,94.7c3.3,5.8,0.2,13.8-7.1,18c-7.2,4.2-15.8,2.9-19.1-2.9c-3.3-5.8,1-11.9,8.2-16
			C120,89.6,127.4,89,130.7,94.7z"/>
		<path class="st79" d="M133.2,94.9c3.8,6.5,0.2,15.6-8.1,20.3c-8.2,4.7-18,3.3-21.8-3.2s1.1-13.4,9.3-18.1
			C121,89.1,129.4,88.4,133.2,94.9z"/>
		<path class="st79" d="M157.3,94.7c-3.3,5.8-0.2,13.8,7.1,18c7.2,4.2,15.8,2.9,19.1-2.9s-1-11.9-8.2-16
			C168,89.6,160.6,89,157.3,94.7z"/>
		<path class="st79" d="M154.8,94.9c-3.8,6.5-0.2,15.6,8.1,20.3c8.2,4.7,18,3.3,21.8-3.2c3.8-6.5-1.1-13.4-9.3-18.1
			C167,89.1,158.6,88.4,154.8,94.9z"/>
		<path class="st80" d="M82.8,136c0,0,0.2-3.6-3.1-7h-2c-3.3,3.4-3.1,7-3.1,7"/>
		<path class="st80" d="M100.3,136c0,0,0.2-3.6-3.1-7H85.9c-3.3,3.4-3.1,7-3.1,7"/>
		<path class="st80" d="M126.5,136c0,0,0.2-3.6-3.1-7h-20c-3.3,3.4-3.1,7-3.1,7"/>
		<path class="st80" d="M161.5,136c0,0,0.2-3.6-3.1-7h-28.8c-3.3,3.4-3.1,7-3.1,7"/>
		<path class="st80" d="M205.2,136c0,0-0.2-3.6,3.1-7h2c3.3,3.4,3.1,7,3.1,7"/>
		<path class="st80" d="M187.7,136c0,0-0.2-3.6,3.1-7h11.3c3.3,3.4,3.1,7,3.1,7"/>
		<path class="st80" d="M161.5,136c0,0-0.2-3.6,3.1-7h20c3.3,3.4,3.1,7,3.1,7"/>
	</g>
	<g>
		<path class="st81" d="M208.8,138.6c0.4,1.8,0.6,3.6,0.6,5.4c0,1.8-0.2,3.7-0.6,5.4"/>
		<path class="st81" d="M204.7,138.6c0.3,1.8,0.5,3.6,0.5,5.4s-0.2,3.7-0.5,5.4"/>
		<path class="st81" d="M200.7,138.6c0.3,1.8,0.5,3.6,0.5,5.4s-0.2,3.7-0.5,5.4"/>
		<path class="st81" d="M196.6,138.6c0.3,1.8,0.4,3.6,0.4,5.4s-0.2,3.7-0.4,5.4"/>
		<path class="st81" d="M192.6,138.6c0.3,1.8,0.4,3.6,0.4,5.4s-0.2,3.7-0.4,5.4"/>
		<path class="st81" d="M188.5,138.6c0.2,1.8,0.4,3.6,0.4,5.4s-0.1,3.7-0.4,5.4"/>
		<path class="st81" d="M184.5,138.6c0.2,1.8,0.3,3.6,0.3,5.4s-0.1,3.7-0.3,5.4"/>
		<path class="st81" d="M180.4,138.6c0.2,1.8,0.3,3.6,0.3,5.4s-0.1,3.7-0.3,5.4"/>
		<path class="st81" d="M176.4,138.6c0.2,1.8,0.3,3.6,0.3,5.4c0,1.8-0.1,3.7-0.3,5.4"/>
		<path class="st81" d="M172.3,138.6c0.2,1.8,0.2,3.6,0.2,5.4c0,1.8-0.1,3.7-0.2,5.4"/>
		<path class="st81" d="M168.3,138.6c0.1,1.8,0.2,3.6,0.2,5.4c0,1.8-0.1,3.7-0.2,5.4"/>
		<path class="st81" d="M164.2,138.6c0.1,1.8,0.2,3.6,0.2,5.4c0,1.8-0.1,3.7-0.2,5.4"/>
		<path class="st81" d="M160.2,138.6c0.1,1.8,0.1,3.6,0.1,5.4c0,1.8-0.1,3.7-0.1,5.4"/>
		<path class="st81" d="M156.1,138.6c0.1,1.8,0.1,3.6,0.1,5.4s0,3.7-0.1,5.4"/>
		<path class="st81" d="M152.1,138.6c0,1.8,0.1,3.6,0.1,5.4s0,3.7-0.1,5.4"/>
		<path class="st81" d="M148,138.6c0,1.8,0,3.6,0,5.4s0,3.7,0,5.4"/>
		<path class="st81" d="M144,138.6c0,1.8,0,3.6,0,5.4s0,3.7,0,5.4"/>
		<path class="st81" d="M140,138.6c0,1.8,0,3.6,0,5.4s0,3.7,0,5.4"/>
		<path class="st81" d="M135.9,138.6c0,1.8-0.1,3.6-0.1,5.4s0,3.7,0.1,5.4"/>
		<path class="st81" d="M131.9,138.6c-0.1,1.8-0.1,3.6-0.1,5.4s0,3.7,0.1,5.4"/>
		<path class="st81" d="M127.8,138.6c-0.1,1.8-0.1,3.6-0.1,5.4c0,1.8,0.1,3.7,0.1,5.4"/>
		<path class="st81" d="M123.8,138.6c-0.1,1.8-0.2,3.6-0.2,5.4c0,1.8,0.1,3.7,0.2,5.4"/>
		<path class="st81" d="M119.7,138.6c-0.1,1.8-0.2,3.6-0.2,5.4c0,1.8,0.1,3.7,0.2,5.4"/>
		<path class="st81" d="M115.7,138.6c-0.2,1.8-0.2,3.6-0.2,5.4c0,1.8,0.1,3.7,0.2,5.4"/>
		<path class="st81" d="M111.6,138.6c-0.2,1.8-0.3,3.6-0.3,5.4c0,1.8,0.1,3.7,0.3,5.4"/>
		<path class="st81" d="M107.6,138.6c-0.2,1.8-0.3,3.6-0.3,5.4s0.1,3.7,0.3,5.4"/>
		<path class="st81" d="M103.5,138.6c-0.2,1.8-0.3,3.6-0.3,5.4s0.1,3.7,0.3,5.4"/>
		<path class="st81" d="M99.5,138.6c-0.2,1.8-0.4,3.6-0.4,5.4s0.1,3.7,0.4,5.4"/>
		<path class="st81" d="M95.4,138.6c-0.3,1.8-0.4,3.6-0.4,5.4s0.2,3.7,0.4,5.4"/>
		<path class="st81" d="M91.4,138.6c-0.3,1.8-0.4,3.6-0.4,5.4s0.2,3.7,0.4,5.4"/>
		<path class="st81" d="M87.3,138.6c-0.3,1.8-0.5,3.6-0.5,5.4s0.2,3.7,0.5,5.4"/>
		<path class="st81" d="M83.3,138.6c-0.3,1.8-0.5,3.6-0.5,5.4c0,1.8,0.2,3.7,0.5,5.4"/>
		<path class="st81" d="M79.2,138.6c-0.4,1.8-0.6,3.6-0.6,5.4c0,1.8,0.2,3.7,0.6,5.4"/>
	</g>
	<g>
		<g>
			<g>
				<line class="st82" x1="93.9" y1="207.3" x2="93.9" y2="207.3"/>
				<line class="st83" x1="91.3" y1="205" x2="87.5" y2="201.6"/>
				<line class="st82" x1="86.3" y1="200.4" x2="86.3" y2="200.4"/>
			</g>
		</g>
		<g>
			<g>
				<line class="st84" x1="92" y1="208.6" x2="92" y2="208.6"/>
				<line class="st85" x1="89.7" y1="206.5" x2="86.3" y2="203.4"/>
				<line class="st84" x1="85.1" y1="202.4" x2="85.1" y2="202.4"/>
			</g>
		</g>
		<g>
			<g>
				<line class="st86" x1="90.2" y1="210" x2="90.2" y2="210"/>
				<line class="st87" x1="88.1" y1="208.1" x2="85" y2="205.3"/>
				<line class="st86" x1="84" y1="204.4" x2="84" y2="204.4"/>
			</g>
		</g>
		<g>
			<g>
				<line class="st88" x1="88.3" y1="211.3" x2="88.3" y2="211.3"/>
				<line class="st89" x1="86.5" y1="209.7" x2="83.7" y2="207.2"/>
				<line class="st88" x1="82.8" y1="206.4" x2="82.8" y2="206.4"/>
			</g>
		</g>
		<g>
			<g>
				<line class="st90" x1="86.4" y1="212.7" x2="86.4" y2="212.7"/>
				<line class="st91" x1="84.9" y1="211.2" x2="82.5" y2="209.1"/>
				<line class="st90" x1="81.7" y1="208.4" x2="81.7" y2="208.4"/>
			</g>
		</g>
		<g>
			<g>
				<line class="st92" x1="84.6" y1="214" x2="84.6" y2="214"/>
				<line class="st93" x1="82.6" y1="212.2" x2="81.5" y2="211.3"/>
				<line class="st92" x1="80.5" y1="210.4" x2="80.5" y2="210.4"/>
			</g>
		</g>
		<g>
			<g>
				<line class="st94" x1="82.7" y1="215.4" x2="82.7" y2="215.4"/>
				<line class="st95" x1="81.1" y1="213.9" x2="80.2" y2="213.1"/>
				<line class="st94" x1="79.4" y1="212.4" x2="79.4" y2="212.4"/>
			</g>
		</g>
		<g>
			<g>
				<line class="st96" x1="80.8" y1="216.7" x2="80.8" y2="216.7"/>
				<line class="st97" x1="79.5" y1="215.5" x2="78.9" y2="214.9"/>
				<line class="st96" x1="78.2" y1="214.4" x2="78.2" y2="214.4"/>
			</g>
		</g>
	</g>
	<g>
		<g>
			<g>
				<line class="st82" x1="149.1" y1="224.6" x2="149.1" y2="224.6"/>
				<line class="st83" x1="145.7" y1="224.6" x2="140.5" y2="224.6"/>
				<line class="st82" x1="138.8" y1="224.6" x2="138.8" y2="224.6"/>
			</g>
		</g>
		<g>
			<g>
				<line class="st84" x1="148.6" y1="226.8" x2="148.6" y2="226.8"/>
				<line class="st85" x1="145.5" y1="226.8" x2="140.9" y2="226.8"/>
				<line class="st84" x1="139.3" y1="226.8" x2="139.3" y2="226.8"/>
			</g>
		</g>
		<g>
			<g>
				<line class="st86" x1="148.1" y1="229.1" x2="148.1" y2="229.1"/>
				<line class="st87" x1="145.4" y1="229.1" x2="141.2" y2="229.1"/>
				<line class="st86" x1="139.8" y1="229.1" x2="139.8" y2="229.1"/>
			</g>
		</g>
		<g>
			<g>
				<line class="st88" x1="147.6" y1="231.3" x2="147.6" y2="231.3"/>
				<line class="st89" x1="145.2" y1="231.3" x2="141.5" y2="231.3"/>
				<line class="st88" x1="140.3" y1="231.3" x2="140.3" y2="231.3"/>
			</g>
		</g>
		<g>
			<g>
				<line class="st90" x1="147.2" y1="233.5" x2="147.2" y2="233.5"/>
				<line class="st91" x1="145" y1="233.5" x2="141.8" y2="233.5"/>
				<line class="st90" x1="140.8" y1="233.5" x2="140.8" y2="233.5"/>
			</g>
		</g>
		<g>
			<g>
				<line class="st92" x1="146.7" y1="235.8" x2="146.7" y2="235.8"/>
				<line class="st93" x1="144" y1="235.8" x2="142.6" y2="235.8"/>
				<line class="st92" x1="141.3" y1="235.8" x2="141.3" y2="235.8"/>
			</g>
		</g>
		<g>
			<g>
				<line class="st94" x1="146.2" y1="238" x2="146.2" y2="238"/>
				<line class="st95" x1="144" y1="238" x2="142.8" y2="238"/>
				<line class="st94" x1="141.7" y1="238" x2="141.7" y2="238"/>
			</g>
		</g>
		<g>
			<g>
				<line class="st96" x1="145.7" y1="240.3" x2="145.7" y2="240.3"/>
				<line class="st97" x1="144" y1="240.3" x2="143.1" y2="240.3"/>
				<line class="st96" x1="142.2" y1="240.3" x2="142.2" y2="240.3"/>
			</g>
		</g>
	</g>
	<g>
		<g>
			<g>
				<line class="st82" x1="201.7" y1="200.5" x2="201.7" y2="200.5"/>
				<line class="st83" x1="199.1" y1="202.7" x2="195.3" y2="206.2"/>
				<line class="st82" x1="194.1" y1="207.3" x2="194.1" y2="207.3"/>
			</g>
		</g>
		<g>
			<g>
				<line class="st84" x1="202.8" y1="202.5" x2="202.8" y2="202.5"/>
				<line class="st85" x1="200.5" y1="204.5" x2="197.1" y2="207.6"/>
				<line class="st84" x1="195.9" y1="208.7" x2="195.9" y2="208.7"/>
			</g>
		</g>
		<g>
			<g>
				<line class="st86" x1="204" y1="204.4" x2="204" y2="204.4"/>
				<line class="st87" x1="201.9" y1="206.3" x2="198.8" y2="209.1"/>
				<line class="st86" x1="197.8" y1="210" x2="197.8" y2="210"/>
			</g>
		</g>
		<g>
			<g>
				<line class="st88" x1="205.1" y1="206.4" x2="205.1" y2="206.4"/>
				<line class="st89" x1="203.3" y1="208.1" x2="200.6" y2="210.5"/>
				<line class="st88" x1="199.7" y1="211.4" x2="199.7" y2="211.4"/>
			</g>
		</g>
		<g>
			<g>
				<line class="st90" x1="206.3" y1="208.4" x2="206.3" y2="208.4"/>
				<line class="st91" x1="204.7" y1="209.9" x2="202.3" y2="212"/>
				<line class="st90" x1="201.5" y1="212.7" x2="201.5" y2="212.7"/>
			</g>
		</g>
		<g>
			<g>
				<line class="st92" x1="207.4" y1="210.4" x2="207.4" y2="210.4"/>
				<line class="st93" x1="205.4" y1="212.2" x2="204.4" y2="213.1"/>
				<line class="st92" x1="203.4" y1="214.1" x2="203.4" y2="214.1"/>
			</g>
		</g>
		<g>
			<g>
				<line class="st94" x1="208.6" y1="212.4" x2="208.6" y2="212.4"/>
				<line class="st95" x1="206.9" y1="213.9" x2="206.1" y2="214.7"/>
				<line class="st94" x1="205.2" y1="215.4" x2="205.2" y2="215.4"/>
			</g>
		</g>
		<g>
			<g>
				<line class="st96" x1="209.7" y1="214.4" x2="209.7" y2="214.4"/>
				<line class="st97" x1="208.4" y1="215.6" x2="207.7" y2="216.2"/>
				<line class="st96" x1="207.1" y1="216.7" x2="207.1" y2="216.7"/>
			</g>
		</g>
	</g>
	<g>
		<path class="st77" d="M144,213.9c35.9,0,65.5-27.1,69.5-61.9h-7.3H81.8h-7.3C78.5,186.9,108.1,213.9,144,213.9z"/>
		<path class="st79" d="M180.4,203.8L180.4,203.8c1.5,2.4,4.7,3,7,1.4c4.6-3.3,8.8-7,12.6-11.3c1.9-2.1,1.6-5.3-0.6-7.1l0,0
			C194.1,193.6,187.6,199.3,180.4,203.8z"/>
		<path class="st79" d="M88.7,186.8L88.7,186.8c-2.2,1.7-2.5,5-0.6,7.1c3.8,4.2,8,8,12.6,11.3c2.3,1.6,5.5,1,7-1.4l0,0
			C100.3,199.3,93.9,193.5,88.7,186.8z"/>
		<path class="st79" d="M131.3,212.8L131.3,212.8c-0.5,2.8,1.4,5.4,4.2,5.7c5.6,0.6,11.3,0.6,16.9,0c2.8-0.3,4.8-2.9,4.2-5.7h0
			c-4.1,0.8-8.3,1.2-12.7,1.2C139.7,213.9,135.4,213.5,131.3,212.8z"/>
		<path class="st79" d="M157.3,193.3c-3.3-5.8-0.2-13.8,7.1-18s15.8-2.9,19.1,2.9c3.3,5.8-1,11.9-8.2,16
			C168,198.4,160.6,199,157.3,193.3z"/>
		<path class="st79" d="M154.8,193.1c-3.8-6.5-0.2-15.6,8.1-20.3s18-3.3,21.8,3.2c3.8,6.5-1.1,13.4-9.3,18.1
			S158.6,199.6,154.8,193.1z"/>
		<path class="st79" d="M130.7,193.3c3.3-5.8,0.2-13.8-7.1-18c-7.2-4.2-15.8-2.9-19.1,2.9c-3.3,5.8,1,11.9,8.2,16
			C120,198.4,127.4,199,130.7,193.3z"/>
		<path class="st79" d="M133.2,193.1c3.8-6.5,0.2-15.6-8.1-20.3s-18-3.3-21.8,3.2s1.1,13.4,9.3,18.1S129.4,199.6,133.2,193.1z"/>
		<path class="st80" d="M205.2,152c0,0-0.2,3.6,3.1,7h2c3.3-3.4,3.1-7,3.1-7"/>
		<path class="st80" d="M187.7,152c0,0-0.2,3.6,3.1,7h11.3c3.3-3.4,3.1-7,3.1-7"/>
		<path class="st80" d="M161.5,152c0,0-0.2,3.6,3.1,7h20c3.3-3.4,3.1-7,3.1-7"/>
		<path class="st80" d="M126.5,152c0,0-0.2,3.6,3.1,7h28.8c3.3-3.4,3.1-7,3.1-7"/>
		<path class="st80" d="M82.8,152c0,0,0.2,3.6-3.1,7h-2c-3.3-3.4-3.1-7-3.1-7"/>
		<path class="st80" d="M100.3,152c0,0,0.2,3.6-3.1,7H85.9c-3.3-3.4-3.1-7-3.1-7"/>
		<path class="st80" d="M126.5,152c0,0,0.2,3.6-3.1,7h-20c-3.3-3.4-3.1-7-3.1-7"/>
	</g>
</g>
</svg>
